<?xml version="1.0" encoding="UTF-8"?>
<!DOCTYPE svg PUBLIC "-//W3C//DTD SVG 1.1//EN" "http://www.w3.org/Graphics/SVG/1.1/DTD/svg11.dtd">
<!-- Creator: CorelDRAW X7 -->
<svg xmlns="http://www.w3.org/2000/svg" xml:space="preserve" width="93.599mm" height="131.93mm" version="1.1" style="shape-rendering:geometricPrecision; text-rendering:geometricPrecision; image-rendering:optimizeQuality; fill-rule:evenodd; clip-rule:evenodd"
viewBox="0 0 1058 1492"
 xmlns:xlink="http://www.w3.org/1999/xlink">
 <defs>
  <style type="text/css">
   <![CDATA[
    .str0 {stroke:#2B2A29;stroke-width:2.26116}
    .fil0 {fill:none}
    .fil1 {fill:#2B2A29}
   ]]>
  </style>
 </defs>
 <g id="Layer_x0020_1">
  <metadata id="CorelCorpID_0Corel-Layer"/>
  <path class="fil0 str0" d="M19 190c-11,17 -18,157 -12,157"/>
  <path class="fil1" d="M8 337c12,-57 162,-152 285,-173 51,-10 176,-16 293,1 197,25 305,55 397,85 40,17 69,30 68,56l0 12c3,-2 4,-6 5,-10 -1,-1 -1,-2 -1,-4l0 -2c0,-2 1,-3 1,-4 1,-24 1,-42 2,-69 1,-65 3,-80 -75,-116 -88,-35 -221,-67 -399,-98 -107,-20 -204,-20 -291,0 -125,32 -215,89 -274,175 -10,15 -16,124 -13,151 1,-1 1,-3 2,-4zm721 -198c1,0 2,0 3,0 0,0 3,0 4,0 1,0 3,-1 4,-1 2,-1 4,-3 6,-4 1,-2 2,-4 4,-7 1,-2 1,-6 1,-9 0,-4 0,-7 -2,-10 -1,-3 -2,-6 -4,-8 -1,-2 -3,-4 -5,-6 -5,-3 -8,-4 -9,-4 -1,0 -2,0 -3,-1 0,1 -1,0 -2,0 -2,0 -4,1 -5,2 -8,3 -12,11 -12,20 0,4 1,9 3,13 2,4 5,8 9,11 4,3 8,3 8,4zm0 -42c-4,-1 -8,1 -10,4 -3,3 -4,7 -4,12 1,5 3,10 5,13 3,3 7,6 12,6 4,0 7,-1 10,-4 2,-3 4,-8 3,-13 0,-4 -2,-9 -5,-12 -3,-4 -7,-6 -11,-6zm101 63c1,0 2,0 2,1 1,-1 2,0 2,0 6,0 10,-2 13,-5 2,-3 4,-7 4,-11 0,-4 0,-9 -2,-13 0,-3 -2,-6 -3,-8 -3,-5 -7,-9 -12,-11 0,0 -1,0 -2,-1 -1,0 -2,0 -3,-1 -1,1 -2,0 -2,0 -2,0 -4,1 -6,1 -2,1 -4,2 -5,4 -2,1 -3,3 -4,6 -2,6 -2,13 1,20 3,7 7,13 13,16 2,1 4,2 4,2zm0 -41c-4,-1 -7,0 -10,3 -2,2 -4,6 -3,11 0,5 2,10 5,13 2,4 6,7 10,8 4,0 7,-1 10,-4 2,-2 4,-6 3,-11 0,-5 -2,-10 -5,-13 -2,-4 -6,-7 -10,-7zm-65 24c2,0 4,0 6,1 0,-5 0,-10 0,-15 0,-5 0,-9 0,-14 0,0 6,7 7,9 2,3 4,6 6,9 2,3 4,5 7,9 3,4 4,6 6,9 0,-4 0,-8 0,-12 0,-3 0,-7 0,-11 0,-4 0,-8 0,-12 0,-3 0,-7 0,-11 -2,0 -4,-1 -6,-1 0,4 0,9 0,14 0,5 0,10 0,15 0,0 -2,-4 -3,-5 -4,-5 -8,-10 -11,-15 -4,-6 -8,-11 -12,-16 0,4 0,8 0,11 0,4 0,8 0,12 0,4 0,7 0,11 0,4 0,8 0,12zm-96 -52c0,1 0,1 0,2 0,1 0,2 1,2 1,5 3,8 6,10 6,5 16,8 15,14 0,3 -2,4 -3,5 -4,1 -8,-1 -11,-4 -1,0 -1,-1 -2,-1 -1,0 -4,2 -5,3 1,1 2,2 2,3 1,1 2,1 3,2 3,3 6,3 7,4 1,0 2,0 3,0 1,0 5,1 8,-2 2,-1 4,-3 5,-7 0,-4 -1,-7 -3,-10 -2,-3 -4,-5 -7,-7 -4,-3 -14,-7 -12,-13 1,-5 7,-5 12,-2 2,1 3,3 4,3 1,-1 3,-2 5,-3 -1,-1 -4,-4 -5,-5 -1,-1 -2,-2 -4,-2 -1,-1 -3,-2 -3,-2 -1,0 -2,0 -3,0 -1,0 -2,0 -3,0 -3,0 -6,2 -8,5 -2,2 -1,4 -2,5zm205 80c1,0 2,0 3,0 1,0 4,1 8,-2 1,-1 2,-2 3,-5 0,0 0,-2 0,-2 0,-1 0,-2 0,-2 0,-1 0,-2 0,-2 -1,-4 -4,-8 -6,-10 -2,-1 -4,-3 -6,-4 -2,-1 -4,-2 -5,-4 -2,-1 -4,-3 -4,-5 0,-6 7,-7 13,-2 1,0 2,2 2,2 2,-1 3,-2 5,-3 -1,-1 -4,-4 -5,-5 -4,-3 -5,-3 -6,-4 -1,0 -2,0 -3,0 -1,0 -4,-1 -7,1 -3,2 -4,4 -4,7 -1,3 0,7 2,10 1,3 4,5 6,7 4,3 14,7 12,13 -1,3 -3,4 -6,3 -2,0 -4,-1 -5,-2 -2,-1 -3,-2 -3,-3 -1,0 -5,3 -5,3 1,1 1,1 2,3 2,2 4,4 7,5 0,0 1,1 2,1z"/>
  <path class="fil1" d="M1047 1400c-409,3 -757,1 -1046,-4 0,0 0,0 -1,0 0,8 0,14 1,19 144,3 303,4 477,5 176,1 367,0 571,-1 1,-5 0,-12 -2,-19z"/>
  <path class="fil1" d="M5 1421c20,22 44,38 73,49 119,34 851,24 908,0 25,-14 45,-29 60,-45 -204,1 -393,1 -568,1 -172,-1 -331,-3 -473,-5z"/>
  <path class="fil1" d="M8 336c-1,3 -1,5 -1,7l0 1 -1 0 -6 1052 8 0 0 -6c8,1 15,1 22,1 4,0 8,-3 8,-8 0,-1 0,-2 0,-3 0,-4 -4,-8 -8,-8 -7,0 -14,0 -21,0l0 -50c7,0 14,-1 21,-1 5,0 8,-4 8,-8 0,-1 0,-2 0,-3 0,-5 -3,-8 -7,-8 -8,1 -15,1 -22,2l0 -51c8,-1 15,-1 22,-2 4,-1 8,-4 8,-9 0,-1 0,-2 0,-3 0,-4 -4,-7 -8,-7 -7,1 -14,2 -22,3l1 -50c7,-2 14,-3 22,-4 4,-1 7,-5 7,-9 0,-1 0,-2 0,-3 0,-5 -3,-8 -7,-7 -7,1 -15,3 -22,4l0 -48c8,-2 15,-3 23,-5 4,-1 7,-5 7,-10 0,-1 0,-2 0,-3 0,-4 -3,-7 -7,-6 -8,2 -15,4 -23,6l1 -50c7,-3 15,-5 23,-7 4,-2 7,-6 7,-10 0,-1 0,-2 0,-3 0,-5 -3,-8 -7,-6 -8,2 -16,5 -23,7l0 -50c8,-3 16,-6 24,-9 4,-1 7,-6 7,-10 0,-1 0,-2 0,-3 0,-4 -3,-7 -7,-5 -8,3 -16,6 -24,9l0 -50c8,-4 16,-7 25,-11 4,-2 7,-6 7,-11 0,-1 0,-2 0,-3 0,-4 -3,-7 -7,-5 -8,4 -16,8 -25,12l1 -49c8,-5 16,-9 24,-13 4,-2 8,-7 8,-11 0,-1 0,-2 0,-3 0,-4 -3,-7 -8,-4 -8,4 -16,8 -24,13l0 -51c8,-5 16,-9 25,-14 4,-2 7,-7 7,-12 0,-1 0,-2 0,-3 0,-4 -3,-6 -7,-4 -8,5 -17,10 -25,15l1 -50c8,-6 16,-11 24,-16 4,-3 7,-8 7,-12 0,-1 0,-2 0,-3 0,-4 -3,-6 -7,-4 -8,5 -16,11 -24,16l0 -49c8,-7 17,-12 25,-18 4,-3 7,-8 8,-13 0,-1 0,-2 0,-3 0,-4 -4,-6 -8,-3 -8,6 -17,12 -25,19l0 -47c9,-8 18,-14 27,-21 4,-3 8,-9 8,-13 0,-1 0,-2 0,-3 0,-4 -3,-6 -7,-3 -9,7 -18,15 -28,23l1 -18c1,-3 2,-5 2,-7 0,-1 0,-2 0,-3 0,-2 -1,-4 -2,-3l0 -17c10,-10 20,-18 30,-26 4,-4 8,-9 8,-14 0,-1 0,-2 0,-3 0,-4 -3,-5 -7,-2 -10,9 -21,17 -31,28l0 -15c3,-5 6,-10 6,-14 0,0 0,-2 0,-3 0,-3 -3,-4 -6,-1l0 -15c11,-12 22,-22 33,-32 4,-3 8,-9 8,-13 0,-1 0,-2 0,-3 0,-5 -3,-6 -7,-3 -11,10 -22,21 -33,33 0,0 -1,0 -1,0l0 -15c4,-5 8,-12 8,-16 0,-1 0,-2 0,-3 0,-4 -4,-4 -7,1l-1 0 1 -16c0,0 0,0 1,-1 11,-13 21,-24 33,-34 4,-4 7,-10 7,-14 0,-1 0,-2 0,-3 0,-4 -3,-6 -7,-2 -11,11 -22,22 -33,35 -1,0 -1,1 -1,1l0 -16 0 0c4,-5 8,-12 8,-16 0,-1 0,-2 0,-3 0,-5 -4,-4 -8,1 -2,3 -5,6 -7,9zm42 -47c11,-10 22,-19 33,-27 5,-3 8,-2 8,3 0,1 0,2 0,3 0,4 -3,10 -8,13 -11,8 -22,17 -33,27 -4,3 -7,3 -7,-1 0,-1 0,-2 0,-3 0,-4 3,-12 7,-15zm69 -51c10,-7 21,-12 32,-18 4,-2 8,0 8,5 0,1 0,2 0,3 0,4 -4,10 -8,12 -11,6 -21,11 -32,18 -5,2 -8,1 -8,-4 0,-1 0,-2 0,-3 0,-5 4,-10 8,-13zm67 -34c11,-4 22,-9 33,-12 4,-2 8,1 8,6 0,1 0,2 0,3 0,5 -4,10 -8,11 -11,4 -22,8 -33,12 -4,2 -7,-1 -7,-5 0,-1 0,-2 0,-3 0,-5 3,-11 7,-12zm68 -23c11,-3 22,-6 33,-8 4,-1 7,3 7,8 0,1 0,2 0,3 0,5 -3,9 -7,10 -11,2 -22,5 -33,8 -4,1 -7,-2 -7,-7 0,-1 0,-2 0,-3 0,-5 3,-10 7,-11zm68 -14c10,-2 21,-3 32,-3 4,-1 7,3 7,8 0,1 0,2 0,3 0,5 -3,9 -7,10 -11,1 -22,2 -32,3 -5,1 -8,-3 -8,-7 0,-1 0,-3 0,-4 0,-5 3,-9 8,-10zm67 -5c11,0 21,0 32,0 4,0 8,5 8,10 0,1 0,2 0,3 0,5 -4,9 -8,8 -11,0 -21,0 -32,0 -4,0 -8,-4 -8,-9 0,-1 0,-2 0,-3 0,-5 4,-9 8,-9zm67 1c11,1 21,1 33,2 4,0 7,4 7,9 0,1 0,2 0,3 0,5 -4,9 -8,9 -11,-1 -21,-1 -32,-2 -4,0 -7,-4 -7,-9 0,-1 0,-2 0,-3 0,-5 3,-9 7,-9zm67 4c11,1 22,2 33,3 4,0 7,4 7,9 0,2 0,3 0,4 0,4 -3,8 -7,8 -11,-1 -22,-2 -33,-3 -4,0 -7,-5 -7,-10 0,-1 0,-2 0,-3 0,-5 3,-9 7,-8zm68 6c10,2 21,3 32,4 4,1 7,5 7,10 0,1 0,2 0,3 0,5 -3,9 -7,8 -11,-1 -22,-2 -33,-4 -3,0 -7,-5 -7,-9 0,-1 0,-3 0,-4 0,-5 4,-8 8,-8zm67 9c11,2 21,3 32,5 4,1 8,5 8,10 0,1 0,2 0,3 0,5 -4,9 -8,8 -11,-2 -21,-3 -32,-5 -4,-1 -8,-5 -8,-10 0,-1 0,-2 0,-3 0,-5 4,-9 8,-8zm67 11c11,2 22,4 32,6 5,1 8,6 8,10 0,2 0,3 0,4 0,4 -3,8 -8,7 -10,-2 -21,-4 -32,-6 -4,-1 -7,-5 -7,-10 0,-1 0,-2 0,-3 0,-5 3,-8 7,-8zm67 14c11,2 22,5 33,7 4,1 7,6 7,11 0,1 0,2 0,3 0,4 -3,7 -7,6 -11,-2 -22,-4 -33,-7 -4,-1 -7,-5 -7,-10 0,-1 0,-2 0,-3 0,-5 3,-8 7,-7zm68 16c10,3 21,5 32,9 4,1 7,6 7,10 0,1 0,2 0,3 0,5 -3,8 -7,7 -11,-4 -22,-6 -32,-9 -4,-1 -8,-6 -8,-10 0,-1 0,-2 0,-3 0,-5 4,-8 8,-7zm67 19c11,3 22,7 33,11 4,1 7,6 7,11 0,1 0,2 0,2 0,5 -3,8 -7,6 -11,-3 -22,-7 -33,-10 -4,-2 -7,-6 -7,-11 0,-1 0,-2 0,-3 0,-5 3,-7 7,-6zm68 24c10,4 21,8 32,13 4,2 8,7 8,12 0,0 0,2 0,2 0,5 -4,7 -8,5 -11,-5 -22,-9 -32,-13 -4,-2 -8,-7 -8,-11 0,-1 0,-2 0,-3 0,-5 4,-7 8,-5zm-911 31c11,-8 22,-15 33,-21 4,-3 8,-1 7,4 0,1 0,2 0,3 0,4 -3,10 -7,12 -11,7 -22,14 -33,22 -4,2 -7,1 -7,-4 0,0 0,-1 0,-2 0,-5 3,-11 7,-14zm68 -40c11,-5 22,-10 33,-15 4,-1 7,1 7,6 0,1 0,2 0,3 0,5 -3,10 -7,12 -11,4 -22,9 -33,14 -4,2 -7,0 -7,-5 0,-1 0,-2 0,-3 0,-4 3,-10 7,-12zm68 -27c11,-4 22,-7 32,-10 5,-1 8,2 8,7 0,1 0,2 0,3 0,5 -4,10 -8,11 -11,3 -21,6 -32,9 -4,1 -8,-1 -8,-6 0,-1 0,-2 0,-3 0,-5 4,-10 8,-11zm67 -18c11,-2 22,-4 33,-6 4,0 7,3 7,8 0,1 0,3 0,4 0,4 -3,9 -7,9 -11,2 -22,4 -33,6 -4,1 -7,-3 -7,-7 0,-1 0,-3 0,-4 0,-4 3,-9 7,-10zm68 -9c11,-1 21,-2 32,-2 4,0 8,4 8,9 0,1 0,2 0,3 0,5 -4,9 -8,9 -11,0 -22,1 -32,2 -4,0 -8,-4 -8,-9 0,0 0,-2 0,-3 0,-5 4,-9 8,-9zm67 -1c11,0 22,0 33,0 4,0 7,5 7,10 0,1 0,2 0,3 0,5 -3,8 -8,8 -10,0 -21,0 -32,0 -4,0 -7,-4 -7,-9 0,-1 0,-2 0,-3 0,-5 3,-9 7,-9zm67 2c11,1 22,1 33,2 4,0 7,5 7,9 0,2 0,3 0,4 0,5 -3,8 -7,8 -11,-1 -22,-1 -33,-2 -4,0 -7,-4 -7,-9 0,-1 0,-2 0,-3 0,-5 3,-9 7,-9zm68 5c10,1 21,2 32,3 4,0 7,5 7,10 0,1 0,2 0,3 0,5 -3,8 -7,8 -11,-1 -22,-2 -32,-3 -5,0 -8,-5 -8,-10 0,-1 0,-2 0,-3 0,-5 4,-8 8,-8zm67 7c11,1 21,3 32,5 4,0 8,5 8,10 0,1 0,2 0,3 0,4 -4,8 -8,7 -11,-1 -21,-3 -32,-4 -4,0 -8,-5 -8,-10 0,-1 0,-2 0,-3 0,-5 4,-8 8,-8zm67 10c11,1 22,3 33,5 4,1 7,6 7,10 0,2 0,3 0,4 0,4 -3,8 -7,7 -11,-2 -22,-4 -33,-6 -4,0 -7,-5 -7,-9 0,-1 0,-2 0,-3 0,-5 3,-9 7,-8zm67 12c11,2 22,4 33,6 4,1 7,6 7,11 0,1 0,2 0,3 0,4 -3,8 -7,7 -11,-2 -22,-5 -33,-7 -4,-1 -7,-5 -7,-10 0,-1 0,-2 0,-3 0,-5 3,-8 7,-7zm68 14c11,3 21,5 32,8 4,1 8,6 8,10 0,1 0,2 0,3 0,5 -4,8 -8,7 -11,-3 -21,-5 -32,-8 -4,-1 -8,-5 -8,-10 0,-1 1,-2 0,-3 0,-5 4,-8 8,-7zm67 17c11,3 22,6 33,9 4,1 7,6 7,11 0,1 0,2 0,3 0,4 -3,7 -7,6 -11,-3 -22,-6 -33,-9 -4,-1 -7,-6 -7,-11 0,0 0,-2 0,-3 0,-4 3,-7 7,-6zm68 20c10,4 21,8 32,12 4,2 8,6 8,11 0,1 0,2 0,3 0,4 -4,7 -8,5 -11,-4 -21,-8 -32,-11 -4,-2 -8,-6 -8,-11 0,-1 0,-2 0,-3 0,-4 4,-7 8,-6zm82 33c-5,-3 -10,-5 -15,-7 -4,-2 -7,1 -7,5 0,1 0,2 0,3 0,4 3,9 7,11 5,2 10,4 15,6l0 52c-5,-2 -10,-4 -15,-6 -4,-2 -7,1 -7,5 0,1 0,2 0,3 0,5 3,9 7,11 5,2 10,4 15,6l-1 51c-4,-2 -9,-3 -13,-5 -4,-2 -8,1 -8,5 0,1 0,2 0,3 0,5 4,9 8,11 4,1 9,3 13,5l0 51c-4,-1 -9,-3 -13,-4 -4,-1 -7,1 -7,6 0,1 0,2 0,2 0,5 3,9 7,11 5,1 9,3 13,4l0 49c-4,-1 -8,-2 -12,-4 -4,-1 -8,2 -8,6 0,1 0,2 0,3 0,5 4,9 8,11 4,1 8,2 12,3l-1 52c-3,-1 -7,-2 -11,-3 -4,-2 -7,1 -7,5 0,2 0,3 0,3 0,5 3,9 7,10 4,1 8,2 11,4l0 51c-4,-1 -7,-2 -11,-3 -4,-1 -7,2 -7,7 -1,1 0,2 0,3 0,4 3,9 7,9 4,1 7,2 11,3l0 52c-4,-1 -7,-2 -11,-3 -4,0 -7,3 -7,7 0,1 0,2 0,3 0,4 3,9 7,9 4,1 7,2 11,3l-1 50c-3,-1 -7,-1 -10,-2 -4,-1 -7,2 -7,7 0,1 0,2 0,3 0,4 3,8 7,9 3,1 7,1 10,2l0 52c-3,-1 -7,-1 -10,-2 -4,-1 -8,2 -8,7 0,1 0,2 0,3 0,4 4,8 8,9 3,1 7,1 10,2l0 51c-3,0 -7,-1 -10,-1 -4,-1 -8,3 -8,7 0,1 0,2 0,3 0,5 4,8 8,9 3,0 6,1 10,1l0 52c-4,0 -7,-1 -10,-1 -4,0 -8,3 -8,7 0,1 0,2 0,3 0,5 4,9 8,9 3,0 6,1 9,1l0 49c-3,0 -6,0 -9,0 -4,-1 -8,3 -8,7 0,1 0,2 0,3 0,5 4,8 8,9 3,0 6,0 9,0l0 52 -9 0c-4,0 -8,3 -8,7 0,1 0,2 0,3 0,5 4,8 8,9l9 0 0 52c-3,0 -6,0 -9,0 -4,-1 -8,3 -8,7 0,2 0,3 0,3 0,5 4,9 8,9 3,0 6,0 9,0l-1 52c-3,0 -5,0 -8,0 -4,0 -8,3 -8,8 0,1 0,2 0,3 0,4 4,8 8,7 3,0 5,0 8,0l0 8 9 0 4 -1094 -8 0 0 16zm-993 37c11,-9 22,-17 33,-25 4,-3 7,-1 7,3 0,1 0,2 0,3 0,5 -3,10 -7,13 -11,8 -23,16 -33,25 -5,3 -8,3 -8,-1 0,-1 1,-2 1,-3 0,-4 3,-11 7,-15zm68 -47c11,-6 22,-12 33,-17 4,-2 7,0 7,5 0,1 0,2 0,3 0,5 -3,10 -7,12 -11,5 -22,10 -33,16 -4,3 -7,1 -7,-4 0,-1 0,-2 0,-3 0,-4 3,-10 7,-12zm68 -32c11,-4 22,-8 33,-12 4,-1 7,2 7,7 0,1 0,2 0,3 0,5 -4,10 -8,11 -11,3 -21,7 -32,11 -4,1 -8,-1 -8,-6 0,-1 1,-2 1,-3 0,-5 3,-10 7,-11zm68 -22c10,-2 21,-5 32,-7 4,-1 7,3 7,8 0,1 0,2 0,3 0,5 -3,9 -7,10 -11,2 -22,5 -33,7 -4,1 -7,-2 -7,-7 0,-1 0,-2 0,-3 0,-5 4,-10 8,-11zm67 -13c11,-1 22,-2 33,-3 4,0 7,3 7,8 0,1 0,2 0,3 0,5 -4,10 -8,10 -10,1 -21,2 -32,3 -4,1 -8,-2 -7,-7 0,-1 0,-2 0,-4 0,-5 3,-9 7,-10zm67 -5c11,1 22,1 33,1 4,0 7,4 7,9 0,1 0,2 0,3 0,5 -3,9 -7,9 -11,0 -22,0 -33,0 -4,0 -7,-4 -7,-9 0,-1 0,-2 0,-3 0,-5 3,-10 7,-10zm68 1c10,1 21,2 32,2 4,0 8,5 8,9 0,2 0,3 0,4 0,5 -4,8 -8,8 -11,0 -22,-1 -32,-1 -4,-1 -8,-5 -8,-10 0,-1 0,-2 0,-3 0,-5 4,-9 8,-9zm67 4c11,1 22,2 32,3 5,0 8,4 8,9 0,1 0,3 0,4 0,4 -4,8 -8,8 -11,-1 -21,-2 -32,-3 -4,0 -8,-4 -7,-9 0,-1 0,-2 0,-4 0,-4 3,-8 7,-8zm67 6c11,1 22,3 33,4 4,0 7,5 7,10 0,1 0,2 0,3 0,5 -3,8 -7,8 -11,-1 -22,-3 -33,-4 -4,-1 -7,-5 -7,-10 0,-1 0,-2 0,-3 0,-5 3,-8 7,-8zm68 8c11,2 21,3 32,5 4,1 8,5 8,10 0,1 0,2 0,3 0,5 -4,8 -8,8 -11,-2 -22,-3 -32,-5 -4,0 -8,-5 -8,-10 0,-1 0,-2 0,-3 0,-5 4,-8 8,-8zm67 11c11,2 21,4 32,6 4,0 8,5 8,10 0,1 0,2 0,3 0,4 -4,8 -8,7 -11,-2 -21,-4 -32,-5 -4,-1 -7,-6 -7,-10 0,-1 0,-2 0,-4 0,-4 3,-8 7,-7zm67 13c11,2 22,4 33,6 4,1 7,6 7,11 0,1 0,2 0,3 0,5 -3,7 -7,7 -11,-3 -22,-5 -33,-7 -4,-1 -7,-5 -7,-10 0,-1 0,-2 0,-3 0,-5 3,-8 7,-7zm68 15c11,2 21,5 32,8 4,1 8,6 8,10 0,1 0,2 0,3 0,5 -4,8 -8,7 -11,-3 -21,-6 -32,-8 -4,-1 -8,-6 -8,-11 0,0 0,-2 0,-3 0,-4 4,-7 8,-6zm67 17c11,4 22,7 33,10 4,2 7,6 7,11 0,1 0,2 0,3 0,4 -3,7 -7,6 -11,-3 -22,-7 -33,-10 -4,-1 -7,-6 -7,-10 0,-1 0,-2 0,-3 0,-5 3,-8 7,-7zm68 22c10,4 21,9 32,13 4,2 8,7 8,11 0,1 0,2 0,3 0,5 -4,7 -8,5 -11,-4 -21,-9 -32,-12 -4,-2 -8,-7 -8,-11 0,-1 0,-2 0,-3 0,-4 4,-7 8,-6zm-912 32c11,-7 22,-14 33,-20 4,-2 7,0 7,5 0,1 0,2 0,3 0,4 -3,10 -7,12 -11,6 -22,13 -33,20 -4,2 -8,1 -8,-4 0,-1 0,-2 1,-3 0,-4 3,-10 7,-13zm68 -37c11,-5 22,-10 33,-14 4,-1 7,1 7,6 0,1 0,2 0,3 0,5 -4,10 -7,11 -12,5 -22,9 -33,14 -4,2 -7,-1 -7,-5 0,-1 0,-2 0,-3 0,-5 3,-10 7,-12zm68 -26c11,-3 22,-6 33,-9 4,-1 7,3 7,8 0,1 0,2 0,3 0,5 -4,9 -8,10 -11,3 -22,6 -32,9 -5,1 -8,-2 -8,-7 0,-1 0,-2 0,-3 1,-5 4,-10 8,-11zm68 -16c10,-2 21,-4 32,-5 4,-1 8,3 7,8 0,1 0,2 0,3 0,5 -3,9 -7,10 -11,1 -22,3 -33,5 -4,0 -7,-3 -7,-8 0,-1 0,-2 0,-3 0,-5 4,-9 8,-10zm67 -9c11,-1 22,-1 33,-1 4,0 7,4 7,9 0,1 0,2 0,3 0,5 -4,9 -8,9 -11,0 -22,0 -32,1 -4,0 -8,-3 -8,-8 0,-1 0,-2 1,-3 0,-5 3,-10 7,-10zm67 -1c11,0 22,0 33,1 4,0 7,4 7,9 0,1 0,2 0,3 0,5 -3,9 -7,9 -11,-1 -22,-1 -33,-1 -4,0 -7,-4 -7,-9 0,-1 0,-2 0,-3 0,-5 3,-9 7,-9zm68 2c11,1 21,1 32,2 4,0 8,5 8,10 0,1 0,2 0,3 0,5 -4,8 -8,8 -11,-1 -22,-1 -32,-2 -5,0 -8,-4 -8,-9 0,-1 0,-2 0,-3 0,-5 4,-9 8,-9zm67 5c11,1 22,2 33,3 4,0 7,5 7,10 0,1 0,2 0,3 0,5 -3,8 -8,8 -10,-1 -21,-2 -32,-3 -4,0 -7,-5 -7,-10 0,-1 0,-2 0,-3 0,-5 3,-8 7,-8zm68 7c10,1 21,2 32,4 4,0 7,5 7,10 0,1 0,2 0,3 0,5 -3,8 -7,7 -11,-1 -22,-2 -33,-3 -4,-1 -7,-5 -7,-10 0,-1 0,-2 0,-3 0,-5 3,-9 8,-8zm67 9c11,1 22,3 32,5 5,1 8,5 8,10 0,1 0,2 0,3 0,5 -4,8 -8,8 -11,-2 -21,-4 -32,-6 -4,0 -8,-5 -8,-9 0,-1 0,-2 0,-3 1,-5 4,-9 8,-8zm67 11c11,2 22,4 33,6 4,1 7,5 7,10 0,1 0,2 0,3 0,5 -3,8 -7,7 -11,-2 -22,-4 -33,-6 -4,-1 -7,-5 -7,-10 0,-1 0,-2 0,-3 0,-4 3,-8 7,-7zm68 13c11,3 21,5 32,8 4,1 8,5 8,10 0,1 0,2 0,3 0,5 -4,8 -8,7 -11,-3 -21,-5 -32,-8 -4,0 -8,-5 -8,-10 0,-1 0,-2 0,-3 0,-4 4,-8 8,-7zm67 16c11,3 22,6 33,9 4,1 7,6 7,10 0,1 0,2 0,3 0,5 -3,8 -7,6 -11,-2 -22,-5 -33,-8 -4,-1 -7,-6 -7,-10 0,-1 0,-2 0,-3 0,-5 3,-8 7,-7zm68 19c11,3 21,7 33,11 4,1 7,6 7,11 0,1 0,2 0,2 0,5 -3,7 -7,6 -11,-4 -22,-7 -33,-10 -4,-2 -8,-6 -8,-11 0,-1 0,-2 0,-3 0,-4 4,-7 8,-6zm-913 67c11,-8 22,-16 33,-23 4,-3 8,-1 7,3 0,1 0,3 0,3 0,5 -3,11 -7,13 -11,7 -23,15 -33,23 -5,3 -8,3 -8,-1 0,-1 0,-2 0,-3 1,-5 4,-11 8,-15zm68 -44c11,-5 22,-10 33,-15 4,-2 8,0 7,5 0,1 0,2 0,3 0,5 -3,10 -7,12 -11,4 -22,9 -33,15 -4,2 -7,0 -7,-4 0,-1 0,-2 0,-3 0,-5 3,-10 7,-13zm68 -29c11,-4 22,-8 33,-11 4,-1 7,2 7,6 0,2 0,3 0,4 0,4 -3,9 -7,10 -11,4 -22,7 -33,11 -4,1 -7,-1 -7,-6 0,-1 0,-2 0,-3 0,-5 3,-10 7,-11zm68 -20c11,-3 22,-5 33,-7 4,-1 7,3 7,7 0,1 0,3 0,4 0,4 -4,9 -8,10 -11,1 -21,4 -32,6 -4,1 -8,-2 -8,-7 0,-1 1,-2 1,-3 0,-5 3,-10 7,-10zm68 -12c11,-2 22,-3 32,-4 5,0 8,4 8,9 0,1 -1,2 -1,3 0,5 -3,9 -7,9 -11,1 -22,2 -33,3 -4,1 -7,-2 -7,-7 0,-1 0,-3 0,-4 0,-4 4,-9 8,-9zm67 -5c11,0 22,0 33,0 4,1 7,5 7,9 0,1 0,3 0,4 0,4 -3,8 -8,8 -11,0 -21,0 -32,0 -4,0 -7,-4 -7,-9 0,-1 0,-2 0,-3 0,-5 3,-9 7,-9zm68 1c11,0 21,1 32,1 4,1 8,5 8,10 -1,1 0,2 0,3 0,5 -4,9 -8,8 -11,0 -22,-1 -33,-1 -4,0 -7,-4 -7,-9 0,-1 0,-2 0,-3 0,-5 4,-9 8,-9zm67 3c11,1 22,2 33,3 4,0 7,4 7,9 0,1 0,2 0,3 0,5 -3,9 -8,9 -10,-1 -21,-2 -32,-3 -4,0 -7,-4 -7,-9 0,-1 0,-2 0,-3 0,-5 3,-9 7,-9zm68 6c11,1 21,2 32,3 4,1 8,5 8,10 0,1 0,2 0,3 0,5 -4,9 -8,8 -11,-1 -22,-2 -33,-3 -4,-1 -7,-5 -7,-10 0,-1 0,-2 0,-3 0,-5 4,-9 8,-8zm67 8c11,1 22,3 33,4 4,1 7,5 7,10 0,1 0,2 0,3 0,5 -3,8 -7,8 -11,-2 -22,-3 -33,-5 -4,0 -7,-5 -7,-10 0,-1 0,-2 0,-3 0,-5 3,-8 7,-7zm68 9c10,2 21,4 32,6 4,0 8,5 8,10 0,1 -1,2 -1,3 0,4 -3,8 -7,7 -11,-2 -22,-3 -33,-5 -4,-1 -7,-5 -7,-10 0,-1 0,-2 0,-3 0,-5 3,-8 8,-8zm67 12c11,2 22,4 33,7 4,1 7,5 7,10 0,1 0,2 0,3 0,5 -3,8 -7,7 -11,-2 -22,-4 -33,-7 -4,0 -7,-5 -7,-9 0,-1 0,-2 0,-3 0,-5 3,-9 7,-8zm68 14c10,3 21,5 32,8 4,1 8,5 8,10 0,1 0,2 0,3 0,5 -4,8 -8,7 -11,-3 -22,-5 -32,-8 -4,-1 -8,-5 -8,-10 0,-1 0,-2 0,-3 0,-5 4,-8 8,-7zm67 17c11,3 22,6 33,9 4,1 7,6 7,11 0,1 0,2 0,2 0,5 -3,8 -7,7 -11,-4 -22,-7 -33,-9 -4,-2 -7,-6 -7,-11 0,-1 0,-2 0,-3 0,-4 3,-7 7,-6zm68 20c11,4 22,8 33,12 4,2 7,6 7,11 0,1 0,2 0,3 0,4 -3,7 -7,5 -11,-4 -22,-8 -33,-12 -4,-1 -7,-6 -7,-10 0,-1 0,-2 0,-3 0,-5 3,-7 7,-6zm-914 33c11,-7 22,-13 33,-19 4,-2 7,0 7,4 0,1 0,2 0,3 -1,5 -4,10 -8,13 -11,5 -22,11 -33,18 -4,2 -8,0 -7,-4 0,-1 0,-2 0,-3 0,-4 4,-10 8,-12zm68 -35c11,-5 22,-9 33,-13 4,-1 7,1 7,6 0,1 0,2 0,3 -1,5 -4,10 -8,11 -11,4 -22,8 -33,13 -4,1 -7,-1 -7,-6 0,-1 0,-2 0,-3 0,-4 4,-10 8,-11zm68 -24c11,-3 22,-6 32,-8 5,-1 8,2 8,7 0,1 0,2 0,3 -1,5 -4,10 -8,10 -11,3 -22,6 -33,8 -4,2 -7,-1 -7,-6 0,-1 0,-2 0,-3 0,-5 4,-10 8,-11zm68 -15c10,-2 21,-4 32,-5 4,-1 7,3 7,8 0,1 0,2 0,3 0,5 -3,9 -8,10 -11,1 -21,3 -32,5 -4,0 -7,-3 -7,-8 0,-1 0,-2 0,-3 0,-5 4,-9 8,-10zm67 -8c11,-1 22,-2 33,-2 4,0 7,4 7,9 0,1 0,2 0,3 0,5 -4,9 -8,9 -11,0 -22,1 -32,2 -5,0 -8,-4 -7,-9 0,-1 0,-2 0,-3 0,-5 3,-9 7,-9zm68 -1c11,0 22,0 33,0 4,0 7,5 7,9 0,2 0,3 0,4 -1,5 -4,8 -8,8 -11,0 -22,0 -33,0 -4,0 -7,-4 -7,-9 0,-1 0,-2 0,-4 0,-4 4,-8 8,-8zm67 2c11,0 22,1 33,1 4,1 7,5 7,10 0,1 0,2 0,3 0,5 -3,8 -8,8 -11,0 -21,-1 -32,-1 -4,-1 -7,-5 -7,-10 0,-1 0,-2 0,-3 0,-5 3,-8 7,-8zm68 4c11,1 22,2 33,3 4,0 7,4 7,9 0,1 0,2 0,3 0,5 -4,9 -8,9 -11,-2 -22,-2 -32,-3 -5,0 -8,-5 -8,-10 0,0 0,-2 0,-3 1,-5 4,-8 8,-8zm68 6c10,1 21,3 32,4 4,1 7,5 7,10 0,1 0,2 0,3 0,5 -3,8 -7,8 -11,-2 -22,-3 -33,-4 -4,0 -7,-5 -7,-9 0,-1 0,-3 0,-4 0,-4 4,-8 8,-8zm67 9c11,1 22,3 33,5 4,0 7,5 7,9 0,1 0,2 0,3 0,5 -3,9 -7,8 -11,-2 -22,-3 -33,-5 -4,0 -7,-5 -7,-9 0,-1 0,-2 0,-3 0,-5 3,-9 7,-8zm68 10c11,2 22,4 32,6 5,1 8,5 8,10 0,1 0,2 0,3 0,5 -4,8 -8,7 -11,-2 -22,-4 -33,-6 -4,0 -7,-5 -7,-9 0,-1 0,-2 0,-4 0,-4 4,-8 8,-7zm68 12c10,3 21,5 32,7 4,1 7,6 7,10 0,1 0,2 0,3 0,5 -3,8 -7,7 -11,-2 -22,-4 -33,-6 -4,-1 -7,-6 -7,-10 0,-1 0,-3 0,-3 0,-5 3,-8 8,-8zm67 15c11,3 22,5 33,8 4,1 7,6 7,10 0,1 0,2 0,3 0,5 -3,8 -7,7 -11,-3 -22,-6 -33,-8 -4,-1 -7,-5 -7,-10 0,-1 0,-2 0,-3 0,-5 3,-8 7,-7zm68 18c11,3 22,6 33,10 4,1 7,6 7,10 0,1 0,2 0,3 0,5 -3,7 -7,6 -11,-3 -22,-7 -33,-10 -4,-1 -7,-5 -7,-10 0,-1 0,-2 0,-3 0,-5 3,-7 7,-6zm-916 65c11,-8 22,-15 33,-22 4,-2 7,-1 7,4 0,1 0,2 0,3 -1,4 -4,10 -8,12 -11,7 -23,14 -33,22 -5,2 -8,2 -7,-2 0,-1 0,-2 0,-3 0,-5 4,-11 8,-14zm68 -41c11,-5 22,-10 33,-15 4,-1 7,1 7,6 0,1 0,2 0,3 0,5 -4,10 -8,11 -11,5 -22,10 -33,15 -4,2 -7,0 -7,-5 0,-1 0,-2 0,-3 0,-5 4,-10 8,-12zm68 -28c11,-3 22,-6 33,-9 4,-2 8,2 7,6 0,1 0,3 0,4 0,4 -4,9 -8,10 -11,3 -22,6 -33,10 -4,1 -7,-2 -7,-6 0,-1 0,-3 1,-3 0,-5 3,-10 7,-12zm68 -18c11,-2 22,-4 33,-6 4,-1 7,2 7,7 0,2 0,3 0,4 0,4 -4,9 -8,9 -11,2 -22,5 -32,7 -5,0 -8,-3 -7,-7 0,-1 0,-3 0,-4 0,-5 3,-9 7,-10zm68 -11c11,-1 22,-2 33,-3 4,0 7,3 7,8 0,1 0,2 0,3 0,5 -4,10 -8,10 -11,1 -22,1 -33,3 -4,0 -7,-3 -7,-8 1,-1 0,-2 0,-3 1,-5 4,-10 8,-10zm68 -4c11,0 22,0 33,0 4,0 7,4 7,9 0,1 0,2 0,3 0,5 -4,9 -8,9 -11,0 -22,0 -33,-1 -4,0 -7,-3 -7,-8 0,-1 0,-2 0,-3 1,-5 4,-9 8,-9zm68 1c11,0 22,0 33,1 4,0 7,4 7,9 0,1 0,2 0,3 -1,5 -4,9 -8,9 -11,-1 -22,-1 -33,-2 -4,0 -7,-4 -7,-9 0,-1 0,-2 0,-3 0,-5 4,-9 8,-8zm68 3c10,0 21,1 32,2 4,0 7,4 7,9 0,1 0,3 0,4 0,4 -3,8 -7,8 -11,-1 -22,-2 -33,-3 -4,0 -7,-4 -7,-9 0,-1 0,-2 0,-3 0,-5 3,-9 8,-8zm67 5c11,1 22,2 33,3 4,1 7,5 7,9 0,2 0,3 0,4 0,5 -3,8 -7,8 -11,-1 -22,-2 -33,-4 -4,0 -7,-4 -7,-9 0,-1 0,-2 0,-3 0,-5 3,-9 7,-8zm68 7c11,1 22,3 33,4 4,1 7,5 7,10 0,1 0,2 0,3 0,5 -3,8 -7,8 -12,-2 -22,-3 -33,-4 -4,-1 -8,-5 -8,-10 0,-1 0,-2 0,-3 0,-5 4,-8 8,-8zm68 9c11,2 22,3 32,5 5,1 8,5 8,10 0,1 0,2 0,3 0,5 -4,8 -8,7 -11,-1 -22,-3 -33,-4 -4,-1 -7,-5 -7,-10 0,-1 0,-2 0,-3 0,-5 4,-8 8,-8zm67 11c11,2 22,4 33,6 4,1 8,5 8,10 0,1 0,2 0,3 0,5 -4,8 -8,7 -11,-2 -22,-4 -33,-6 -4,-1 -7,-5 -7,-10 0,0 0,-2 0,-3 0,-4 4,-8 7,-7zm68 13c11,2 22,5 33,7 4,1 8,6 7,10 0,1 0,2 0,3 0,5 -3,8 -7,7 -11,-3 -22,-5 -33,-7 -4,-1 -7,-5 -7,-10 0,-1 0,-2 0,-3 0,-5 3,-8 7,-7zm68 15c11,3 22,6 33,9 4,1 8,6 8,10 0,1 0,2 0,3 0,5 -4,7 -8,6 -11,-3 -22,-5 -33,-8 -4,-1 -7,-6 -7,-10 0,-1 0,-2 0,-3 0,-5 3,-8 7,-7zm68 19c11,3 22,7 33,11 4,2 8,6 8,11 0,1 0,2 0,3 0,4 -4,6 -8,5 -11,-4 -22,-7 -33,-11 -4,-1 -7,-6 -7,-10 0,-1 0,-2 0,-3 0,-4 3,-7 7,-6zm-918 33c11,-6 22,-12 33,-17 4,-2 7,0 7,4 0,1 0,2 0,3 -1,5 -4,10 -8,12 -11,5 -22,11 -33,17 -4,2 -8,0 -7,-4 0,-1 0,-2 0,-3 0,-5 4,-10 8,-12zm68 -32c11,-5 22,-9 33,-12 4,-2 8,1 7,6 0,1 0,2 0,3 0,5 -4,10 -8,11 -11,4 -22,8 -33,12 -4,1 -7,-1 -7,-6 0,-1 0,-2 0,-3 1,-5 4,-10 8,-11zm68 -22c11,-3 22,-6 33,-8 4,-1 8,2 8,7 0,1 -1,2 -1,3 0,5 -3,10 -7,11 -11,2 -22,4 -33,7 -4,1 -8,-2 -7,-7 0,-1 0,-2 0,-3 0,-5 3,-9 7,-10zm69 -14c11,-2 21,-3 32,-5 4,0 8,3 8,8 0,1 -1,2 -1,3 0,5 -3,10 -7,10 -11,1 -22,3 -33,4 -4,1 -7,-2 -7,-7 0,-1 0,-2 0,-3 0,-5 3,-10 8,-10zm68 -8c11,-1 21,-1 32,-1 4,0 8,4 8,9 -1,1 -1,2 -1,3 0,5 -3,9 -7,9 -11,0 -22,0 -33,1 -4,0 -8,-3 -7,-8 0,-1 0,-2 0,-4 0,-4 3,-9 8,-9zm67 -1c11,0 22,0 33,1 4,0 8,4 7,9 0,1 0,2 0,3 0,5 -3,9 -7,9 -11,-1 -22,-1 -33,-1 -4,0 -7,-4 -7,-9 0,-1 0,-2 0,-3 0,-5 3,-9 7,-9zm68 2c11,1 22,1 33,2 4,0 8,4 7,9 0,1 0,2 0,3 0,5 -3,9 -7,8 -11,0 -22,-1 -33,-1 -4,0 -8,-4 -7,-9 0,-1 0,-2 0,-3 0,-5 3,-9 7,-9zm68 4c11,1 22,2 33,3 4,0 7,4 7,9 0,1 0,2 0,3 0,5 -3,9 -7,8 -11,-1 -22,-1 -33,-2 -4,0 -8,-5 -7,-10 0,-1 0,-2 0,-3 0,-5 3,-8 7,-8zm68 6c11,1 22,2 33,3 4,1 7,5 7,10 0,1 0,2 0,3 0,5 -3,9 -7,8 -11,-1 -22,-2 -33,-3 -4,-1 -8,-5 -8,-10 0,-1 1,-2 1,-3 0,-5 3,-8 7,-8zm68 8c11,1 22,3 33,4 4,1 7,5 7,10 0,1 0,2 0,3 0,5 -3,8 -7,8 -11,-2 -22,-3 -33,-5 -4,0 -8,-5 -7,-9 0,-1 0,-2 0,-3 0,-5 3,-9 7,-8zm68 9c11,2 22,4 33,6 4,0 7,5 7,10 0,1 0,2 0,3 0,4 -3,8 -7,7 -11,-2 -22,-4 -33,-6 -4,0 -8,-4 -8,-9 1,-1 0,-2 0,-3 0,-5 4,-8 8,-8zm68 12c11,2 22,4 33,6 4,1 7,5 7,10 0,1 0,2 0,3 0,5 -3,8 -7,7 -11,-2 -22,-4 -33,-6 -4,-1 -8,-5 -7,-10 0,-1 0,-2 0,-3 0,-5 3,-8 7,-7zm68 13c11,3 22,5 33,8 4,1 7,5 7,10 0,1 0,2 0,3 0,4 -3,7 -7,6 -11,-2 -22,-5 -33,-7 -4,-1 -8,-5 -8,-10 0,-1 1,-2 1,-3 0,-5 3,-8 7,-7zm68 17c11,2 22,6 33,9 4,1 7,5 7,10 0,1 0,2 0,3 0,4 -3,7 -7,6 -11,-3 -22,-6 -33,-9 -4,-1 -7,-6 -7,-10 0,-1 0,-2 0,-3 0,-5 3,-7 7,-6zm-920 60c11,-7 22,-14 33,-20 4,-2 8,-1 7,4 0,1 0,2 0,3 0,5 -3,10 -7,12 -12,6 -23,13 -34,20 -4,2 -7,2 -7,-3 0,-1 0,-2 0,-3 0,-4 4,-10 8,-13zm69 -38c11,-5 22,-9 33,-13 4,-2 7,1 7,5 0,1 0,3 0,4 0,4 -4,9 -8,11 -11,4 -22,8 -33,13 -4,2 -7,0 -7,-5 0,-1 0,-2 0,-3 0,-5 4,-10 8,-12zm68 -25c11,-3 22,-6 33,-9 4,-1 7,2 7,7 0,1 0,2 0,3 0,5 -3,9 -7,10 -12,3 -23,6 -33,9 -5,1 -8,-2 -8,-6 0,-1 1,-2 1,-3 0,-5 3,-10 7,-11zm68 -17c12,-2 22,-4 33,-6 5,-1 8,3 8,8 0,1 0,2 0,3 -1,5 -4,9 -8,10 -11,1 -22,3 -33,6 -4,0 -7,-3 -7,-8 0,-1 0,-2 0,-3 0,-5 3,-9 7,-10zm69 -11c11,-1 22,-2 33,-2 4,-1 7,3 7,8 0,1 0,2 0,3 0,5 -4,9 -8,10 -11,0 -22,1 -33,2 -4,1 -7,-3 -7,-8 0,-1 0,-2 0,-3 0,-5 4,-9 8,-10zm68 -4c11,1 21,1 33,1 4,0 7,4 7,9 0,1 0,2 0,3 0,5 -4,9 -8,9 -11,0 -22,0 -33,-1 -4,0 -7,-3 -7,-8 0,-1 0,-2 0,-4 0,-5 4,-9 8,-9zm68 1c11,1 22,1 33,2 4,0 7,4 7,9 0,1 0,2 0,3 0,5 -4,9 -8,9 -11,-1 -22,-1 -33,-2 -4,0 -7,-4 -7,-9 0,-1 0,-2 0,-3 0,-5 4,-9 8,-9zm68 3c11,1 22,2 33,2 4,1 7,5 7,10 0,1 0,2 0,3 0,5 -4,9 -8,8 -11,0 -22,-1 -33,-2 -4,0 -7,-4 -7,-9 0,-1 0,-2 0,-3 0,-5 4,-9 8,-9zm68 5c11,1 22,2 33,3 4,0 7,4 7,9 0,1 0,3 0,3 0,5 -4,9 -7,9 -12,-1 -23,-2 -33,-3 -5,-1 -8,-5 -8,-10 0,-1 0,-2 0,-3 0,-5 4,-8 8,-8zm68 7c11,1 22,2 33,3 4,1 7,5 7,10 0,1 0,2 0,3 0,5 -3,9 -7,8 -11,-1 -22,-2 -33,-4 -4,0 -8,-5 -8,-9 0,-1 0,-3 0,-4 0,-4 4,-8 8,-7zm68 8c11,2 22,3 33,5 4,0 7,4 7,9 0,1 0,2 0,3 0,5 -3,9 -7,8 -11,-1 -22,-3 -33,-4 -4,-1 -8,-5 -8,-10 0,-1 0,-2 0,-3 0,-5 4,-9 8,-8zm68 10c11,2 22,4 33,6 4,0 7,5 7,10 0,1 0,2 0,3 0,4 -3,8 -7,7 -11,-2 -22,-4 -33,-5 -4,-1 -7,-6 -7,-10 0,-1 0,-2 0,-3 0,-5 3,-8 7,-8zm68 12c11,2 22,4 33,7 4,1 7,5 7,10 0,1 0,2 0,3 0,4 -3,7 -7,6 -11,-2 -22,-4 -33,-6 -4,-1 -7,-5 -7,-10 0,-1 0,-2 0,-3 0,-5 3,-8 7,-7zm68 14c11,3 22,5 33,8 4,1 8,6 8,10 0,1 0,2 0,3 0,5 -4,8 -8,7 -11,-3 -22,-5 -33,-8 -4,-1 -7,-6 -7,-10 0,-1 0,-2 0,-3 0,-5 3,-8 7,-7zm69 18c11,3 21,6 32,10 5,1 8,6 8,10 0,1 0,2 0,3 0,5 -3,7 -7,6 -12,-4 -22,-7 -33,-10 -5,-1 -8,-6 -8,-10 0,-1 0,-2 0,-3 0,-5 3,-8 8,-6zm-922 32c11,-5 22,-10 33,-15 4,-2 8,0 7,5 0,1 0,2 0,3 0,4 -3,10 -7,11 -11,5 -22,10 -33,16 -5,2 -8,0 -8,-5 0,-1 0,-2 0,-3 0,-4 4,-9 8,-12zm69 -29c11,-4 22,-8 33,-11 4,-1 7,2 7,7 0,1 0,2 0,3 0,4 -4,9 -8,10 -11,4 -22,7 -33,11 -4,1 -7,-1 -7,-6 0,-1 0,-2 0,-3 0,-5 4,-10 8,-11zm68 -20c11,-3 22,-5 33,-7 4,-1 7,2 7,7 0,1 0,2 0,3 0,5 -3,10 -7,10 -11,3 -22,5 -33,7 -4,1 -8,-2 -8,-7 0,-1 1,-2 1,-3 0,-5 3,-9 7,-10zm68 -13c11,-2 22,-3 33,-4 4,-1 8,3 8,8 0,1 -1,2 -1,3 0,5 -3,9 -7,9 -11,2 -22,3 -33,5 -4,0 -7,-3 -7,-8 0,-1 0,-2 0,-3 0,-5 3,-10 7,-10zm69 -7c11,-1 22,-1 33,-1 4,0 7,4 7,9 0,1 0,2 0,3 0,5 -4,9 -8,9 -11,0 -22,0 -33,1 -4,0 -7,-4 -7,-9 0,-1 0,-2 0,-3 0,-5 4,-9 8,-9zm68 -1c11,0 22,0 33,0 4,0 7,5 7,10 0,1 0,2 0,3 0,5 -3,8 -7,8 -12,0 -22,0 -33,0 -5,0 -8,-4 -8,-9 0,-1 0,-2 0,-3 0,-5 4,-9 8,-9zm68 2c11,0 22,1 33,1 4,0 7,5 7,9 0,2 0,3 0,4 0,5 -3,8 -7,8 -11,0 -22,-1 -33,-1 -4,0 -8,-5 -8,-9 0,-1 0,-3 0,-4 0,-5 4,-8 8,-8zm68 3c11,1 22,2 33,3 4,0 7,4 7,9 0,1 0,2 0,3 0,5 -3,9 -7,9 -11,-1 -22,-2 -33,-3 -4,0 -8,-4 -8,-9 0,-1 1,-2 1,-3 0,-5 3,-9 7,-9zm68 6c11,1 22,2 33,3 4,0 7,5 7,10 0,1 0,2 0,3 0,5 -3,8 -7,8 -11,-2 -22,-2 -33,-3 -4,-1 -7,-5 -7,-10 0,-1 0,-2 0,-3 0,-5 3,-9 7,-8zm69 7c10,1 21,3 32,4 4,1 8,5 8,10 0,1 0,2 0,3 0,5 -4,8 -8,8 -11,-2 -22,-3 -33,-4 -4,-1 -7,-5 -7,-10 0,-1 0,-2 0,-3 0,-5 3,-8 8,-8zm68 9c11,1 21,3 32,5 5,1 8,5 8,9 0,2 0,3 0,4 0,4 -3,8 -8,7 -11,-1 -22,-3 -32,-5 -5,0 -8,-5 -8,-9 0,-1 0,-3 0,-4 0,-4 3,-8 8,-7zm68 11c11,2 22,3 33,5 4,1 7,5 7,10 0,1 0,2 0,3 0,5 -3,8 -7,7 -11,-2 -22,-3 -33,-5 -4,-1 -8,-6 -8,-10 0,-1 0,-2 0,-3 0,-5 4,-8 8,-7zm68 12c11,2 22,4 33,7 4,1 7,5 7,10 0,1 0,2 0,3 0,4 -3,7 -7,6 -11,-2 -22,-4 -33,-6 -4,-1 -8,-5 -8,-10 0,-1 0,-2 0,-3 0,-5 4,-8 8,-7zm68 15c11,2 22,5 33,8 4,1 8,6 8,10 0,1 0,2 0,3 0,5 -3,8 -8,7 -11,-3 -22,-6 -33,-9 -4,-1 -7,-5 -7,-10 0,-1 0,-2 0,-3 0,-4 3,-7 7,-6zm-922 60c11,-6 22,-12 33,-18 4,-2 8,0 8,4 0,1 0,2 0,3 0,5 -4,10 -8,12 -11,6 -22,12 -33,18 -4,3 -8,1 -8,-3 0,-1 0,-2 0,-3 0,-4 4,-10 8,-13zm69 -34c11,-5 22,-8 33,-12 4,-2 7,1 7,5 0,2 0,3 0,4 0,4 -3,9 -7,11 -11,3 -22,7 -33,12 -5,1 -8,-1 -8,-6 0,-1 0,-2 0,-3 0,-4 4,-9 8,-11zm69 -23c10,-3 21,-6 33,-9 4,-1 7,3 7,7 0,1 0,3 0,4 0,4 -4,9 -8,10 -11,2 -22,5 -33,8 -4,1 -7,-2 -7,-7 0,-1 0,-2 0,-3 0,-4 3,-9 8,-10zm68 -16c11,-2 22,-4 33,-5 4,-1 7,3 7,8 0,1 0,2 0,3 0,5 -3,9 -7,10 -11,1 -22,3 -33,5 -4,0 -8,-3 -8,-8 0,-1 0,-2 0,-3 0,-5 4,-9 8,-10zm68 -10c11,-1 22,-1 33,-2 4,0 8,3 8,8 0,1 0,3 0,4 0,5 -4,9 -8,9 -11,1 -22,1 -33,2 -4,1 -7,-3 -7,-8 0,-1 0,-2 0,-3 0,-5 3,-9 7,-10zm68 -3c11,0 22,0 33,0 4,0 8,4 8,9 0,1 0,2 0,3 0,5 -4,9 -8,9 -11,0 -22,0 -33,0 -4,0 -7,-4 -7,-9 0,-1 0,-2 0,-3 0,-5 3,-9 7,-9zm69 1c11,0 22,1 33,1 4,0 7,4 7,9 0,1 0,2 0,3 0,5 -3,9 -7,9 -11,-1 -23,-1 -33,-1 -4,0 -8,-4 -8,-9 0,-1 0,-3 0,-4 0,-5 4,-9 8,-8zm68 2c11,1 22,2 33,2 4,1 7,5 7,10 0,1 0,2 0,3 0,5 -3,9 -7,8 -11,0 -22,-1 -33,-2 -4,0 -7,-4 -7,-9 0,-1 0,-2 0,-3 0,-5 3,-9 7,-9zm68 5c11,1 22,2 33,2 4,1 8,5 8,10 0,1 0,2 0,3 0,5 -4,9 -8,8 -11,-1 -22,-2 -33,-3 -4,0 -7,-4 -7,-9 0,-1 0,-2 0,-3 0,-5 3,-9 7,-8zm68 6c11,1 22,2 33,3 4,1 8,5 8,10 0,1 0,2 0,3 0,5 -4,8 -8,8 -11,-1 -22,-2 -33,-3 -4,-1 -7,-5 -7,-10 0,-1 0,-2 0,-3 0,-5 3,-9 7,-8zm69 8c10,1 21,2 33,4 4,0 7,5 7,9 0,1 0,2 0,3 0,5 -3,9 -7,8 -12,-1 -23,-2 -33,-4 -5,0 -8,-5 -8,-10 0,-1 0,-2 0,-3 0,-4 4,-8 8,-7zm68 9c11,2 22,3 33,5 4,1 7,5 7,10 0,1 0,2 0,3 0,4 -3,8 -7,7 -11,-1 -22,-3 -33,-5 -4,0 -8,-5 -7,-9 0,-1 0,-3 0,-4 -1,-4 3,-8 7,-7zm68 11c11,2 22,4 33,6 4,1 8,5 8,10 0,1 0,2 0,3 0,4 -4,7 -8,7 -11,-2 -22,-4 -33,-6 -4,-1 -7,-5 -7,-10 0,-1 0,-2 0,-3 0,-5 3,-8 7,-7zm69 13c11,2 21,5 33,7 4,1 7,5 7,10 0,1 0,2 0,3 0,4 -3,7 -7,6 -11,-2 -22,-4 -33,-7 -5,0 -8,-5 -8,-10 0,0 0,-2 0,-3 0,-4 3,-7 8,-6zm68 16c11,2 22,5 33,9 4,1 7,6 8,10 0,1 0,2 0,3 0,4 -4,7 -8,6 -11,-3 -22,-6 -33,-9 -4,-1 -7,-6 -7,-10 0,-1 0,-2 0,-3 -1,-5 3,-7 7,-6zm-923 33c11,-6 22,-10 33,-15 4,-1 7,1 7,6 0,1 0,2 0,3 0,4 -3,9 -7,11 -11,4 -22,9 -33,14 -4,2 -8,0 -8,-5 0,-1 0,-2 0,-3 0,-4 4,-9 8,-11zm68 -27c11,-4 22,-7 34,-10 4,-1 7,2 7,7 0,1 0,2 0,3 0,4 -3,9 -8,10 -11,3 -22,6 -33,10 -4,1 -7,-2 -7,-6 0,-1 0,-2 0,-3 0,-5 3,-10 7,-11zm69 -19c11,-2 22,-4 33,-6 4,-1 8,3 7,7 0,2 0,3 0,4 0,4 -3,9 -7,10 -11,1 -22,4 -33,6 -4,0 -7,-3 -7,-7 0,-1 -1,-2 0,-3 0,-5 3,-10 7,-11zm69 -11c10,-2 21,-3 32,-4 5,-1 8,3 8,8 0,1 0,2 0,3 0,5 -4,9 -8,10 -11,1 -22,2 -33,3 -4,1 -7,-3 -7,-8 0,-1 0,-2 0,-3 0,-5 3,-9 8,-9zm68 -7c11,0 22,-1 33,-1 4,0 7,4 7,9 0,1 0,2 0,3 0,5 -3,9 -7,9 -11,0 -22,1 -33,1 -4,0 -8,-3 -8,-8 0,-1 0,-2 0,-3 0,-5 4,-10 8,-10zm68 0c11,0 22,0 33,0 4,0 8,4 7,9 0,1 0,2 0,3 0,5 -3,9 -7,9 -11,0 -22,-1 -33,-1 -4,0 -7,-4 -7,-8 0,-1 0,-3 0,-4 0,-5 3,-8 7,-8zm68 1c11,1 22,1 33,1 4,0 8,5 8,10 0,1 0,2 0,3 0,5 -4,8 -8,8 -11,0 -22,-1 -33,-1 -4,0 -7,-4 -7,-9 0,-1 0,-2 0,-3 0,-5 3,-9 7,-9zm69 3c10,1 22,2 33,2 4,1 7,5 7,10 0,1 0,2 0,3 0,5 -3,9 -7,8 -11,-1 -23,-1 -33,-2 -5,0 -8,-4 -8,-9 0,-1 0,-2 0,-3 0,-5 4,-9 8,-9zm68 5c11,1 22,2 33,3 4,1 7,5 7,10 0,1 0,2 0,3 0,5 -3,8 -7,8 -11,-1 -22,-2 -33,-3 -4,0 -8,-5 -8,-9 0,-1 0,-2 0,-4 0,-4 4,-8 8,-8zm68 7c11,1 22,2 33,4 4,0 8,4 8,9 0,1 0,2 0,3 0,5 -4,9 -8,8 -11,-1 -22,-3 -33,-4 -4,0 -7,-4 -7,-9 0,-1 0,-2 0,-3 0,-5 3,-8 7,-8zm68 8c11,1 22,3 33,5 4,0 8,4 8,9 0,1 0,2 0,3 0,5 -3,8 -8,8 -11,-2 -22,-3 -33,-5 -4,0 -7,-4 -7,-9 0,-1 0,-2 0,-3 0,-5 3,-9 7,-8zm69 10c11,1 22,3 33,5 4,1 7,5 7,10 0,1 0,2 0,3 0,4 -3,7 -7,7 -11,-2 -22,-4 -33,-5 -4,-1 -8,-5 -8,-10 0,-1 0,-2 0,-3 0,-5 4,-8 8,-7zm68 11c11,2 22,4 33,6 4,1 8,5 8,10 0,1 0,2 0,3 0,5 -4,8 -8,7 -11,-2 -22,-4 -33,-6 -4,-1 -7,-5 -7,-10 0,-1 0,-2 0,-3 0,-5 3,-8 7,-7zm69 13c11,3 22,6 33,8 4,1 7,6 7,10 0,1 0,2 0,3 0,5 -3,7 -7,6 -11,-2 -22,-5 -33,-7 -4,-1 -8,-5 -8,-10 0,-1 0,-2 0,-3 0,-4 3,-7 8,-7zm-923 58c10,-5 22,-11 33,-16 4,-2 7,0 7,5 0,1 0,2 0,3 0,4 -3,9 -7,11 -12,5 -23,11 -34,16 -4,3 -7,1 -7,-3 0,-1 0,-2 0,-3 0,-4 3,-10 8,-13zm68 -31c11,-4 22,-7 33,-11 5,-1 8,2 8,6 0,1 0,2 0,3 0,5 -4,10 -8,11 -11,4 -22,7 -33,11 -4,2 -8,-1 -7,-6 0,-1 0,-2 0,-2 0,-5 3,-10 7,-12zm69 -21c11,-2 22,-5 33,-7 4,-1 7,2 7,7 0,1 0,2 0,3 0,5 -3,9 -7,10 -11,3 -22,5 -33,8 -4,1 -8,-3 -8,-7 0,-1 0,-2 0,-3 0,-5 4,-10 8,-11zm68 -14c11,-2 22,-3 33,-5 5,0 8,3 8,8 0,2 0,3 0,4 0,4 -4,9 -8,9 -11,2 -22,3 -33,5 -4,0 -7,-3 -7,-8 0,-1 0,-2 0,-3 0,-5 3,-9 7,-10zm69 -8c11,-1 22,-2 33,-3 4,0 7,4 7,9 0,1 0,2 0,3 0,5 -3,9 -7,9 -11,1 -22,2 -33,3 -4,0 -8,-4 -8,-8 0,-1 0,-3 0,-4 0,-5 4,-9 8,-9zm68 -4c11,0 22,1 33,1 4,0 7,4 7,9 0,1 0,2 0,3 0,5 -3,9 -7,9 -11,0 -22,-1 -33,-1 -4,0 -8,-4 -7,-8 0,-1 0,-2 0,-4 0,-4 3,-9 7,-9zm68 1c11,0 22,1 33,1 4,0 8,4 8,9 0,1 0,2 0,3 0,5 -4,9 -8,9 -11,0 -22,-1 -33,-1 -4,0 -7,-4 -7,-9 0,-1 0,-2 0,-3 0,-5 3,-9 7,-9zm69 2c11,1 21,2 33,2 4,0 7,5 7,10 0,1 0,2 0,3 0,4 -3,8 -7,8 -12,-1 -22,-1 -33,-2 -5,0 -8,-4 -8,-9 0,-1 0,-2 0,-3 0,-5 4,-9 8,-9zm68 4c11,1 22,2 33,3 4,0 7,4 7,9 0,1 0,3 0,3 0,5 -3,9 -7,9 -11,-1 -22,-2 -33,-3 -4,0 -8,-4 -8,-9 0,-1 0,-2 0,-3 1,-5 4,-9 8,-9zm68 6c11,1 22,2 33,3 4,1 8,5 8,10 0,1 0,2 0,3 0,5 -4,8 -8,8 -11,-1 -22,-2 -33,-3 -4,-1 -7,-5 -7,-10 0,-1 0,-2 0,-3 0,-5 3,-8 7,-8zm68 7c11,1 22,3 33,4 4,0 8,5 8,9 0,1 0,3 0,3 0,5 -3,9 -8,8 -10,-1 -22,-2 -32,-3 -5,-1 -8,-5 -8,-10 0,-1 0,-2 0,-3 0,-5 3,-8 7,-8zm69 8c11,2 22,3 33,5 4,1 7,5 7,10 0,1 0,2 0,3 0,4 -3,8 -7,7 -11,-1 -22,-3 -33,-4 -4,-1 -7,-5 -7,-10 0,-1 0,-2 0,-3 0,-4 3,-8 7,-8zm68 10c11,2 22,4 33,6 4,1 8,5 8,10 0,1 0,2 0,3 0,4 -4,7 -8,7 -11,-2 -22,-4 -33,-6 -4,0 -7,-5 -7,-9 0,-1 0,-2 0,-3 0,-5 3,-8 7,-8zm69 12c11,2 22,4 33,7 4,0 7,5 7,9 0,2 0,2 0,3 0,5 -3,8 -7,7 -11,-2 -22,-4 -33,-6 -4,-1 -8,-5 -8,-10 0,-1 0,-2 0,-3 0,-5 3,-8 8,-7zm68 14c11,3 22,6 33,9 4,1 8,5 8,10 0,1 0,2 0,3 0,4 -4,7 -8,6 -11,-3 -22,-6 -33,-8 -4,-1 -7,-6 -7,-10 0,-1 0,-2 0,-3 0,-5 3,-8 7,-7zm-924 33c11,-4 23,-9 34,-12 4,-2 7,1 7,5 0,1 0,2 0,3 0,5 -3,10 -7,11 -12,4 -23,8 -34,13 -4,1 -7,-1 -7,-5 0,-1 0,-2 0,-3 0,-5 3,-10 7,-12zm69 -24c11,-3 22,-6 33,-9 4,-1 8,3 8,7 0,1 0,3 0,4 0,4 -4,9 -8,10 -11,2 -22,5 -33,8 -4,1 -7,-1 -7,-6 0,-1 0,-2 0,-3 0,-5 3,-10 7,-11zm69 -16c11,-2 22,-4 33,-6 4,-1 7,3 7,8 0,1 0,2 0,3 0,5 -3,9 -7,10 -12,2 -23,3 -33,5 -5,1 -8,-2 -8,-7 0,-1 0,-2 0,-3 0,-5 4,-9 8,-10zm68 -11c11,-1 22,-2 33,-3 4,-1 8,3 8,8 0,1 0,2 0,3 0,5 -4,9 -8,10 -11,1 -22,2 -33,3 -4,1 -7,-3 -7,-8 0,-1 0,-2 0,-3 0,-5 3,-9 7,-10zm69 -5c11,-1 21,-1 33,-1 4,-1 7,4 7,8 0,2 0,3 0,4 0,5 -3,9 -8,9 -11,0 -22,0 -33,0 -4,1 -7,-3 -7,-8 0,-1 0,-2 0,-3 0,-5 4,-9 8,-9zm68 -1c11,0 22,0 33,0 4,0 7,4 7,9 0,1 0,2 0,4 0,4 -3,8 -7,8 -11,0 -22,0 -33,0 -4,0 -8,-4 -8,-9 0,-1 0,-2 0,-3 0,-5 4,-9 8,-9zm68 1c11,1 22,1 33,1 4,1 8,5 8,10 0,1 0,2 0,3 0,5 -4,8 -8,8 -11,0 -22,0 -33,-1 -4,0 -7,-4 -7,-9 0,-1 0,-2 0,-3 0,-5 3,-9 7,-9zm69 3c10,1 21,1 32,2 5,0 8,5 8,10 0,1 0,2 0,3 0,5 -4,8 -8,8 -11,-1 -22,-1 -33,-2 -4,0 -7,-4 -7,-9 0,-1 0,-2 0,-3 0,-5 3,-9 8,-9zm68 5c11,1 22,1 33,2 4,1 7,5 7,10 0,1 0,2 0,3 0,5 -3,9 -7,8 -12,-1 -22,-2 -33,-2 -4,-1 -8,-5 -8,-10 0,-1 0,-2 0,-3 0,-5 4,-9 8,-8zm68 6c11,1 22,2 33,3 4,1 8,5 8,10 0,1 0,2 0,3 -1,5 -4,8 -8,8 -11,-2 -22,-3 -33,-4 -4,0 -7,-4 -7,-9 0,-1 0,-2 0,-3 0,-5 3,-9 7,-8zm68 7c11,1 22,3 33,4 5,0 8,5 8,10 0,1 0,2 0,3 0,5 -4,8 -8,7 -11,-1 -22,-2 -33,-4 -4,0 -7,-4 -7,-9 0,-1 0,-2 0,-3 0,-5 3,-9 7,-8zm69 9c11,1 22,3 33,5 4,0 7,4 7,9 0,1 0,2 0,3 0,5 -3,8 -7,8 -11,-2 -22,-4 -33,-5 -4,-1 -8,-5 -8,-10 0,-1 0,-2 0,-3 0,-4 4,-8 8,-7zm68 10c11,2 22,4 33,6 4,0 8,5 8,9 0,1 0,2 0,3 0,5 -4,8 -8,7 -11,-1 -22,-3 -33,-5 -4,-1 -7,-5 -7,-10 0,-1 0,-2 0,-3 0,-4 3,-8 7,-7zm69 12c11,2 22,5 33,7 4,1 7,5 7,10 0,1 0,2 0,3 0,4 -3,7 -7,6 -11,-2 -22,-4 -33,-6 -5,-1 -8,-5 -8,-10 0,-1 0,-2 0,-3 0,-4 4,-8 8,-7zm-924 56c11,-6 22,-11 33,-15 4,-2 8,1 8,5 0,1 0,2 0,3 0,5 -4,9 -8,11 -11,5 -22,10 -33,15 -4,1 -8,0 -8,-4 0,-1 0,-2 0,-3 0,-5 4,-10 8,-12zm69 -28c11,-4 22,-7 33,-10 4,-1 8,2 8,6 0,1 0,2 0,3 0,5 -4,10 -8,11 -11,3 -22,6 -33,10 -4,1 -8,-2 -8,-6 0,-1 0,-2 0,-3 0,-5 4,-10 8,-11zm68 -19c12,-2 22,-5 34,-7 4,0 7,3 7,8 0,1 0,2 0,3 0,5 -3,9 -7,10 -12,2 -22,4 -34,6 -4,1 -7,-2 -7,-6 0,-2 0,-3 0,-4 0,-4 3,-9 7,-10zm69 -13c11,-1 22,-2 33,-4 4,0 7,3 7,8 0,1 0,2 0,3 0,5 -3,10 -7,10 -11,1 -22,3 -33,4 -4,1 -7,-3 -7,-8 0,-1 0,-2 0,-3 0,-5 3,-9 7,-10zm68 -7c11,-1 22,-2 33,-2 5,0 8,3 8,8 0,1 0,2 0,4 0,4 -4,9 -8,9 -11,0 -22,1 -33,2 -4,0 -7,-4 -7,-8 0,-2 0,-3 0,-4 0,-5 3,-9 7,-9zm69 -3c11,0 22,0 33,0 4,0 7,4 7,9 0,1 0,2 0,3 0,5 -3,9 -7,9 -11,0 -22,0 -33,0 -4,0 -8,-4 -8,-9 0,-1 0,-2 0,-3 0,-5 4,-9 8,-9zm68 0c11,1 22,1 33,1 4,1 8,5 8,9 0,2 0,3 0,4 0,5 -4,8 -8,8 -11,0 -22,0 -33,0 -4,-1 -7,-5 -7,-9 0,-2 0,-3 0,-4 0,-5 3,-9 7,-9zm68 3c11,0 22,1 33,1 5,0 8,5 8,9 0,1 0,3 0,4 0,4 -3,8 -8,8 -11,0 -22,-1 -33,-2 -4,0 -7,-4 -7,-9 0,-1 0,-2 0,-3 0,-5 3,-9 7,-8zm69 3c11,1 22,2 33,2 4,1 7,5 7,10 0,1 0,2 0,3 0,5 -3,9 -7,8 -11,0 -22,-1 -33,-2 -4,0 -8,-5 -8,-9 0,-1 0,-2 0,-4 0,-4 4,-8 8,-8zm68 5c11,1 22,2 33,3 4,0 8,5 8,9 0,2 0,3 0,4 0,4 -4,8 -8,8 -11,-1 -22,-2 -33,-3 -4,0 -7,-5 -7,-10 0,-1 0,-2 0,-3 0,-5 3,-8 7,-8zm68 7c11,1 22,2 33,3 4,0 8,5 8,9 0,1 0,2 0,4 0,4 -4,8 -8,7 -11,-1 -22,-2 -33,-3 -4,0 -7,-5 -7,-9 0,-1 0,-2 0,-4 0,-4 3,-8 7,-7zm69 7c11,2 22,3 33,4 4,1 7,5 7,10 0,1 0,2 0,3 0,5 -3,8 -7,7 -11,-1 -22,-2 -33,-4 -4,0 -8,-4 -8,-9 0,-1 0,-2 0,-3 0,-5 4,-8 8,-8zm68 9c11,2 22,3 33,5 4,1 8,5 8,9 0,1 0,3 0,4 0,4 -4,7 -8,7 -11,-2 -22,-3 -33,-5 -4,0 -7,-5 -7,-9 0,-1 0,-3 0,-4 0,-4 3,-7 7,-7zm69 11c11,2 22,3 33,5 4,1 7,6 7,10 0,1 0,2 0,3 0,4 -3,8 -7,7 -11,-2 -22,-4 -33,-6 -5,0 -8,-5 -8,-9 0,-1 0,-2 0,-3 0,-5 3,-8 8,-7zm68 12c11,3 22,5 33,8 4,1 8,5 8,9 0,2 0,3 0,4 0,4 -4,7 -8,6 -11,-3 -22,-5 -33,-7 -4,-1 -7,-6 -7,-10 0,-1 0,-2 0,-3 0,-4 3,-7 7,-7zm-924 34c11,-5 22,-8 33,-12 4,-1 8,2 8,6 0,1 0,2 0,3 0,5 -4,10 -8,11 -11,3 -22,7 -33,11 -4,1 -8,-1 -8,-5 0,-2 0,-3 0,-4 0,-4 4,-9 8,-10zm69 -22c11,-3 22,-5 33,-8 4,-1 7,3 7,7 0,1 0,2 0,4 0,4 -3,9 -7,10 -11,2 -22,4 -33,7 -5,1 -8,-2 -8,-6 0,-1 0,-2 0,-3 0,-5 4,-10 8,-11zm68 -15c11,-1 22,-3 33,-5 4,0 8,3 8,8 0,1 0,2 0,3 0,5 -4,10 -8,10 -11,1 -22,3 -33,5 -4,1 -7,-3 -7,-7 0,-2 0,-3 0,-4 0,-4 3,-9 7,-10zm69 -9c11,-1 22,-2 33,-3 4,0 7,3 7,8 0,1 0,2 0,4 0,4 -3,9 -7,9 -11,1 -22,2 -33,3 -4,0 -8,-3 -8,-8 0,-1 0,-2 0,-3 0,-5 4,-9 8,-10zm68 -5c11,-1 22,-1 33,-1 4,0 8,4 8,9 0,1 0,2 0,3 0,5 -4,9 -8,9 -11,0 -22,0 -33,1 -4,0 -7,-4 -7,-9 0,-1 0,-2 0,-3 0,-5 3,-9 7,-9zm69 -1c11,0 22,0 33,1 4,0 7,4 7,9 0,1 0,2 0,3 0,5 -3,9 -8,9 -11,0 -22,0 -33,-1 -4,0 -7,-4 -7,-9 0,-1 0,-2 0,-3 0,-5 4,-9 8,-9zm68 2c11,0 22,0 33,1 4,0 7,4 7,9 0,1 0,2 0,3 0,5 -3,9 -7,9 -11,-1 -22,-1 -33,-1 -4,0 -8,-5 -8,-9 0,-2 0,-3 0,-4 0,-5 4,-8 8,-8zm68 2c11,1 22,1 33,2 4,0 8,4 8,9 0,1 0,2 0,3 0,5 -4,9 -8,9 -11,-1 -22,-1 -33,-2 -4,0 -7,-4 -7,-9 0,-1 0,-2 0,-3 0,-5 3,-9 7,-9zm69 4c11,1 21,2 33,3 4,0 7,4 7,9 0,1 0,2 0,3 0,5 -3,9 -7,8 -12,0 -23,-1 -33,-2 -5,0 -8,-4 -8,-9 0,-1 0,-2 0,-3 0,-5 4,-9 8,-9zm68 6c11,1 22,2 33,3 4,0 7,4 7,9 0,1 0,2 0,3 0,5 -3,9 -7,8 -11,-1 -22,-2 -33,-3 -4,0 -8,-4 -8,-9 0,-1 0,-2 0,-3 0,-5 4,-9 8,-8zm68 6c11,1 22,3 33,4 4,0 8,5 8,9 0,1 0,2 0,3 0,5 -4,9 -8,8 -11,-1 -22,-2 -33,-3 -4,-1 -7,-5 -7,-10 0,-1 0,-2 0,-3 0,-5 3,-8 7,-8zm69 8c11,1 22,3 33,4 4,1 7,5 7,10 0,1 0,2 0,3 0,4 -3,8 -7,7 -11,-1 -22,-2 -33,-4 -5,0 -8,-5 -8,-9 0,-1 0,-2 0,-4 0,-4 4,-8 8,-7zm68 9c11,2 22,3 33,5 4,1 7,5 7,10 0,1 0,2 0,3 0,4 -3,7 -7,7 -11,-2 -22,-3 -33,-5 -4,-1 -8,-5 -8,-9 0,-1 0,-3 0,-4 1,-4 4,-7 8,-7zm69 11c11,2 22,4 33,6 4,1 7,5 7,10 0,1 0,2 0,3 0,4 -3,7 -7,6 -11,-2 -22,-4 -33,-6 -5,0 -8,-5 -8,-9 0,-1 0,-2 0,-3 0,-4 3,-8 8,-7zm-924 52c11,-5 22,-10 33,-14 4,-1 7,2 7,6 0,1 0,2 0,3 0,5 -3,9 -7,11 -12,4 -23,8 -34,12 -4,2 -7,0 -7,-4 0,-1 0,-2 0,-3 0,-4 3,-10 8,-11zm68 -25c11,-3 22,-6 33,-9 5,-1 8,2 8,7 0,1 0,2 0,3 0,5 -3,9 -8,10 -11,3 -22,6 -33,9 -4,1 -7,-2 -7,-6 0,-1 0,-2 0,-4 0,-4 3,-9 7,-10zm69 -17c11,-2 22,-4 33,-6 4,0 8,3 8,8 0,1 0,2 0,3 0,5 -4,9 -8,10 -11,2 -22,4 -33,6 -4,0 -8,-3 -7,-7 0,-1 0,-3 0,-4 0,-4 3,-9 7,-10zm68 -11c11,-1 22,-2 34,-4 4,0 7,4 7,8 0,2 0,3 0,4 0,5 -3,9 -8,9 -11,1 -22,3 -33,4 -4,0 -7,-3 -7,-8 0,-1 0,-2 0,-3 0,-5 3,-9 7,-10zm69 -7c11,0 22,-1 33,-1 4,-1 7,3 7,8 0,1 0,2 0,3 0,5 -3,9 -7,10 -11,0 -22,1 -33,1 -4,1 -8,-3 -7,-8 0,-1 0,-2 0,-3 0,-5 3,-9 7,-10zm68 -2c11,0 22,0 33,0 4,0 8,4 8,9 0,1 0,2 0,3 0,5 -4,9 -8,9 -11,0 -22,0 -33,0 -4,0 -7,-4 -7,-9 0,-1 0,-2 0,-3 0,-5 3,-9 7,-9zm69 0c11,1 22,1 33,1 4,0 7,4 7,9 0,1 0,2 0,3 0,5 -3,9 -7,9 -11,0 -22,0 -33,-1 -5,0 -8,-4 -8,-9 0,-1 0,-2 0,-3 0,-5 4,-9 8,-9zm68 2c11,1 22,1 33,2 4,0 7,4 7,9 0,1 0,2 0,3 0,5 -3,9 -7,9 -11,-1 -22,-1 -33,-2 -4,0 -7,-4 -7,-9 0,-1 0,-2 0,-3 0,-5 3,-9 7,-9zm68 3c12,1 22,2 33,2 5,1 8,5 8,10 0,1 0,2 0,3 0,5 -3,8 -8,8 -11,0 -22,-1 -33,-2 -4,0 -7,-4 -7,-9 0,-1 0,-2 0,-3 0,-5 3,-9 7,-9zm69 5c11,1 22,2 33,3 4,0 7,4 7,9 0,1 0,2 0,3 0,5 -3,8 -7,8 -11,-1 -22,-2 -33,-2 -4,-1 -8,-5 -8,-10 0,-1 0,-2 0,-3 0,-5 4,-8 8,-8zm68 6c11,1 22,2 33,3 4,0 8,4 8,9 0,1 0,2 0,3 0,5 -4,8 -8,8 -11,-1 -22,-2 -33,-3 -4,0 -7,-5 -7,-9 0,-1 0,-2 0,-3 0,-5 3,-9 7,-8zm69 6c11,1 22,3 33,4 4,0 7,5 7,9 0,1 0,3 0,4 0,4 -3,8 -7,7 -11,-1 -22,-2 -33,-3 -5,-1 -8,-5 -8,-10 0,-1 0,-2 0,-3 0,-5 3,-8 8,-8zm68 8c11,2 22,3 33,5 4,0 7,4 7,9 0,1 0,2 0,3 0,5 -3,8 -7,7 -11,-1 -22,-2 -33,-4 -4,0 -8,-4 -8,-9 1,-1 0,-2 0,-3 0,-5 4,-8 8,-8zm69 10c11,1 21,3 33,5 4,0 7,5 7,9 0,1 0,2 0,3 0,5 -3,8 -7,7 -11,-2 -22,-3 -33,-5 -5,0 -8,-5 -8,-9 0,-1 0,-2 0,-3 0,-5 3,-8 8,-7zm68 11c11,2 22,4 33,6 4,1 8,6 8,10 0,1 0,2 0,3 0,4 -4,7 -8,6 -11,-2 -22,-4 -33,-6 -4,-1 -8,-5 -7,-9 0,-1 0,-2 0,-3 0,-5 3,-8 7,-7zm-924 33c10,-3 21,-7 33,-10 4,-1 7,2 7,6 0,1 0,2 0,4 0,4 -3,9 -8,10 -11,3 -22,6 -33,10 -4,1 -7,-2 -7,-6 0,-1 0,-2 0,-3 0,-5 3,-9 8,-11zm68 -19c11,-2 22,-4 33,-7 4,0 8,3 8,8 0,1 0,2 0,3 0,5 -4,9 -8,10 -11,2 -22,4 -33,6 -4,1 -8,-2 -8,-6 0,-1 0,-2 0,-3 1,-5 4,-10 8,-11zm69 -12c11,-2 22,-4 33,-5 4,-1 7,3 7,8 0,1 0,2 0,3 0,5 -3,9 -7,10 -12,1 -23,3 -34,4 -4,1 -7,-3 -7,-8 0,-1 0,-2 0,-3 0,-4 4,-9 8,-9zm68 -9c11,-1 22,-2 33,-2 4,-1 8,3 8,8 0,1 0,2 0,3 0,5 -4,9 -8,10 -11,0 -22,1 -33,2 -4,0 -7,-3 -7,-8 0,-1 0,-2 0,-3 0,-5 3,-9 7,-10zm69 -4c11,-1 22,-1 33,-1 4,0 7,4 7,9 0,1 0,2 0,3 0,5 -3,9 -7,9 -12,0 -22,0 -34,1 -4,0 -7,-4 -7,-9 0,-1 0,-2 0,-3 0,-5 4,-9 8,-9zm68 -1c11,0 22,0 33,0 4,1 8,5 7,9 0,2 0,3 0,4 0,5 -3,8 -7,8 -11,0 -22,0 -33,0 -4,0 -8,-4 -7,-9 0,-1 0,-2 0,-3 0,-5 3,-9 7,-9zm68 1c11,1 22,1 33,1 5,0 8,5 8,9 0,1 0,3 0,4 0,4 -4,8 -8,8 -11,0 -22,0 -33,-1 -4,0 -7,-4 -7,-9 0,-1 0,-2 0,-3 0,-5 3,-9 7,-9zm69 3c11,0 22,1 33,1 4,0 7,5 7,9 0,2 0,3 0,4 0,4 -3,8 -7,8 -11,-1 -22,-1 -33,-1 -4,-1 -8,-5 -8,-9 0,-2 0,-3 0,-4 0,-5 4,-8 8,-8zm68 3c11,1 22,1 33,2 4,1 8,5 8,10 0,1 0,2 0,3 0,5 -4,8 -8,8 -11,-1 -22,-2 -33,-2 -4,0 -7,-4 -7,-9 0,-1 0,-2 0,-3 0,-5 3,-9 7,-9zm69 5c11,1 22,2 33,3 4,0 7,4 7,9 0,1 0,2 0,3 0,5 -3,9 -7,8 -12,-1 -22,-2 -33,-2 -5,-1 -8,-5 -8,-10 0,-1 0,-2 0,-3 0,-5 4,-8 8,-8zm68 6c11,1 22,2 33,3 4,0 8,5 8,9 0,1 0,2 0,3 0,5 -4,9 -8,8 -11,-1 -22,-2 -33,-3 -4,0 -7,-5 -7,-9 0,-1 0,-2 0,-3 0,-5 3,-9 7,-8zm68 7c12,1 22,2 33,3 5,1 8,5 8,10 0,1 0,2 0,3 0,4 -3,8 -8,7 -11,-1 -22,-2 -33,-3 -4,-1 -7,-5 -7,-10 0,-1 0,-2 0,-3 0,-4 3,-8 7,-7zm69 8c11,1 22,3 33,4 4,1 7,5 7,9 0,1 0,3 0,4 0,4 -3,7 -7,7 -11,-2 -22,-3 -33,-4 -4,-1 -8,-5 -8,-10 0,-1 0,-2 0,-3 0,-4 4,-8 8,-7zm69 9c11,2 22,4 33,6 4,0 7,4 7,9 0,1 0,2 0,3 0,4 -3,8 -7,7 -12,-2 -23,-4 -34,-5 -4,-1 -7,-5 -7,-10 0,-1 0,-2 0,-3 0,-4 3,-7 8,-7zm-925 51c11,-4 22,-8 33,-11 4,-2 8,1 8,5 0,1 0,3 0,4 -1,4 -4,9 -8,10 -11,3 -22,7 -33,11 -4,1 -8,-1 -8,-5 0,-1 0,-2 0,-3 0,-4 4,-10 8,-11zm69 -21c11,-3 22,-5 33,-8 4,-1 7,2 7,7 0,1 0,2 0,3 0,5 -3,9 -7,10 -12,2 -23,5 -34,7 -4,1 -7,-2 -7,-6 0,-1 0,-2 0,-3 0,-5 4,-9 8,-10zm68 -15c11,-2 22,-3 33,-5 5,-1 8,3 8,8 0,1 0,2 0,3 0,5 -4,9 -8,10 -11,1 -22,3 -33,4 -4,1 -7,-2 -7,-7 0,-1 0,-2 0,-3 0,-5 3,-9 7,-10zm69 -10c11,-1 22,-2 33,-3 4,0 7,4 7,8 0,1 0,3 0,4 0,4 -3,9 -7,9 -11,1 -22,2 -33,3 -4,1 -8,-3 -8,-8 0,-1 0,-2 0,-3 0,-5 4,-9 8,-10zm69 -5c10,-1 21,-2 32,-2 5,0 8,4 8,9 0,1 0,2 0,3 0,5 -4,9 -8,9 -11,1 -22,1 -33,2 -4,0 -7,-4 -7,-9 0,-1 0,-2 0,-3 0,-5 3,-9 8,-9zm68 -3c11,0 22,0 33,1 4,0 7,4 7,8 0,2 0,3 0,4 0,5 -3,9 -7,8 -11,0 -22,0 -33,0 -5,0 -8,-4 -8,-8 0,-2 0,-3 0,-4 0,-5 4,-9 8,-9zm68 1c11,0 22,0 33,1 4,0 8,4 8,9 0,1 0,2 0,3 0,5 -4,9 -8,8 -11,0 -22,0 -33,0 -4,0 -7,-4 -7,-9 0,-1 0,-2 0,-3 0,-5 3,-9 7,-9zm69 1c11,1 22,1 33,2 4,0 7,4 7,9 0,1 0,2 0,3 0,5 -3,9 -7,9 -11,-1 -22,-1 -33,-2 -5,0 -8,-4 -8,-9 0,-1 0,-2 0,-3 0,-5 4,-9 8,-9zm68 3c11,1 22,1 33,2 4,0 8,4 8,9 0,1 0,2 0,3 0,5 -4,9 -8,9 -11,-1 -22,-1 -33,-2 -4,0 -8,-4 -7,-9 0,-1 0,-2 0,-3 0,-5 3,-9 7,-9zm69 4c11,1 22,2 33,2 4,1 7,5 7,10 0,1 0,2 0,3 0,4 -3,8 -8,8 -10,-1 -22,-2 -33,-2 -4,0 -7,-5 -7,-10 0,0 0,-2 0,-3 0,-4 3,-8 8,-8zm68 5c11,1 22,2 33,3 4,0 7,4 7,9 0,1 1,2 0,3 0,5 -3,8 -7,8 -11,-1 -22,-1 -33,-2 -4,-1 -8,-5 -7,-10 0,-1 0,-2 0,-3 0,-4 3,-8 7,-8zm68 6c11,1 22,2 34,3 4,1 7,5 7,9 0,2 0,3 0,4 0,4 -3,8 -8,7 -11,-1 -22,-2 -33,-3 -4,0 -7,-4 -7,-9 0,-1 0,-2 0,-3 0,-5 3,-8 7,-8zm69 7c11,1 22,2 33,4 4,0 7,4 7,9 0,1 0,2 0,3 0,5 -3,8 -7,8 -11,-2 -22,-3 -33,-4 -4,0 -8,-5 -8,-9 0,-1 0,-2 0,-3 0,-5 4,-9 8,-8zm68 8c11,2 22,3 34,4 4,1 7,5 7,10 0,1 0,2 0,3 0,4 -3,7 -7,7 -12,-2 -23,-3 -34,-4 -4,-1 -7,-5 -7,-10 0,0 0,-2 0,-3 0,-4 3,-7 7,-7zm69 10c11,1 22,4 33,5 4,1 8,5 8,10 0,1 0,2 0,3 0,4 -4,7 -8,6 -11,-1 -22,-3 -33,-5 -4,-1 -8,-5 -8,-9 0,-1 0,-2 0,-3 0,-5 4,-8 8,-7zm-925 33c11,-3 22,-6 33,-8 4,-1 7,2 7,6 0,1 0,2 0,3 0,5 -3,10 -7,10 -12,3 -23,6 -34,9 -4,1 -7,-2 -7,-7 0,0 0,-1 0,-3 0,-4 3,-8 8,-10zm68 -16c11,-2 22,-4 33,-6 5,0 8,3 8,8 0,1 0,2 0,3 0,5 -4,9 -8,10 -11,1 -22,3 -33,5 -4,1 -7,-2 -7,-7 0,-1 0,-2 0,-3 0,-4 3,-9 7,-10zm69 -11c11,-1 22,-2 33,-4 4,0 7,4 7,8 0,1 0,3 0,3 0,5 -3,10 -7,10 -11,1 -22,3 -33,4 -4,0 -8,-3 -8,-8 0,-1 0,-2 0,-3 0,-5 4,-9 8,-10zm68 -7c11,-1 22,-2 34,-2 4,0 7,3 7,8 0,1 0,2 0,3 0,5 -4,10 -8,10 -11,0 -22,1 -33,2 -4,0 -7,-4 -7,-8 0,-1 0,-3 0,-4 0,-4 3,-9 7,-9zm69 -4c11,0 22,0 33,-1 4,0 7,5 7,9 0,1 1,3 0,4 0,4 -3,8 -7,9 -11,0 -22,0 -33,0 -4,0 -8,-4 -8,-8 0,-1 0,-3 0,-4 0,-4 4,-9 8,-9zm68 0c11,0 22,0 34,0 4,0 7,4 7,9 0,1 0,2 0,3 0,5 -3,9 -8,9 -11,0 -22,0 -33,0 -4,0 -7,-4 -7,-9 0,-1 0,-2 0,-3 0,-5 3,-9 7,-9zm69 1c11,0 22,0 33,0 4,1 7,5 7,10 0,1 0,2 0,3 0,5 -3,8 -7,8 -11,0 -22,0 -33,0 -4,0 -8,-5 -8,-9 0,-1 0,-3 0,-4 0,-4 4,-8 8,-8zm68 2c11,0 22,1 33,1 5,0 8,4 8,9 0,1 0,2 0,3 0,5 -4,9 -8,9 -11,-1 -22,-1 -33,-1 -4,-1 -7,-5 -7,-10 0,-1 0,-2 0,-3 0,-5 3,-8 7,-8zm69 3c11,0 22,1 33,2 4,0 7,4 7,9 0,1 0,2 0,3 0,5 -3,9 -7,8 -11,0 -22,-1 -33,-1 -4,-1 -8,-5 -8,-10 0,-1 0,-2 0,-3 0,-5 4,-8 8,-8zm68 4c11,1 22,1 33,2 5,1 8,5 8,10 0,1 0,2 0,3 0,4 -4,8 -8,8 -11,-1 -22,-2 -33,-2 -4,-1 -7,-5 -7,-10 0,-1 0,-2 0,-3 0,-4 3,-8 7,-8zm69 5c11,1 22,2 33,3 4,0 7,4 7,9 0,1 0,2 0,3 0,5 -3,8 -7,8 -11,-1 -22,-2 -33,-3 -4,0 -8,-4 -8,-9 0,-1 0,-2 0,-3 0,-5 4,-8 8,-8zm68 6c11,1 22,2 33,3 4,1 8,5 8,9 0,1 0,2 0,3 0,5 -4,9 -8,8 -11,-1 -22,-2 -33,-3 -4,0 -7,-4 -7,-9 0,-1 0,-2 0,-3 0,-5 3,-9 7,-8zm69 7c11,1 22,2 33,4 4,0 7,4 7,9 0,1 0,2 0,3 0,4 -3,8 -7,7 -11,-1 -22,-2 -33,-3 -4,-1 -8,-5 -8,-9 0,-1 0,-3 0,-4 0,-4 4,-8 8,-7zm68 8c11,1 22,3 33,5 5,0 8,4 8,9 0,1 0,2 0,3 0,4 -3,7 -8,7 -11,-2 -22,-3 -33,-5 -4,0 -7,-4 -7,-9 0,-1 0,-2 0,-3 0,-4 3,-8 7,-7zm-925 48c11,-3 22,-7 33,-9 4,-1 8,1 8,6 0,1 0,2 0,3 0,4 -4,9 -8,10 -11,3 -22,6 -33,9 -5,1 -8,-1 -8,-5 0,-1 0,-2 0,-3 0,-5 4,-10 8,-11zm69 -18c11,-2 22,-4 33,-6 4,-1 7,2 7,7 0,1 0,2 0,3 0,5 -3,9 -7,10 -12,2 -23,4 -34,6 -4,1 -7,-2 -7,-7 0,-1 0,-2 0,-3 0,-4 4,-9 8,-10zm68 -12c11,-2 22,-3 34,-4 4,-1 7,3 7,7 0,1 0,3 0,4 0,4 -4,9 -8,9 -11,1 -22,3 -33,4 -4,1 -7,-2 -7,-7 0,-1 0,-2 0,-3 0,-5 3,-9 7,-10zm69 -8c11,-1 22,-2 33,-3 4,0 8,3 7,8 0,1 0,2 0,3 0,5 -3,9 -7,10 -11,0 -22,1 -33,2 -4,1 -8,-3 -8,-8 0,-1 0,-2 0,-3 1,-5 4,-9 8,-9zm69 -5c11,-1 22,-1 33,-2 4,0 7,4 7,9 0,1 0,2 0,3 0,5 -3,9 -7,9 -12,1 -23,1 -33,2 -5,0 -8,-4 -8,-9 0,-1 0,-2 0,-3 0,-5 3,-9 8,-9zm68 -2c11,0 22,0 33,0 4,0 8,4 8,9 0,1 0,2 0,3 0,5 -4,9 -8,9 -11,0 -22,0 -33,0 -4,0 -7,-4 -7,-9 0,-1 0,-2 0,-3 0,-5 3,-9 7,-9zm69 0c11,0 22,1 33,1 4,0 7,4 7,9 0,1 0,2 0,3 0,5 -3,9 -7,9 -12,-1 -23,-1 -34,-1 -4,0 -7,-4 -7,-9 0,-1 0,-2 0,-3 0,-5 3,-9 8,-9zm68 2c11,0 22,0 33,1 4,0 8,4 8,9 0,1 0,2 0,3 0,5 -4,9 -8,8 -11,0 -22,0 -33,-1 -4,0 -7,-4 -7,-9 0,-1 0,-2 0,-3 0,-5 3,-9 7,-8zm69 2c11,0 22,1 33,1 4,1 7,5 7,10 0,1 0,2 0,3 0,5 -3,8 -7,8 -11,0 -23,-1 -34,-1 -4,-1 -7,-5 -7,-9 0,-1 0,-3 0,-4 0,-4 4,-8 8,-8zm68 3c11,1 22,2 33,2 4,1 8,5 8,9 0,2 0,3 0,4 0,4 -4,8 -8,8 -11,-1 -22,-1 -33,-2 -4,0 -7,-4 -7,-9 0,-1 0,-2 0,-3 0,-5 3,-9 7,-9zm69 5c11,1 22,1 33,2 4,0 7,4 7,9 0,1 0,2 0,3 0,5 -3,9 -7,8 -11,0 -23,-1 -34,-2 -4,0 -7,-4 -7,-9 0,-1 0,-2 0,-3 0,-5 4,-9 8,-8zm68 5c11,1 22,1 33,2 4,1 8,5 8,10 0,1 0,2 0,3 0,4 -4,8 -8,8 -11,-1 -22,-2 -33,-3 -4,0 -7,-4 -7,-9 0,-1 0,-2 0,-3 0,-5 3,-9 7,-8zm69 6c11,1 22,2 33,3 4,0 7,4 7,9 0,1 0,2 0,3 0,5 -3,8 -7,8 -11,-2 -22,-3 -33,-4 -5,0 -8,-4 -8,-9 0,0 0,-2 0,-3 0,-4 4,-8 8,-7zm68 7c11,1 22,2 33,3 5,1 8,5 8,9 0,1 0,2 0,3 0,5 -3,8 -8,8 -11,-2 -22,-3 -33,-4 -4,0 -7,-4 -7,-9 0,-1 0,-2 0,-3 0,-5 3,-8 7,-7zm69 8c11,1 22,3 33,4 4,1 8,5 8,10 0,1 0,2 0,2 0,5 -4,8 -8,7 -11,-1 -22,-3 -33,-4 -4,-1 -8,-5 -8,-9 0,-1 0,-2 0,-3 0,-5 4,-8 8,-7zm-926 33c11,-2 22,-5 33,-7 4,-1 7,3 7,7 0,1 0,2 0,3 0,5 -3,9 -7,10 -12,2 -23,4 -34,7 -4,1 -7,-2 -7,-7 0,-1 0,-2 0,-3 0,-4 3,-9 8,-10zm68 -13c11,-2 22,-4 33,-5 5,-1 8,3 8,8 0,1 0,2 0,3 0,5 -4,9 -8,9 -11,2 -22,3 -33,5 -4,1 -7,-2 -7,-7 0,-1 0,-2 0,-3 0,-5 3,-9 7,-10zm69 -9c11,-1 22,-3 33,-4 4,0 8,4 8,9 0,1 0,2 0,3 0,5 -4,9 -8,9 -11,1 -22,2 -33,3 -4,1 -8,-3 -7,-8 0,-1 0,-2 0,-3 0,-5 3,-9 7,-9zm69 -6c11,-1 22,-2 33,-2 4,0 7,3 7,8 0,2 0,3 0,4 0,5 -3,9 -7,9 -12,0 -23,1 -34,2 -4,0 -7,-4 -7,-9 0,-1 0,-2 0,-3 0,-5 4,-9 8,-9zm68 -3c11,-1 22,-1 33,-1 4,0 8,4 8,9 0,1 0,2 0,3 0,5 -4,9 -8,9 -11,0 -22,0 -33,0 -4,1 -7,-3 -7,-8 0,-1 0,-2 0,-3 0,-5 3,-9 7,-9zm69 -1c11,0 22,0 33,0 4,0 7,4 7,9 0,2 0,3 0,4 0,5 -3,8 -7,8 -11,0 -22,0 -33,0 -5,0 -8,-4 -8,-9 0,-1 0,-2 0,-3 0,-5 4,-9 8,-9zm68 1c11,0 22,0 33,1 4,0 8,4 8,9 0,1 0,2 0,3 0,5 -4,9 -8,8 -11,0 -22,0 -33,0 -4,0 -7,-4 -7,-9 0,-1 0,-2 0,-3 0,-5 3,-9 7,-9zm69 2c11,0 22,0 33,1 4,0 7,4 7,9 0,1 0,2 0,3 0,5 -3,9 -7,8 -11,0 -22,0 -33,-1 -4,0 -8,-4 -8,-9 0,-1 0,-2 0,-3 0,-5 4,-8 8,-8zm68 2c11,1 22,1 34,2 4,0 7,4 7,9 0,1 0,2 0,3 0,5 -3,9 -8,9 -11,-1 -22,-2 -33,-2 -4,0 -7,-4 -7,-9 0,-1 0,-2 0,-3 0,-5 3,-9 7,-9zm69 4c11,0 22,1 33,2 4,0 7,4 7,9 0,1 0,2 0,3 0,5 -3,9 -7,8 -11,0 -22,-1 -33,-2 -4,0 -8,-4 -8,-9 0,-1 0,-2 0,-3 0,-5 4,-9 8,-8zm68 4c11,1 22,2 34,2 4,1 7,5 7,10 0,1 0,2 0,3 0,4 -3,8 -8,8 -11,-1 -22,-2 -33,-3 -4,0 -7,-4 -7,-9 0,-1 0,-2 0,-3 0,-4 3,-8 7,-8zm69 5c11,1 22,2 33,3 4,0 7,4 7,9 0,1 0,2 0,3 0,5 -3,8 -7,8 -11,-1 -22,-2 -33,-3 -4,0 -8,-4 -7,-9 0,-1 0,-2 0,-3 0,-5 3,-8 7,-8zm69 6c11,1 22,2 33,3 4,0 7,5 7,9 0,1 0,2 0,3 0,5 -3,8 -7,8 -11,-1 -22,-2 -33,-3 -5,-1 -8,-5 -8,-9 0,-1 0,-2 0,-3 0,-5 4,-9 8,-8zm68 7c11,1 22,2 33,3 5,1 8,5 8,9 0,1 0,3 0,3 0,5 -4,8 -8,8 -11,-2 -22,-3 -33,-4 -4,0 -7,-4 -7,-9 0,-1 0,-2 0,-3 0,-4 3,-8 7,-7zm-926 45c11,-2 22,-5 33,-7 4,-1 8,2 8,6 0,1 0,2 0,3 -1,5 -4,9 -8,10 -11,2 -22,5 -33,7 -4,1 -8,-1 -8,-6 0,-1 0,-1 0,-2 0,-5 4,-10 8,-11zm69 -14c11,-2 22,-4 33,-6 4,0 8,3 7,8 0,1 0,2 0,3 0,5 -3,9 -7,10 -11,1 -22,3 -34,4 -4,1 -7,-2 -7,-7 0,0 0,-2 0,-3 0,-4 4,-8 8,-9zm68 -10c12,-2 23,-3 34,-4 4,0 7,3 7,8 0,1 0,2 0,3 0,5 -3,9 -7,10 -12,1 -23,2 -34,3 -4,0 -7,-3 -7,-8 0,-1 0,-2 0,-3 0,-4 3,-9 7,-9zm69 -7c11,-1 22,-2 33,-2 4,-1 8,3 8,8 0,1 0,2 0,3 0,5 -4,9 -8,9 -11,1 -22,2 -33,3 -4,0 -7,-4 -7,-9 0,-1 0,-2 0,-3 0,-4 3,-9 7,-9zm69 -4c11,-1 22,-1 33,-1 4,0 7,4 7,8 0,2 0,3 0,4 0,5 -3,9 -7,9 -11,0 -22,0 -33,1 -5,0 -8,-4 -8,-9 0,-1 0,-2 0,-3 0,-5 4,-9 8,-9zm68 -2c11,0 22,0 33,0 5,0 8,4 8,9 0,1 0,3 0,4 0,4 -4,8 -8,8 -11,0 -22,0 -33,0 -4,0 -7,-4 -7,-9 0,-1 0,-2 0,-3 0,-5 3,-9 7,-9zm69 0c11,1 22,1 33,1 4,0 8,4 8,9 0,1 0,2 0,3 0,5 -4,9 -8,9 -11,0 -22,0 -33,0 -4,-1 -8,-5 -8,-9 0,-1 0,-3 0,-4 0,-4 4,-9 8,-9zm69 2c10,0 22,0 33,1 4,0 7,4 7,9 0,1 0,2 0,3 0,5 -3,9 -7,9 -12,-1 -23,-1 -34,-1 -4,0 -7,-5 -7,-9 0,-1 0,-2 0,-4 0,-4 4,-8 8,-8zm68 2c11,0 22,1 33,1 4,0 8,4 8,9 0,1 0,2 0,3 0,5 -4,9 -8,9 -11,-1 -22,-1 -33,-2 -4,0 -7,-4 -7,-9 0,-1 -1,-2 0,-3 0,-5 3,-9 7,-8zm69 3c11,0 22,1 33,1 4,0 7,4 7,9 0,1 0,2 0,3 0,5 -3,9 -7,9 -11,-1 -22,-1 -33,-2 -4,0 -8,-4 -8,-9 0,-1 0,-2 0,-3 0,-5 4,-9 8,-8zm68 3c11,1 22,1 33,2 4,0 8,4 8,9 0,1 0,2 0,3 0,5 -4,9 -8,8 -11,0 -22,-1 -33,-1 -4,-1 -7,-5 -7,-9 0,-1 0,-2 0,-4 0,-4 3,-8 7,-8zm69 4c11,1 22,2 33,3 4,0 7,4 7,9 0,1 0,2 0,3 0,4 -3,8 -7,8 -11,-1 -22,-2 -33,-2 -4,-1 -8,-5 -8,-9 0,-1 0,-2 0,-3 0,-5 4,-9 8,-9zm69 5c10,1 21,2 33,3 4,0 7,4 7,9 0,1 0,2 0,3 0,5 -3,8 -7,8 -12,-1 -23,-2 -34,-3 -4,0 -7,-4 -7,-9 0,-1 0,-2 0,-3 0,-4 3,-8 8,-8zm68 6c11,1 22,2 33,3 4,0 8,4 8,9 0,1 0,2 0,3 0,4 -4,8 -8,7 -11,-1 -22,-1 -33,-2 -4,-1 -7,-5 -7,-9 0,-1 0,-2 0,-3 0,-5 3,-8 7,-8zm69 7c11,1 22,2 33,3 4,1 7,5 7,9 0,1 0,2 0,3 0,5 -3,8 -7,7 -11,-1 -22,-2 -33,-3 -4,-1 -8,-5 -8,-9 0,-1 0,-2 0,-3 0,-5 4,-8 8,-7zm-927 34c11,-3 22,-5 33,-6 4,-1 7,2 7,7 0,1 0,2 0,3 0,5 -3,9 -7,9 -12,2 -23,4 -34,6 -4,1 -7,-2 -7,-7 0,-1 0,-2 0,-3 0,-4 4,-9 8,-9zm68 -11c11,-2 22,-3 34,-4 4,-1 7,3 7,8 0,1 0,2 0,3 0,5 -4,9 -8,9 -11,1 -22,3 -33,4 -4,0 -7,-3 -7,-8 0,-1 0,-2 0,-3 0,-4 3,-9 7,-9zm69 -8c11,-1 22,-2 33,-2 4,-1 8,3 8,8 0,1 0,2 0,3 0,5 -4,9 -8,9 -11,1 -22,2 -33,3 -4,0 -8,-3 -8,-8 0,-1 0,-2 0,-3 0,-5 4,-9 8,-10zm69 -5c11,0 22,0 33,-1 4,0 7,4 7,9 0,1 0,2 0,3 0,5 -3,9 -7,9 -11,0 -22,1 -33,1 -5,1 -8,-3 -8,-8 0,-1 0,-2 0,-3 0,-5 4,-9 8,-10zm69 -2c11,0 22,-1 33,-1 4,0 7,4 7,9 0,1 0,3 0,4 0,5 -3,8 -8,8 -11,1 -22,1 -33,1 -4,0 -7,-4 -7,-9 0,-1 0,-2 0,-3 0,-5 3,-9 8,-9zm68 0c11,0 22,0 33,0 4,0 8,4 8,9 0,1 0,2 0,3 0,5 -4,9 -8,9 -11,0 -22,0 -33,0 -4,0 -8,-4 -8,-9 0,-1 0,-2 0,-3 0,-5 4,-10 8,-9zm69 0c11,0 22,0 33,1 4,0 7,4 7,9 0,1 0,2 0,3 0,5 -3,9 -7,9 -11,-1 -22,-1 -34,-1 -4,0 -7,-4 -7,-9 0,-1 0,-2 0,-3 0,-5 3,-9 8,-9zm68 2c11,0 22,0 33,0 5,1 8,5 8,10 0,1 0,2 0,3 0,5 -4,8 -8,8 -11,0 -22,0 -33,-1 -4,0 -7,-4 -7,-9 0,0 0,-2 0,-3 0,-5 3,-8 7,-8zm69 2c11,0 22,1 33,1 4,0 8,4 8,9 0,1 -1,2 -1,3 0,5 -3,9 -7,9 -11,-1 -22,-1 -33,-1 -4,-1 -8,-5 -8,-9 0,-1 0,-3 0,-4 0,-5 4,-8 8,-8zm69 3c11,0 22,1 33,1 4,1 7,5 7,10 0,1 0,2 0,3 0,4 -3,8 -7,8 -12,-1 -22,-1 -34,-2 -4,0 -7,-4 -7,-9 0,-1 0,-2 0,-3 0,-5 3,-9 8,-8zm68 3c11,1 22,1 33,2 4,0 8,5 8,9 0,1 0,2 0,3 0,5 -4,9 -8,9 -11,-1 -22,-2 -33,-2 -4,-1 -7,-5 -7,-9 0,-1 0,-2 0,-3 0,-5 3,-9 7,-9zm69 4c11,1 22,2 33,3 4,0 7,4 7,9 0,0 0,2 0,3 0,4 -3,8 -7,7 -11,0 -22,-1 -33,-2 -4,0 -8,-4 -8,-8 0,-1 0,-3 0,-4 0,-4 4,-8 8,-8zm68 5c11,1 23,2 34,3 4,0 7,4 7,8 0,2 0,3 0,4 0,4 -3,8 -7,7 -12,-1 -23,-1 -34,-2 -4,0 -7,-4 -7,-9 0,-1 0,-2 0,-3 0,-5 3,-8 7,-8zm69 5c11,1 22,2 33,3 4,1 8,5 8,9 0,1 0,2 0,3 0,5 -4,8 -8,8 -11,-1 -22,-3 -33,-3 -4,-1 -7,-4 -7,-9 0,-1 0,-2 0,-3 0,-5 3,-8 7,-8zm-927 41c11,-2 22,-4 33,-6 4,0 8,3 8,7 -1,1 0,2 0,3 0,5 -4,9 -8,9 -11,2 -22,4 -33,6 -4,1 -8,-2 -8,-6 0,-1 0,-2 0,-3 0,-4 4,-9 8,-10zm69 -11c11,-2 22,-3 33,-4 4,-1 7,3 7,7 0,1 0,2 0,3 0,5 -3,9 -7,10 -11,1 -22,2 -33,4 -5,0 -8,-3 -8,-8 0,-1 0,-2 0,-3 0,-4 4,-8 8,-9zm69 -8c11,-1 22,-2 33,-3 4,0 7,3 7,8 0,1 0,2 0,3 0,5 -3,9 -8,10 -11,0 -22,1 -33,2 -4,1 -7,-3 -7,-8 0,-1 0,-2 0,-3 0,-4 3,-9 8,-9zm68 -5c11,-1 22,-2 34,-2 4,0 7,4 7,8 0,1 0,3 0,4 0,4 -4,8 -8,9 -11,0 -22,1 -33,1 -4,0 -7,-3 -7,-8 0,-1 0,-2 0,-3 0,-5 3,-9 7,-9zm69 -4c11,0 22,0 33,0 4,-1 8,3 8,8 0,1 0,2 -1,3 0,5 -3,9 -7,9 -11,1 -22,1 -33,1 -4,0 -8,-3 -8,-8 0,-1 0,-2 0,-3 0,-5 4,-9 8,-10zm69 -1c11,0 22,0 33,0 4,0 7,4 7,9 0,1 0,2 0,3 0,5 -3,9 -7,9 -12,0 -23,0 -33,0 -5,0 -8,-4 -8,-9 0,-1 0,-2 0,-3 0,-5 4,-9 8,-9zm68 0c11,0 22,1 33,1 5,0 8,4 8,9 0,1 0,2 0,3 0,5 -4,9 -8,9 -11,0 -22,-1 -33,-1 -4,0 -7,-4 -7,-9 0,-1 0,-2 0,-3 0,-5 3,-9 7,-9zm69 1c11,1 22,1 33,1 4,0 7,4 7,9 0,1 0,2 0,3 0,5 -3,9 -7,9 -11,-1 -22,-1 -33,-1 -4,0 -8,-4 -8,-9 0,-1 1,-2 1,-3 0,-5 3,-9 7,-9zm69 2c11,0 22,1 33,1 4,0 7,4 7,9 0,1 0,2 0,3 0,5 -3,9 -7,8 -11,0 -22,0 -33,0 -5,-1 -8,-5 -8,-9 0,-1 0,-2 0,-4 0,-4 4,-8 8,-8zm68 2c11,1 22,1 33,2 5,0 8,4 8,8 0,2 0,3 0,4 0,5 -4,8 -8,8 -11,0 -22,-1 -33,-1 -4,0 -7,-4 -7,-9 0,-1 0,-2 0,-3 0,-5 3,-9 7,-9zm69 3c11,1 22,1 33,2 4,0 8,4 7,9 0,1 0,2 0,3 0,4 -3,8 -7,8 -11,0 -22,-1 -33,-1 -4,-1 -8,-5 -8,-9 0,-1 0,-3 0,-4 0,-4 4,-8 8,-8zm69 4c11,0 22,1 33,1 4,1 7,5 7,9 0,2 0,2 0,3 0,5 -3,9 -7,8 -12,0 -22,-1 -33,-1 -5,0 -8,-4 -8,-9 0,-1 0,-2 0,-3 0,-5 3,-9 8,-8zm68 3c11,1 22,2 33,3 5,0 8,4 8,8 0,1 0,3 0,3 0,5 -3,9 -8,8 -11,0 -22,-1 -33,-2 -4,0 -7,-4 -7,-9 0,-1 0,-2 0,-3 0,-4 3,-8 7,-8zm69 5c11,1 22,1 33,2 4,0 8,4 8,9 0,1 0,2 0,3 0,5 -4,8 -8,8 -11,-1 -22,-2 -33,-2 -4,-1 -8,-5 -8,-9 0,-1 0,-2 0,-3 0,-5 4,-8 8,-8zm69 5c11,1 22,2 33,3 4,0 7,4 7,9 0,1 0,2 0,3 0,4 -3,7 -7,7 -11,-1 -22,-2 -33,-3 -5,0 -8,-4 -8,-9 0,0 0,-1 0,-3 0,-4 4,-7 8,-7zm-928 34c11,-1 22,-3 33,-4 4,-1 7,3 7,7 0,1 0,2 0,3 0,5 -3,9 -7,10 -11,1 -22,2 -34,3 -4,1 -7,-2 -7,-7 0,-1 0,-2 0,-3 0,-4 4,-8 8,-9zm68 -8c12,-1 23,-2 34,-3 4,0 7,3 7,8 0,1 0,2 0,3 0,5 -3,9 -8,9 -11,1 -22,2 -33,3 -4,0 -7,-3 -7,-8 0,-1 0,-2 0,-3 0,-4 3,-8 7,-9zm69 -6c11,0 22,-1 33,-2 5,0 8,4 8,9 0,1 0,2 0,3 0,5 -4,9 -8,9 -11,1 -22,1 -33,2 -4,0 -7,-4 -7,-8 0,-1 0,-2 0,-3 0,-5 3,-9 7,-10zm69 -3c11,-1 22,-1 33,-1 4,-1 8,3 8,8 0,1 0,2 0,3 0,5 -4,9 -8,9 -11,1 -22,1 -33,2 -4,0 -8,-4 -8,-9 0,-1 0,-2 0,-3 1,-5 4,-9 8,-9zm69 -2c11,0 22,-1 33,-1 4,0 7,4 7,9 0,1 0,2 0,3 0,5 -3,9 -7,9 -11,0 -22,1 -34,1 -4,0 -7,-4 -7,-9 0,-1 0,-2 0,-3 0,-5 4,-9 8,-9zm68 -1c12,0 22,0 34,1 4,0 7,4 7,9 0,1 0,2 0,3 0,5 -3,8 -8,8 -11,0 -22,0 -33,0 -4,0 -7,-4 -7,-9 0,-1 0,-2 0,-3 0,-5 3,-9 7,-9zm69 1c11,0 22,0 33,0 4,0 8,4 8,9 0,1 0,2 0,3 0,5 -4,9 -8,9 -11,0 -22,0 -33,0 -4,0 -8,-4 -8,-9 0,-1 0,-2 0,-3 1,-5 4,-9 8,-9zm69 1c11,0 22,0 33,1 4,0 7,4 7,9 0,1 0,2 0,3 0,5 -3,9 -7,8 -11,0 -22,0 -33,0 -4,0 -8,-4 -8,-9 0,-1 0,-2 0,-3 0,-5 4,-9 8,-9zm68 2c11,0 22,0 34,1 4,0 7,4 7,9 0,1 0,2 0,3 0,5 -3,9 -8,8 -11,0 -22,0 -33,-1 -4,0 -7,-4 -7,-9 0,-1 0,-2 0,-3 0,-5 3,-8 7,-8zm69 2c11,0 22,1 33,1 4,1 8,4 8,9 0,1 0,3 0,3 0,5 -4,9 -8,9 -11,-1 -22,-1 -33,-1 -4,-1 -7,-5 -7,-9 0,-1 0,-2 0,-4 0,-4 3,-8 7,-8zm69 3c11,0 22,1 33,1 4,1 7,5 7,9 0,1 0,2 0,3 0,5 -3,9 -7,9 -11,-1 -22,-1 -33,-2 -4,0 -8,-4 -8,-9 0,-1 0,-2 0,-3 0,-5 4,-8 8,-8zm69 3c11,1 22,1 33,2 4,0 7,4 7,9 0,1 0,2 0,3 0,4 -3,8 -7,8 -11,-1 -23,-1 -34,-2 -4,0 -7,-4 -7,-9 0,-1 0,-2 0,-3 0,-5 3,-8 8,-8zm68 4c11,0 22,1 33,2 5,0 8,4 8,8 0,1 0,2 0,3 0,5 -3,8 -8,8 -11,0 -22,-1 -33,-2 -4,0 -7,-4 -7,-8 0,-1 0,-2 0,-3 0,-5 3,-9 7,-8zm69 4c11,0 22,1 33,2 4,0 8,4 8,9 0,1 0,2 0,2 0,5 -4,8 -8,8 -11,0 -22,-1 -33,-2 -4,0 -7,-4 -7,-9 0,0 0,-2 0,-3 0,-4 3,-8 7,-7zm-928 41c11,-2 22,-3 33,-5 4,0 8,3 8,8 0,1 0,2 0,3 0,4 -4,8 -8,9 -11,1 -22,2 -33,3 -4,1 -8,-2 -8,-6 0,-1 0,-2 0,-3 0,-5 4,-9 8,-9zm69 -8c11,-1 22,-2 33,-3 4,-1 8,3 8,7 0,2 0,3 0,4 0,4 -4,8 -8,9 -11,0 -22,1 -33,2 -4,1 -8,-3 -8,-7 0,-1 0,-2 0,-3 0,-5 4,-9 8,-9zm69 -6c11,-1 22,-2 33,-2 4,0 7,3 7,8 0,1 1,2 0,3 0,5 -3,9 -7,9 -11,1 -22,1 -33,2 -5,0 -8,-3 -8,-8 0,-1 0,-2 0,-3 0,-5 4,-9 8,-9zm69 -4c11,0 22,-1 33,-1 4,-1 7,3 7,8 0,1 0,2 0,3 0,5 -3,9 -7,9 -12,1 -23,1 -34,2 -4,0 -7,-4 -7,-9 0,-1 0,-2 0,-3 0,-5 3,-9 8,-9zm68 -2c11,-1 22,-1 34,-1 4,0 7,4 7,9 0,1 0,2 0,3 0,5 -4,9 -8,9 -11,0 -22,0 -33,0 -4,1 -7,-3 -7,-8 0,-1 0,-2 0,-3 0,-5 3,-9 7,-9zm69 -1c11,0 22,0 33,0 4,0 8,4 8,9 0,1 0,2 0,3 0,5 -4,9 -8,9 -11,0 -22,0 -33,0 -4,0 -8,-4 -8,-9 0,-1 1,-2 1,-3 0,-5 3,-9 7,-9zm69 0c11,0 22,0 33,0 4,0 7,4 7,9 0,1 0,2 0,3 0,5 -3,9 -7,9 -11,0 -22,0 -33,0 -5,0 -8,-4 -8,-9 0,-1 0,-2 0,-3 0,-5 4,-9 8,-9zm69 0c11,1 21,1 33,1 4,0 7,4 7,9 0,1 0,2 0,3 0,5 -3,9 -8,9 -11,0 -22,-1 -33,-1 -4,0 -7,-4 -7,-9 0,-1 0,-2 0,-3 0,-5 3,-9 8,-9zm68 2c11,0 22,0 33,0 4,1 8,4 8,9 0,1 0,2 0,3 0,5 -4,9 -8,9 -11,0 -22,0 -33,-1 -4,0 -8,-4 -8,-9 0,-1 0,-2 0,-3 0,-5 4,-9 8,-8zm69 2c11,0 22,0 33,0 4,1 8,5 8,9 0,1 0,2 0,3 0,5 -4,9 -8,9 -11,0 -22,-1 -33,-1 -4,0 -8,-4 -8,-9 0,-1 0,-2 0,-3 0,-5 4,-9 8,-8zm69 2c11,0 22,1 33,1 4,0 7,4 7,9 0,1 0,2 0,3 0,5 -3,8 -7,8 -12,0 -23,0 -33,-1 -5,0 -8,-4 -8,-9 0,-1 0,-2 0,-3 0,-5 3,-8 8,-8zm68 2c11,1 22,1 34,2 4,0 7,4 7,8 0,2 0,3 0,3 0,5 -3,9 -8,9 -11,-1 -22,-1 -33,-1 -4,-1 -7,-5 -7,-9 0,-1 0,-2 0,-3 0,-5 3,-9 7,-9zm69 3c11,1 22,1 33,2 4,0 8,4 8,8 0,1 0,2 0,3 0,5 -4,9 -8,8 -11,0 -22,0 -33,-1 -4,0 -8,-4 -8,-9 0,-1 0,-2 0,-3 0,-4 4,-8 8,-8zm69 3c11,1 22,2 33,2 4,0 8,4 8,9 0,1 0,2 0,3 0,4 -4,8 -8,7 -11,0 -22,0 -33,-1 -4,0 -8,-4 -8,-9 0,-1 0,-2 0,-3 0,-4 4,-8 8,-8zm69 4c11,1 22,2 33,2 4,0 7,4 7,9 0,1 0,2 0,2 0,5 -3,8 -7,8 -11,-1 -22,-1 -33,-2 -5,0 -8,-4 -8,-8 0,-1 0,-2 0,-3 0,-5 3,-8 8,-8zm-929 34c11,-1 22,-2 33,-3 4,0 8,4 8,8 0,1 -1,2 -1,3 0,5 -3,9 -7,9 -11,1 -22,2 -33,3 -4,0 -8,-3 -8,-8 0,-1 0,-2 0,-3 0,-4 4,-8 8,-9zm69 -5c11,-1 22,-1 33,-2 4,0 7,3 7,8 0,1 0,2 0,3 0,5 -3,9 -7,9 -11,1 -22,1 -34,2 -4,0 -7,-3 -7,-8 0,-1 0,-2 0,-3 0,-5 3,-9 8,-9zm68 -4c11,0 22,-1 34,-1 4,0 7,3 7,8 0,1 0,2 0,3 0,5 -3,9 -8,9 -11,1 -22,1 -33,1 -4,1 -7,-3 -7,-8 0,-1 0,-2 0,-3 0,-5 3,-9 7,-9zm69 -2c11,-1 22,-1 33,-1 5,0 8,4 8,8 0,2 0,3 0,4 0,4 -3,8 -8,9 -11,0 -22,0 -33,0 -4,0 -7,-3 -7,-8 0,-1 0,-2 0,-3 0,-5 3,-9 7,-9zm69 -2c11,0 22,0 33,0 4,0 8,4 8,9 0,1 0,2 0,3 0,5 -4,9 -8,9 -11,0 -22,0 -33,0 -4,0 -8,-4 -8,-9 0,-1 0,-2 0,-3 0,-5 4,-9 8,-9zm69 0c11,0 22,0 33,0 4,0 8,4 8,9 -1,1 -1,2 -1,3 0,5 -3,9 -7,9 -11,0 -22,0 -33,0 -4,0 -8,-4 -8,-9 0,-1 0,-2 0,-3 0,-5 4,-9 8,-9zm68 0c11,0 23,1 34,1 4,0 7,4 7,8 0,2 0,3 0,4 0,5 -3,8 -7,8 -12,0 -23,0 -34,0 -4,0 -7,-4 -7,-9 0,-1 0,-2 0,-3 0,-5 3,-9 7,-9zm69 1c11,0 22,0 33,0 5,1 8,5 8,9 0,2 0,3 0,4 0,4 -3,8 -8,8 -11,0 -22,0 -33,0 -4,0 -7,-4 -7,-9 0,-1 0,-2 0,-3 0,-5 3,-9 7,-9zm69 1c11,0 22,1 33,1 4,0 8,4 8,9 0,1 0,2 0,3 0,5 -4,9 -8,9 -11,-1 -22,-1 -33,-1 -4,0 -8,-4 -8,-9 0,-1 1,-2 1,-3 0,-5 3,-9 7,-9zm69 2c11,0 22,1 33,1 4,0 7,4 7,9 0,1 0,2 0,3 0,5 -3,8 -7,8 -11,0 -22,0 -33,-1 -4,0 -8,-4 -8,-8 0,-1 0,-2 0,-4 0,-4 4,-8 8,-8zm69 2c10,0 22,1 33,1 4,0 7,4 7,9 0,1 0,2 0,3 0,5 -3,8 -7,8 -11,0 -23,0 -34,-1 -4,0 -7,-4 -7,-8 0,-1 0,-2 0,-4 0,-4 3,-8 8,-8zm68 2c11,1 22,1 34,1 4,1 7,4 7,9 0,1 0,2 0,3 0,5 -3,9 -8,8 -11,0 -22,0 -33,-1 -4,0 -7,-4 -7,-8 0,-1 0,-2 0,-3 0,-5 3,-9 7,-9zm69 3c11,0 22,1 33,1 4,0 8,4 8,9 0,1 0,2 0,3 0,4 -4,8 -8,8 -11,-1 -22,-1 -33,-1 -4,-1 -7,-4 -7,-9 0,-1 0,-2 0,-3 0,-5 3,-8 7,-8zm69 2c11,1 22,1 33,2 4,0 8,4 8,8 0,1 0,2 0,3 0,5 -4,8 -8,8 -11,0 -22,-1 -33,-1 -4,0 -8,-4 -8,-9 0,-1 0,-2 0,-3 0,-4 4,-8 8,-8zm-929 39c11,-1 22,-2 34,-3 4,0 7,3 7,8 0,1 0,2 0,3 0,5 -3,8 -8,9 -11,0 -22,1 -33,2 -4,0 -7,-3 -7,-8 0,0 0,-1 0,-2 0,-5 3,-9 7,-9zm69 -5c11,0 22,-1 33,-2 4,0 8,4 8,8 0,1 0,2 0,3 0,5 -4,9 -8,9 -11,1 -22,1 -33,2 -4,0 -7,-4 -7,-8 0,-1 0,-2 0,-3 0,-5 3,-9 7,-9zm69 -3c11,-1 22,-1 33,-2 4,0 8,4 8,9 0,1 0,2 0,3 0,5 -4,9 -8,9 -11,0 -22,1 -33,1 -4,0 -8,-4 -8,-8 0,-1 0,-2 0,-4 0,-4 4,-8 8,-8zm69 -3c11,0 22,0 33,-1 4,0 8,4 7,9 0,1 0,2 0,3 0,5 -3,9 -7,9 -11,0 -22,1 -33,1 -5,0 -8,-4 -8,-9 0,-1 0,-2 0,-3 0,-5 4,-9 8,-9zm69 -1c11,-1 22,-1 33,-1 4,0 7,4 7,9 0,1 0,2 0,3 0,5 -3,9 -7,9 -11,0 -22,0 -33,1 -5,0 -8,-4 -8,-9 0,-1 0,-2 0,-3 0,-5 3,-9 8,-9zm68 -1c11,0 22,0 34,0 4,0 7,4 7,9 0,1 0,2 0,3 0,5 -3,9 -8,9 -11,0 -22,0 -33,0 -4,0 -7,-4 -7,-9 0,-1 0,-2 0,-3 0,-5 3,-9 7,-9zm69 0c11,0 22,0 33,0 4,0 8,4 8,9 0,1 0,2 0,3 0,5 -4,9 -8,9 -11,0 -22,0 -33,0 -4,0 -7,-4 -7,-9 0,-1 0,-2 0,-3 0,-5 3,-9 7,-9zm69 1c11,0 22,0 33,0 4,0 8,4 8,9 0,1 0,2 0,3 0,5 -4,9 -8,9 -11,0 -22,0 -33,-1 -4,0 -8,-4 -8,-9 0,-1 0,-2 0,-3 0,-5 4,-9 8,-8zm69 0c11,0 22,1 33,1 4,0 7,4 7,9 0,1 0,2 0,3 0,5 -3,9 -7,9 -11,-1 -22,-1 -33,-1 -5,0 -8,-4 -8,-9 0,-1 0,-2 0,-3 0,-5 4,-9 8,-9zm69 2c11,0 22,0 33,0 4,0 7,4 7,9 0,1 0,2 0,3 0,5 -3,9 -7,9 -11,0 -22,-1 -33,-1 -5,0 -8,-4 -8,-9 0,-1 0,-2 0,-3 0,-5 3,-8 8,-8zm68 1c11,0 22,1 34,1 4,0 7,4 7,9 0,1 0,2 0,3 0,5 -3,8 -8,8 -11,0 -22,0 -33,0 -4,0 -7,-5 -7,-9 0,-1 0,-2 0,-3 0,-5 3,-9 7,-9zm69 2c11,0 22,1 33,1 4,0 8,4 8,9 0,1 0,2 0,3 0,4 -4,8 -8,8 -11,0 -22,-1 -33,-1 -4,0 -7,-4 -7,-9 0,-1 0,-2 0,-3 0,-4 3,-8 7,-8zm69 2c11,0 22,0 33,1 4,0 8,4 8,8 0,1 0,2 0,3 0,5 -4,9 -8,9 -11,-1 -22,-1 -33,-1 -4,0 -8,-4 -8,-9 0,-1 0,-2 0,-3 0,-5 4,-8 8,-8zm69 2c11,0 22,0 33,1 4,0 7,4 7,8 0,1 0,2 0,3 0,5 -3,8 -7,8 -11,0 -22,0 -33,0 -4,0 -8,-4 -8,-9 0,-1 0,-2 0,-3 0,-5 4,-8 8,-8zm68 2c12,0 23,1 34,1 4,0 7,4 7,8 0,1 0,2 0,3 0,5 -3,8 -7,8 -11,0 -22,-1 -34,-1 -4,0 -7,-4 -7,-8 0,-1 0,-2 0,-3 0,-5 3,-8 7,-8zm-929 34c11,0 22,-1 34,-1 4,0 7,3 7,8 0,1 0,2 0,3 0,5 -4,8 -8,9 -11,0 -22,0 -33,1 -4,0 -7,-4 -7,-8 0,-1 0,-2 0,-3 0,-5 3,-8 7,-9zm69 -2c11,-1 22,-1 33,-1 4,-1 8,3 8,8 0,1 0,2 0,3 0,5 -4,9 -8,9 -11,0 -22,0 -33,1 -4,0 -8,-4 -7,-9 0,-1 0,-2 0,-3 0,-4 3,-8 7,-8zm69 -2c11,-1 22,-1 33,-1 4,0 8,4 8,9 0,1 0,2 0,3 0,5 -4,8 -8,9 -11,0 -22,0 -33,0 -4,0 -8,-4 -8,-9 0,0 0,-2 0,-3 0,-5 4,-8 8,-8zm69 -2c11,0 22,0 33,0 4,0 7,4 7,9 0,1 0,2 0,3 0,5 -3,9 -7,9 -11,0 -22,0 -33,0 -4,0 -8,-4 -8,-9 0,-1 0,-2 0,-3 0,-5 4,-9 8,-9zm69 -1c11,0 22,0 33,0 4,0 7,4 7,9 0,1 0,2 0,3 0,5 -3,9 -7,9 -11,0 -23,0 -34,1 -4,0 -7,-5 -7,-9 0,-1 0,-3 0,-4 0,-4 4,-9 8,-9zm68 0c11,0 23,0 34,0 4,0 7,4 7,9 0,1 0,2 0,3 0,5 -3,9 -8,9 -11,0 -22,0 -33,0 -4,0 -7,-4 -7,-9 0,-1 0,-2 0,-3 0,-5 3,-9 7,-9zm69 0c11,1 22,0 33,1 4,0 8,4 8,9 0,1 0,2 0,3 0,5 -4,9 -8,9 -11,0 -22,0 -33,0 -4,0 -7,-5 -7,-9 0,-1 0,-3 0,-4 0,-5 3,-9 7,-9zm69 1c11,0 22,0 33,0 4,0 8,4 8,9 0,1 0,2 0,3 0,5 -4,9 -8,9 -11,0 -22,0 -33,0 -4,0 -8,-4 -8,-9 0,-1 0,-2 0,-3 0,-5 4,-9 8,-9zm69 1c11,0 22,0 33,0 4,0 7,4 7,9 0,1 0,2 0,3 0,5 -3,9 -7,9 -11,0 -22,0 -33,-1 -4,0 -8,-4 -8,-8 0,-1 0,-3 0,-4 0,-5 4,-9 8,-8zm69 1c11,0 22,0 33,0 4,1 7,4 7,9 0,1 0,2 0,3 0,5 -3,9 -7,9 -11,0 -22,-1 -33,-1 -5,0 -8,-4 -8,-9 0,0 0,-2 0,-3 0,-5 4,-8 8,-8zm68 1c11,0 22,1 34,1 4,0 7,4 7,8 0,1 0,3 0,3 0,5 -3,9 -7,9 -12,0 -23,0 -34,-1 -4,0 -7,-4 -7,-8 0,-1 0,-2 0,-3 0,-5 3,-9 7,-9zm69 1c11,1 22,1 33,1 5,0 8,4 8,9 0,1 0,2 0,3 0,4 -3,8 -8,8 -11,0 -22,0 -33,0 -4,0 -7,-4 -7,-9 0,-1 0,-2 0,-3 0,-5 3,-9 7,-9zm69 2c11,0 22,0 33,1 4,0 8,3 8,8 0,1 0,2 0,3 0,4 -4,8 -8,8 -11,0 -22,0 -33,0 -4,0 -8,-4 -8,-9 0,-1 0,-2 0,-3 0,-5 4,-8 8,-8zm69 1c11,0 22,1 33,1 4,0 8,4 8,8 0,1 0,2 0,3 0,4 -4,8 -8,8 -11,0 -22,0 -33,0 -4,0 -8,-4 -8,-9 0,-1 0,-2 0,-3 0,-4 4,-8 8,-8zm-929 36c11,0 22,-1 33,-1 4,0 7,4 7,8 0,1 0,2 0,3 0,5 -3,9 -7,9 -11,0 -22,0 -33,0 -5,0 -8,-3 -8,-8 0,-1 0,-2 0,-3 0,-4 4,-8 8,-8zm69 -1c11,-1 22,-1 33,-1 4,0 7,4 7,8 0,1 0,2 0,3 0,5 -3,9 -7,9 -12,0 -23,0 -34,0 -4,0 -7,-3 -7,-8 0,-1 0,-2 0,-3 0,-5 3,-8 8,-8zm68 -2c11,0 22,0 34,0 4,0 7,4 7,8 0,1 0,3 0,4 0,4 -3,8 -7,8 -12,0 -23,1 -34,1 -4,0 -7,-4 -7,-9 0,-1 0,-2 0,-3 0,-5 3,-9 7,-9zm69 -1c11,0 22,0 34,0 4,0 7,4 7,9 0,1 0,2 0,3 0,5 -3,9 -8,9 -11,0 -22,0 -33,0 -4,0 -7,-4 -7,-9 0,-1 0,-2 0,-3 0,-5 3,-9 7,-9zm69 0c11,0 22,0 33,0 5,0 8,3 8,8 0,1 0,3 0,4 0,4 -4,9 -8,9 -11,0 -22,0 -33,0 -4,0 -8,-4 -8,-9 0,-1 1,-2 1,-3 0,-5 3,-9 7,-9zm69 -1c11,0 22,0 33,0 4,0 8,4 8,9 0,1 0,2 0,3 0,5 -4,9 -8,9 -11,0 -22,0 -33,0 -4,0 -8,-4 -8,-8 0,-1 0,-3 0,-4 0,-5 4,-9 8,-9zm69 0c11,0 22,0 33,0 4,0 8,4 8,9 0,1 0,3 0,4 -1,4 -4,9 -8,9 -11,-1 -22,-1 -33,-1 -4,0 -8,-4 -8,-9 0,-1 0,-2 0,-3 0,-5 4,-9 8,-9zm69 1c11,0 22,0 33,0 4,0 7,4 7,9 0,1 0,2 0,3 0,5 -3,9 -7,9 -11,0 -22,0 -33,0 -5,0 -8,-5 -8,-9 0,-1 0,-3 0,-4 0,-4 4,-8 8,-8zm68 0c12,0 23,0 34,0 4,0 7,4 7,9 0,1 0,2 0,3 0,5 -3,9 -7,9 -12,0 -23,0 -34,0 -4,0 -7,-4 -7,-9 0,-1 0,-2 0,-3 0,-5 3,-9 7,-9zm69 1c11,0 22,0 34,0 4,0 7,4 7,9 0,1 0,2 0,3 0,5 -3,9 -7,9 -12,0 -23,-1 -34,-1 -4,0 -7,-4 -7,-9 0,-1 0,-2 0,-3 0,-5 3,-8 7,-8zm69 1c11,0 22,0 33,0 5,0 8,4 8,9 0,1 0,2 0,3 0,5 -4,8 -8,8 -11,0 -22,0 -33,0 -4,0 -7,-4 -7,-9 0,-1 0,-2 0,-3 0,-5 3,-8 7,-8zm69 1c11,0 22,0 33,0 4,0 8,4 8,9 0,1 0,2 0,3 0,4 -4,8 -8,8 -11,0 -22,0 -33,0 -4,0 -8,-4 -7,-9 0,-1 0,-2 0,-3 0,-5 3,-8 7,-8zm69 1c11,0 22,0 33,0 4,0 8,4 8,8 0,1 0,3 0,3 0,5 -4,9 -8,9 -11,0 -22,0 -33,0 -4,-1 -8,-4 -8,-9 0,-1 0,-2 0,-3 0,-5 4,-9 8,-8zm69 0c11,1 22,1 33,1 4,0 8,3 8,8 0,1 0,2 0,3 -1,4 -4,8 -8,8 -11,0 -22,0 -33,0 -4,0 -8,-4 -8,-8 0,-1 0,-2 0,-3 0,-5 4,-9 8,-9zm69 1c11,0 22,0 33,0 4,0 7,4 7,8 0,1 0,2 0,3 0,5 -3,8 -7,8 -11,0 -22,0 -34,0 -4,0 -7,-4 -7,-8 0,-1 0,-2 0,-3 0,-5 3,-8 8,-8zm-930 34c11,0 22,0 33,0 4,0 7,4 7,9 0,1 0,2 0,3 0,4 -3,8 -7,8 -11,0 -22,-1 -33,-1 -4,0 -8,-3 -8,-8 0,-1 0,-2 0,-3 0,-4 4,-8 8,-8zm69 0c11,0 22,0 33,0 4,0 7,4 7,9 0,1 0,2 0,3 0,5 -3,8 -7,8 -11,0 -22,0 -33,0 -5,0 -8,-4 -8,-8 0,-1 0,-2 0,-3 0,-5 3,-9 8,-9zm68 0c11,0 23,0 34,0 4,0 7,4 7,9 0,1 0,2 0,3 0,5 -3,8 -7,8 -11,0 -23,0 -34,0 -4,0 -7,-4 -7,-8 0,-1 0,-2 0,-3 0,-5 3,-9 7,-9zm69 0c11,0 22,0 34,0 4,0 7,4 7,9 0,1 0,2 0,3 0,5 -3,8 -7,8 -12,0 -23,0 -34,0 -4,0 -7,-3 -7,-8 0,-1 0,-2 0,-3 0,-5 3,-9 7,-9zm69 0c11,0 22,0 33,0 5,0 8,3 8,8 0,2 0,3 0,4 0,5 -3,8 -8,8 -11,0 -22,0 -33,0 -4,0 -7,-3 -7,-8 0,-1 0,-2 0,-3 0,-5 3,-9 7,-9zm69 0c11,0 22,0 33,0 4,0 8,3 8,8 0,2 0,3 0,4 0,5 -4,8 -8,8 -11,0 -22,0 -33,0 -4,0 -7,-3 -7,-8 0,-1 0,-2 0,-4 0,-5 3,-8 7,-8zm69 0c11,0 22,0 33,0 4,0 8,3 8,8 0,2 0,3 0,4 0,5 -4,8 -8,8 -11,0 -22,0 -33,0 -4,0 -8,-3 -8,-8 0,-1 0,-2 0,-4 0,-5 4,-8 8,-8zm69 0c11,0 22,0 33,0 4,0 7,4 7,9 0,1 0,2 0,3 0,5 -3,8 -7,8 -11,0 -22,0 -33,0 -4,0 -8,-3 -8,-8 0,-1 0,-2 0,-4 0,-5 4,-8 8,-8zm69 0c11,0 22,0 33,0 4,0 7,4 7,9 0,1 0,2 0,3 0,5 -3,9 -7,9 -11,0 -22,0 -33,-1 -5,0 -8,-3 -8,-8 0,-1 0,-2 0,-3 0,-5 3,-9 8,-9zm68 0c11,0 23,1 34,1 4,0 7,4 7,8 0,2 0,3 0,3 0,5 -3,9 -7,9 -11,0 -23,0 -34,0 -4,0 -7,-4 -7,-9 0,-1 0,-2 0,-3 0,-5 3,-9 7,-9zm69 1c11,0 22,0 33,0 5,0 8,4 8,9 0,1 0,2 0,3 0,5 -3,8 -8,8 -11,0 -22,0 -33,0 -4,0 -7,-4 -7,-8 0,-1 0,-2 0,-3 0,-5 3,-9 7,-9zm69 1c11,0 22,0 33,0 4,0 8,3 8,8 0,1 0,2 0,3 0,5 -4,8 -8,8 -11,0 -22,0 -33,0 -4,0 -7,-3 -7,-8 0,-1 0,-2 0,-3 0,-5 3,-8 7,-8zm69 0c11,0 22,0 33,0 4,0 8,4 8,8 0,1 0,2 0,3 0,5 -4,8 -8,8 -11,1 -22,0 -33,0 -4,0 -8,-3 -8,-8 0,-1 0,-2 0,-3 0,-5 4,-8 8,-8zm69 0c11,0 22,0 33,0 4,0 8,3 8,8 0,1 0,2 0,3 0,4 -4,8 -8,8 -11,0 -22,0 -33,0 -4,0 -8,-3 -8,-8 0,-1 0,-2 0,-3 0,-5 4,-8 8,-8z"/>
 </g>
</svg>
