<?xml version="1.0" encoding="UTF-8"?>
<!DOCTYPE svg PUBLIC "-//W3C//DTD SVG 1.1//EN" "http://www.w3.org/Graphics/SVG/1.1/DTD/svg11.dtd">
<!-- Creator: CorelDRAW X7 -->
<svg xmlns="http://www.w3.org/2000/svg" xml:space="preserve" width="136.407mm" height="78.817mm" version="1.1" style="shape-rendering:geometricPrecision; text-rendering:geometricPrecision; image-rendering:optimizeQuality; fill-rule:evenodd; clip-rule:evenodd"
viewBox="0 0 1668 964"
 xmlns:xlink="http://www.w3.org/1999/xlink">
 <defs>
  <style type="text/css">
   <![CDATA[
    .fil0 {fill:#2B2A29}
   ]]>
  </style>
 </defs>
 <g id="Layer_x0020_1">
  <metadata id="CorelCorpID_0Corel-Layer"/>
  <path class="fil0" d="M445 30c-6,3 -11,8 -14,14l15 1c4,1 8,-2 7,-6 0,0 0,-1 0,-2 0,-3 -3,-7 -8,-7zm39 3c12,2 24,3 36,4 5,1 8,4 8,8 0,0 1,1 1,2 0,4 -4,6 -8,6 -13,-2 -25,-3 -36,-4 -5,-1 -9,-4 -9,-8 0,0 0,-1 0,-2 0,-4 3,-6 8,-6zm75 9c12,1 24,2 36,4 4,0 8,4 8,7 0,1 0,2 0,2 0,4 -3,7 -8,6 -12,-1 -24,-3 -36,-4 -4,-1 -8,-4 -8,-8 0,0 0,-1 0,-2 0,-3 3,-6 8,-5zm74 8c12,2 24,3 36,5 5,0 9,4 9,7 0,1 0,2 0,3 0,3 -3,5 -8,5 -12,-2 -24,-3 -36,-5 -4,0 -8,-3 -8,-7 0,-1 0,-1 -1,-2 0,-4 4,-6 8,-6zm75 10c12,1 24,3 36,5 5,0 9,3 9,7 0,1 0,2 0,2 0,4 -3,6 -8,5 -12,-1 -24,-3 -36,-4 -4,-1 -8,-4 -8,-7 0,-1 -1,-2 -1,-3 0,-3 4,-6 8,-5zm75 10c12,1 24,3 36,5 5,0 8,4 9,7 0,1 0,1 0,2 0,4 -3,6 -8,5 -12,-1 -24,-3 -36,-5 -4,0 -9,-4 -9,-7 0,-1 0,-1 0,-2 0,-4 4,-6 8,-5zm75 10c12,2 24,3 36,5 5,1 9,4 9,8 0,0 0,1 0,2 0,3 -3,5 -8,5 -12,-2 -24,-4 -36,-6 -5,0 -8,-3 -9,-7 0,0 0,-1 0,-2 0,-3 4,-6 8,-5zm75 11c12,2 24,4 36,5 5,1 9,4 9,8 0,1 0,1 0,2 0,3 -3,5 -8,5 -12,-2 -24,-4 -36,-6 -5,-1 -8,-4 -9,-7 0,-1 0,-1 0,-2 0,-3 4,-6 8,-5zm75 11c12,2 24,4 36,6 5,1 8,4 9,8 0,0 0,1 0,2 0,3 -3,5 -8,4 -12,-2 -24,-4 -36,-6 -5,0 -8,-3 -9,-7 0,0 0,-1 0,-2 0,-3 3,-5 8,-5zm75 13c12,2 24,4 36,6 5,1 9,4 9,7 0,1 0,2 0,2 0,3 -3,5 -8,5 -12,-2 -24,-5 -36,-6 -5,-1 -8,-4 -9,-8 0,0 0,-1 0,-2 0,-3 3,-5 8,-4zm75 12c12,3 24,5 36,7 5,1 9,4 9,7 0,1 0,2 0,2 0,3 -3,5 -8,5 -12,-3 -24,-5 -36,-7 -4,-1 -9,-4 -9,-7 0,-1 0,-1 0,-2 0,-3 3,-5 8,-5zm75 14c12,2 24,5 36,7 4,1 9,4 9,7 0,1 0,1 0,2 1,3 -3,5 -8,4 -12,-2 -24,-4 -36,-7 -5,0 -8,-4 -9,-7 0,0 0,-1 0,-2 0,-3 3,-5 8,-4zm75 14c12,2 24,5 36,7 5,1 9,4 9,7 0,1 0,1 0,2 1,3 -3,5 -7,4 -13,-3 -25,-5 -37,-7 -4,-1 -8,-4 -8,-7 0,-1 0,-1 0,-2 -1,-3 3,-5 7,-4zm75 15c12,2 24,4 37,7 4,0 8,4 8,7 0,0 0,1 0,1 1,3 -3,5 -7,4 -12,-2 -25,-4 -36,-7 -5,-1 -9,-4 -9,-7 0,0 0,-1 0,-2 -1,-3 3,-4 7,-3zm75 14c13,3 24,5 37,8 4,0 8,4 8,7 1,0 1,1 1,1 0,3 -4,5 -8,4 -12,-3 -24,-5 -36,-7 -5,-1 -9,-4 -9,-7 0,-1 0,-1 0,-2 -1,-3 3,-5 7,-4zm76 15c12,3 24,5 36,8 4,1 8,4 9,7 0,0 0,1 0,2 0,2 -3,4 -8,3 -12,-2 -24,-5 -36,-7 -5,-1 -8,-4 -9,-7 0,-1 0,-1 0,-2 0,-3 3,-5 8,-4zm79 29c-1,-5 -3,-9 -6,-13 -4,0 -6,1 -6,3 0,1 0,2 0,2 1,3 5,6 9,7l3 1zm-1166 -170c12,2 24,3 36,4 5,0 9,4 9,7 0,1 0,2 0,3 0,3 -4,6 -8,5 -12,-1 -24,-2 -37,-3 -4,-1 -7,-4 -8,-8 0,0 0,-1 0,-2 0,-4 4,-6 8,-6zm75 8c12,1 24,3 36,4 5,0 9,4 9,7 0,1 0,2 0,3 0,3 -4,6 -8,5 -12,-1 -24,-3 -36,-4 -5,0 -8,-3 -9,-7 0,-1 0,-2 0,-2 0,-4 4,-6 8,-6zm75 8c12,2 24,3 36,4 5,1 9,4 9,8 0,0 0,1 0,2 0,3 -4,6 -8,5 -12,-1 -24,-2 -36,-4 -5,0 -9,-3 -9,-7 0,-1 0,-1 0,-2 0,-4 3,-6 8,-6zm75 9c12,1 24,3 36,4 5,1 9,4 9,8 0,1 0,1 0,2 0,3 -4,6 -8,5 -12,-1 -24,-3 -37,-4 -4,-1 -8,-4 -8,-7 0,-1 0,-2 0,-3 0,-3 3,-6 8,-5zm75 9c12,2 24,3 36,5 5,0 8,4 9,7 0,1 0,2 0,2 0,4 -4,6 -8,5 -12,-1 -24,-3 -36,-4 -5,-1 -9,-4 -9,-7 0,-1 0,-2 0,-2 0,-4 3,-6 8,-6zm75 10c12,2 24,3 36,5 5,0 9,4 9,7 0,1 0,1 0,2 0,4 -3,6 -8,5 -12,-1 -24,-3 -36,-5 -5,0 -9,-3 -9,-7 0,-1 0,-1 0,-2 0,-3 3,-6 8,-5zm75 10c12,2 24,4 36,5 5,1 9,4 9,7 0,1 0,2 0,3 0,3 -3,5 -8,5 -12,-2 -24,-4 -36,-6 -5,0 -8,-3 -9,-7 0,0 0,-1 0,-2 0,-3 4,-6 8,-5zm75 11c12,2 24,3 36,5 5,1 9,4 9,8 0,0 0,1 0,2 0,3 -3,5 -8,4 -12,-2 -24,-3 -36,-5 -5,-1 -8,-4 -9,-7 0,-1 0,-1 0,-2 0,-4 3,-6 8,-5zm75 11c12,2 24,4 36,6 5,1 9,4 9,7 0,1 0,2 0,2 0,4 -3,6 -8,5 -12,-2 -24,-4 -36,-6 -5,-1 -8,-4 -9,-7 0,-1 0,-1 0,-2 0,-3 4,-5 8,-5zm75 12c12,2 24,5 36,7 5,0 9,4 9,7 0,0 0,1 0,2 0,3 -3,5 -8,4 -12,-2 -24,-4 -36,-6 -4,-1 -8,-4 -8,-7 -1,-1 -1,-2 -1,-2 0,-3 4,-5 8,-5zm75 13c12,2 24,4 36,6 5,1 9,4 9,7 0,1 0,2 0,2 1,4 -3,5 -7,5 -12,-3 -25,-4 -37,-7 -4,0 -8,-3 -9,-7 0,0 0,-1 0,-2 0,-3 4,-5 8,-4zm75 13c13,3 25,5 37,7 4,1 8,4 8,7 0,1 0,1 1,2 0,3 -4,5 -8,4 -12,-2 -24,-4 -36,-7 -5,0 -9,-4 -9,-7 0,0 0,-1 0,-2 -1,-3 3,-4 7,-4zm76 14c12,2 24,4 36,7 4,1 8,4 9,7 0,0 0,1 0,2 0,3 -3,4 -8,4 -12,-3 -24,-5 -36,-7 -5,-1 -9,-4 -9,-7 0,-1 0,-1 0,-2 0,-3 3,-5 8,-4zm75 14c12,2 24,5 36,7 5,1 9,4 9,7 0,1 0,1 0,2 1,3 -3,5 -7,4 -13,-3 -25,-5 -37,-7 -4,-1 -8,-4 -9,-7 0,-1 0,-1 0,-2 0,-3 3,-5 8,-4zm75 15c12,2 24,4 37,7 4,1 8,4 8,7 0,0 0,1 0,2 1,2 -3,4 -7,3 -12,-2 -24,-5 -36,-7 -5,-1 -9,-4 -10,-7 0,0 0,-1 0,-1 0,-3 4,-5 8,-4zm116 34l0 -11c-2,0 -3,-1 -4,-1 -12,-3 -25,-5 -37,-7 -4,-1 -7,0 -7,3 0,1 0,1 0,2 0,3 4,6 9,7 12,2 24,4 36,7 1,0 3,0 3,0zm-1192 -159l1 10c8,1 16,1 25,2 4,1 8,-2 8,-5 0,-1 0,-2 0,-3 0,-3 -4,-7 -9,-7 -8,-1 -17,-2 -25,-2 0,1 0,3 0,5zm64 1c12,1 24,2 36,3 5,1 9,4 9,8 0,0 0,1 0,2 0,4 -4,6 -8,6 -12,-2 -24,-3 -36,-4 -5,0 -9,-4 -9,-7 0,-1 0,-2 0,-3 0,-3 4,-6 8,-5zm75 7c12,2 24,3 36,4 5,1 9,4 9,7 0,1 0,2 0,3 0,3 -3,6 -8,5 -12,-1 -24,-2 -36,-3 -5,-1 -9,-4 -9,-8 0,-1 0,-1 0,-2 0,-4 3,-6 8,-6zm75 8c12,2 24,3 36,5 5,0 9,3 9,7 0,1 0,2 0,2 0,4 -3,6 -8,6 -12,-2 -24,-3 -36,-4 -5,-1 -8,-4 -9,-8 0,0 0,-1 0,-2 0,-4 4,-6 8,-6zm75 9c12,2 24,3 36,5 5,0 9,3 9,7 0,1 0,1 0,2 0,3 -3,6 -8,5 -12,-1 -24,-2 -36,-4 -5,0 -8,-4 -8,-7 -1,-1 -1,-2 -1,-2 0,-4 4,-6 8,-6zm75 9c12,2 24,3 37,5 4,0 8,4 8,7 0,1 0,2 0,2 1,4 -3,6 -8,5 -12,-1 -24,-3 -36,-4 -4,-1 -8,-4 -9,-7 0,-1 0,-2 0,-3 0,-3 4,-5 8,-5zm75 10c12,1 24,3 37,5 4,0 8,4 8,7 0,1 0,1 1,2 0,3 -4,5 -9,5 -12,-2 -24,-3 -36,-5 -4,0 -8,-3 -8,-7 0,0 0,-1 0,-2 -1,-3 3,-6 7,-5zm75 10c13,2 25,3 37,5 4,1 8,4 9,7 0,1 0,2 0,2 0,4 -4,6 -8,5 -12,-1 -24,-3 -37,-5 -4,0 -8,-4 -8,-7 0,-1 0,-1 0,-2 0,-3 3,-6 7,-5zm76 11c12,1 24,3 36,5 5,1 8,4 9,7 0,1 0,2 0,2 0,3 -3,5 -8,5 -12,-2 -24,-4 -36,-5 -5,-1 -9,-4 -9,-7 0,-1 0,-2 0,-3 0,-3 3,-5 8,-4zm75 11c12,2 24,4 36,6 5,0 9,3 9,7 0,0 0,1 0,2 0,3 -3,5 -8,4 -12,-2 -24,-4 -36,-5 -5,-1 -8,-4 -9,-7 0,-1 0,-2 0,-3 0,-3 3,-5 8,-4zm75 12c12,2 24,4 36,6 5,1 9,4 9,7 0,1 0,1 0,2 1,3 -3,5 -7,4 -13,-2 -25,-4 -37,-6 -4,0 -8,-4 -9,-7 0,0 0,-1 0,-2 0,-3 3,-5 8,-4zm75 12c12,2 24,4 37,7 4,0 8,3 9,6 0,1 0,2 0,3 0,3 -4,4 -8,4 -12,-2 -25,-5 -37,-7 -4,0 -8,-3 -8,-6 0,-1 0,-2 0,-2 -1,-3 2,-5 7,-5zm75 13c13,2 25,5 37,7 4,1 8,4 9,7 0,0 0,1 0,2 0,3 -3,5 -8,4 -12,-2 -24,-5 -36,-7 -5,0 -8,-3 -9,-7 0,0 0,-1 0,-2 0,-3 3,-5 7,-4zm76 14c12,2 24,4 36,7 5,0 9,3 9,6 0,1 0,2 0,2 1,3 -3,5 -7,4 -13,-2 -25,-4 -37,-6 -4,-1 -8,-4 -8,-7 -1,-1 -1,-2 -1,-2 0,-3 3,-5 8,-4zm75 14c12,2 24,4 37,6 4,1 8,4 8,7 1,1 1,2 1,2 0,3 -3,5 -8,4 -12,-2 -24,-5 -36,-7 -5,-1 -9,-4 -9,-7 0,0 0,-1 0,-2 -1,-2 3,-4 7,-3zm75 14c13,2 25,4 37,7 4,1 8,4 9,6 0,1 0,2 0,2 0,3 -3,4 -8,4 -12,-3 -24,-5 -36,-7 -4,-1 -8,-4 -9,-7 0,0 0,-1 0,-2 0,-2 3,-4 7,-3zm78 26l-1 -12 -1 0c-5,-1 -8,1 -8,4 0,0 1,1 1,1 0,3 4,6 9,7l0 0zm-1167 -155c12,1 24,2 37,3 4,1 8,4 8,8 0,0 0,1 0,2 0,4 -3,6 -8,6 -12,-2 -24,-3 -36,-4 -4,0 -8,-3 -8,-7 0,-1 0,-2 0,-2 -1,-4 3,-7 7,-6zm76 7c12,1 24,2 36,4 4,0 8,3 8,7 0,1 0,2 0,2 1,4 -3,6 -7,6 -13,-1 -25,-2 -37,-4 -4,0 -8,-3 -8,-7 0,-1 0,-2 0,-2 0,-4 3,-7 8,-6zm75 8c12,1 24,2 36,4 4,0 8,3 9,7 0,1 0,1 0,2 0,4 -4,6 -8,5 -13,-1 -24,-2 -37,-3 -4,-1 -8,-4 -8,-7 0,-1 0,-2 0,-3 0,-3 3,-6 8,-5zm75 8c12,1 24,2 36,4 5,0 9,4 9,7 0,1 0,2 0,2 0,4 -4,6 -8,6 -12,-2 -24,-3 -36,-4 -5,-1 -9,-4 -9,-7 0,-1 0,-2 0,-3 0,-3 3,-6 8,-5zm75 8c12,2 24,3 36,4 5,1 9,4 9,8 0,0 0,1 0,2 0,3 -3,6 -8,5 -12,-1 -24,-3 -36,-4 -5,-1 -8,-4 -9,-7 0,-1 0,-2 0,-2 0,-4 3,-6 8,-6zm75 9c12,2 24,3 37,5 4,0 8,3 8,7 0,1 0,1 0,2 0,3 -3,6 -7,5 -13,-1 -25,-3 -37,-4 -4,-1 -8,-4 -9,-7 0,-1 0,-2 0,-3 0,-3 4,-5 8,-5zm75 9c12,2 25,4 37,5 4,1 8,4 8,7 0,1 0,2 0,2 1,4 -3,6 -7,5 -12,-1 -24,-3 -37,-4 -4,-1 -8,-4 -8,-7 0,-1 0,-2 0,-2 -1,-4 3,-6 7,-6zm76 10c12,2 24,4 36,5 5,1 8,4 9,7 0,1 0,2 0,3 0,3 -4,5 -8,4 -12,-1 -24,-3 -36,-4 -5,-1 -9,-4 -9,-8 0,0 0,-1 0,-2 0,-3 3,-5 8,-5zm75 11c12,2 24,3 36,5 5,1 9,4 9,7 0,1 0,2 0,2 0,4 -3,6 -8,5 -12,-2 -24,-4 -36,-5 -5,-1 -8,-4 -9,-7 0,-1 0,-2 0,-2 0,-4 3,-6 8,-5zm75 11c12,2 24,4 36,6 5,0 9,4 9,7 0,0 0,1 0,2 0,3 -3,5 -7,4 -13,-2 -25,-3 -37,-5 -4,-1 -8,-4 -8,-7 -1,-1 -1,-2 -1,-2 0,-4 4,-6 8,-5zm76 12c12,2 24,4 36,6 4,0 8,4 9,7 0,0 0,1 0,2 0,3 -3,5 -8,4 -12,-2 -24,-4 -36,-6 -5,-1 -9,-4 -9,-7 0,0 0,-1 0,-2 -1,-3 3,-5 8,-4zm75 12c12,2 24,4 36,6 5,1 9,4 9,7 0,1 0,2 0,2 1,3 -3,5 -7,4 -13,-2 -25,-4 -37,-6 -4,-1 -8,-4 -9,-7 0,0 0,-1 0,-2 0,-3 3,-5 8,-4zm75 13c13,2 25,4 37,6 4,1 8,4 9,7 0,1 0,1 0,2 0,3 -3,5 -8,4 -12,-2 -24,-4 -36,-6 -5,-1 -9,-4 -9,-7 0,-1 0,-1 0,-2 -1,-3 3,-5 7,-4zm76 13c12,2 24,4 36,7 5,0 9,3 9,6 0,1 0,2 0,2 0,3 -3,5 -8,4 -12,-2 -24,-4 -36,-6 -5,-1 -9,-4 -9,-7 0,-1 0,-1 0,-2 0,-3 3,-5 8,-4zm75 14c12,2 24,4 37,6 4,1 8,4 8,7 0,0 0,1 0,2 1,3 -3,4 -7,3 -12,-2 -24,-4 -36,-6 -5,-1 -9,-4 -9,-7 -1,0 -1,-1 -1,-2 0,-3 4,-4 8,-3zm115 32l-1 -11c-1,-1 -1,-1 -2,-1 -12,-2 -24,-5 -37,-7 -4,-1 -7,1 -7,4 0,1 0,1 0,2 0,3 4,6 9,6 12,2 24,5 36,7 1,0 2,0 2,0zm-1192 -151l1 16c7,1 15,1 23,2 5,0 8,-2 8,-6 0,-1 0,-1 0,-2 0,-4 -4,-7 -8,-7 -8,-1 -16,-2 -24,-3zm63 6c12,1 24,2 36,3 5,1 8,4 8,8 0,1 1,1 1,2 0,4 -4,6 -8,6 -13,-2 -25,-3 -37,-4 -4,0 -8,-3 -8,-7 0,-1 0,-1 0,-2 0,-4 3,-6 8,-6zm75 7c12,1 24,3 36,4 5,0 9,3 9,7 0,1 0,1 0,2 0,4 -4,6 -8,6 -12,-1 -25,-3 -36,-4 -5,0 -9,-3 -9,-7 0,-1 0,-1 0,-2 0,-4 3,-6 8,-6zm75 8c12,1 24,2 36,3 5,1 9,4 9,8 0,0 0,1 0,2 0,3 -3,6 -8,5 -12,-1 -24,-2 -36,-3 -5,-1 -9,-4 -9,-8 0,0 0,-1 0,-2 0,-3 4,-6 8,-5zm75 8c12,1 24,2 37,4 4,0 8,3 8,7 0,0 0,1 0,2 0,3 -3,6 -8,5 -12,-1 -24,-2 -36,-4 -5,0 -8,-3 -8,-7 -1,0 -1,-1 -1,-2 0,-3 4,-6 8,-5zm75 8c13,1 25,3 37,4 4,1 8,4 9,7 0,1 0,2 0,2 0,4 -4,6 -8,5 -12,-1 -25,-2 -37,-4 -4,0 -8,-3 -8,-7 0,0 -1,-1 -1,-2 0,-3 4,-6 8,-5zm76 9c12,1 24,3 36,4 5,0 9,4 9,7 0,1 0,2 0,2 0,4 -3,6 -8,5 -12,-1 -24,-3 -36,-4 -5,-1 -9,-4 -9,-7 0,-1 0,-2 0,-2 0,-4 3,-6 8,-5zm75 9c12,1 24,3 37,5 4,0 8,3 8,7 0,0 0,1 0,2 1,3 -3,5 -8,5 -12,-2 -24,-4 -36,-5 -5,-1 -8,-4 -8,-7 -1,-1 -1,-1 -1,-2 0,-3 4,-6 8,-5zm76 10c12,1 24,3 36,5 4,0 8,3 8,7 0,0 1,1 1,2 0,3 -4,5 -8,4 -12,-1 -25,-3 -37,-4 -4,-1 -8,-4 -8,-7 0,-1 0,-2 0,-2 0,-4 3,-6 8,-5zm75 10c12,2 24,4 36,5 5,1 9,4 9,7 0,1 0,2 0,2 0,3 -3,5 -8,5 -12,-2 -24,-4 -36,-5 -5,-1 -9,-4 -9,-7 0,-1 0,-2 0,-2 0,-3 3,-5 8,-5zm75 11c12,2 25,4 37,6 4,0 8,3 8,6 0,1 1,2 1,2 0,4 -4,5 -8,5 -12,-2 -25,-4 -37,-6 -4,0 -8,-3 -9,-7 0,0 0,-1 0,-2 0,-3 4,-5 8,-4zm76 12c12,1 24,3 36,5 5,1 9,4 9,7 0,1 0,2 0,2 0,3 -3,5 -8,4 -12,-2 -24,-4 -36,-5 -5,-1 -9,-4 -9,-7 0,-1 0,-1 0,-2 0,-3 3,-5 8,-4zm75 12c12,2 24,4 37,6 4,0 8,3 8,6 0,1 1,2 1,2 0,3 -4,5 -8,4 -13,-2 -25,-4 -37,-6 -4,0 -8,-3 -8,-6 0,-1 0,-2 0,-2 -1,-3 3,-5 7,-4zm76 12c12,2 24,4 36,6 5,1 8,4 9,7 0,1 0,1 0,2 0,3 -3,5 -8,4 -12,-2 -24,-4 -36,-6 -5,-1 -8,-4 -9,-7 0,-1 0,-1 0,-2 0,-3 3,-5 8,-4zm75 13c12,2 24,4 37,6 4,1 8,4 8,7 0,1 1,1 1,2 0,3 -4,4 -8,4 -12,-3 -25,-5 -37,-7 -4,0 -8,-3 -8,-6 0,-1 0,-2 -1,-2 0,-3 4,-5 8,-4zm76 13c12,2 24,4 36,6 5,1 9,4 9,7 0,1 0,1 0,2 1,3 -3,4 -8,3 -12,-2 -24,-4 -36,-6 -5,-1 -9,-4 -9,-6 0,-1 0,-2 0,-2 0,-3 3,-5 8,-4zm76 25l-1 -12c-4,0 -8,1 -7,4 0,0 0,1 0,2 0,2 4,5 8,6zm-1168 -142c12,1 24,2 36,4 5,0 8,3 9,7 0,1 0,1 0,2 0,4 -4,6 -8,6 -12,-1 -25,-2 -36,-3 -5,-1 -9,-4 -9,-7 0,-1 0,-2 0,-3 0,-3 3,-6 8,-6zm75 7c12,1 24,2 37,3 4,1 8,4 8,8 0,0 0,1 0,2 0,4 -3,6 -8,6 -12,-2 -24,-3 -36,-4 -5,0 -9,-3 -9,-7 0,-1 0,-1 0,-2 0,-4 4,-6 8,-6zm75 7c12,1 25,2 37,4 4,0 8,3 8,7 0,0 0,1 0,2 1,3 -3,6 -7,6 -13,-2 -25,-3 -37,-4 -4,0 -8,-3 -8,-7 0,-1 0,-1 0,-2 -1,-4 3,-6 7,-6zm76 7c12,2 24,3 36,4 5,1 9,4 9,7 0,1 0,2 0,3 0,3 -4,5 -8,5 -12,-1 -24,-2 -36,-4 -5,0 -9,-3 -9,-7 0,0 0,-1 0,-2 0,-4 3,-6 8,-6zm75 8c12,1 24,3 36,4 5,0 9,4 9,7 0,1 0,2 0,2 0,4 -3,6 -8,6 -12,-2 -24,-3 -36,-4 -5,-1 -9,-4 -9,-7 0,-1 0,-2 0,-2 0,-4 4,-6 8,-6zm75 8c13,2 25,3 37,4 4,1 8,4 9,7 0,1 0,2 0,3 0,3 -4,5 -8,5 -12,-2 -25,-3 -37,-4 -4,-1 -8,-4 -8,-7 0,-1 -1,-2 -1,-3 0,-3 4,-5 8,-5zm76 9c12,1 24,3 36,4 5,1 9,4 9,7 0,1 0,2 0,2 0,4 -3,6 -8,5 -12,-1 -24,-3 -36,-4 -5,0 -9,-4 -9,-7 0,-1 0,-1 0,-2 0,-3 4,-6 8,-5zm75 9c12,1 24,3 37,4 4,1 8,4 8,7 0,1 0,2 0,3 1,3 -3,5 -7,4 -13,-1 -25,-3 -37,-4 -4,-1 -8,-4 -8,-7 0,-1 0,-1 0,-2 -1,-3 3,-6 7,-5zm76 10c12,1 24,3 36,4 5,1 9,4 9,7 0,1 0,2 0,2 0,4 -3,6 -8,5 -12,-2 -24,-3 -36,-5 -5,0 -9,-3 -9,-7 0,0 0,-1 0,-2 0,-3 3,-5 8,-4zm75 10c12,1 24,3 37,5 4,1 8,4 8,7 0,0 0,1 0,2 0,3 -3,5 -7,4 -13,-1 -25,-3 -37,-5 -4,0 -8,-4 -9,-7 0,0 0,-1 0,-2 0,-3 4,-5 8,-4zm76 11c12,1 24,3 36,5 5,1 9,4 9,7 0,0 0,1 0,2 0,3 -3,5 -8,4 -12,-2 -24,-4 -36,-5 -5,-1 -9,-4 -9,-7 0,-1 0,-1 0,-2 0,-3 3,-5 8,-4zm75 11c12,2 25,3 37,5 4,1 8,4 8,7 0,1 1,2 1,2 0,3 -4,5 -8,4 -12,-2 -25,-3 -37,-5 -4,-1 -8,-4 -8,-7 0,-1 0,-1 0,-2 -1,-3 3,-5 7,-4zm76 12c12,2 24,3 36,5 5,1 9,4 9,7 0,1 0,1 0,2 0,3 -3,5 -8,4 -12,-2 -24,-4 -36,-6 -5,0 -9,-3 -9,-6 0,-1 0,-2 0,-2 0,-3 3,-5 8,-4zm75 12c13,2 25,4 37,6 4,1 8,3 9,6 0,1 0,2 0,2 0,3 -3,5 -8,4 -12,-2 -24,-4 -36,-6 -5,-1 -9,-3 -9,-6 0,-1 -1,-2 -1,-2 0,-3 4,-5 8,-4zm76 12c12,2 24,4 36,6 5,1 9,4 9,7 0,0 0,1 0,2 0,2 -3,4 -7,3 -13,-2 -25,-4 -37,-6 -4,0 -8,-3 -9,-6 0,-1 0,-1 0,-2 0,-3 4,-5 8,-4zm114 31l-1 -12c-1,0 -1,0 -1,0 -12,-2 -24,-4 -36,-6 -5,-1 -8,1 -8,3 0,1 0,2 0,2 0,3 4,6 9,7 12,2 24,4 36,6l1 0zm-1193 -137l1 16c8,0 15,1 23,2 4,0 8,-3 8,-6 0,-1 0,-2 0,-3 0,-3 -4,-6 -9,-7 -7,0 -15,-1 -23,-2zm62 5c12,2 24,3 37,4 4,0 8,3 8,7 0,1 0,1 0,2 0,4 -3,6 -8,6 -12,-1 -24,-2 -36,-3 -5,-1 -9,-4 -9,-7 0,-1 0,-2 0,-3 0,-3 4,-6 8,-6zm76 7c12,1 24,2 36,3 4,1 8,4 9,7 0,1 0,2 0,3 0,3 -4,6 -8,5 -13,-1 -25,-2 -37,-3 -4,0 -8,-3 -8,-7 0,-1 0,-2 0,-2 -1,-4 3,-6 8,-6zm75 7c12,1 24,2 36,3 5,1 9,4 9,7 0,1 0,2 0,3 0,3 -4,6 -8,5 -12,-1 -24,-2 -36,-3 -5,-1 -9,-4 -9,-7 0,-1 0,-2 0,-3 0,-3 3,-6 8,-5zm75 7c12,1 25,2 37,3 4,1 8,4 8,8 0,0 0,1 0,2 1,3 -3,6 -8,5 -12,-1 -24,-2 -36,-3 -4,-1 -8,-4 -8,-7 0,-1 0,-2 0,-3 -1,-3 3,-5 7,-5zm76 7c12,2 24,3 36,4 5,1 9,4 9,7 0,1 0,2 0,2 0,4 -3,6 -8,6 -12,-2 -24,-3 -36,-4 -5,0 -9,-4 -9,-7 0,-1 0,-2 0,-2 0,-4 3,-6 8,-6zm75 8c12,2 24,3 37,4 4,1 8,4 8,7 0,1 0,2 0,2 1,4 -3,6 -8,5 -12,-1 -24,-2 -36,-3 -5,-1 -8,-4 -9,-7 0,-1 0,-2 0,-2 0,-4 4,-6 8,-6zm76 9c12,1 24,2 36,4 5,0 9,3 9,7 0,1 0,1 0,2 0,3 -4,5 -8,5 -12,-1 -24,-3 -37,-4 -4,-1 -8,-4 -8,-7 0,-1 0,-2 0,-2 0,-4 3,-6 8,-5zm75 9c12,1 24,3 37,4 4,1 8,4 8,7 0,1 0,1 0,2 1,3 -3,5 -8,5 -12,-2 -24,-3 -36,-5 -4,0 -8,-3 -8,-6 -1,-1 -1,-2 -1,-2 0,-4 4,-6 8,-5zm76 9c12,2 24,3 36,5 5,0 8,4 9,7 0,0 0,1 0,2 0,3 -4,5 -8,4 -12,-1 -24,-3 -36,-4 -5,-1 -9,-4 -9,-7 0,-1 0,-1 0,-2 0,-3 3,-6 8,-5zm75 10c12,2 24,4 37,5 4,1 8,4 8,7 0,1 0,1 0,2 1,3 -3,5 -7,5 -13,-2 -25,-4 -37,-5 -5,-1 -8,-4 -9,-7 0,-1 0,-2 0,-2 0,-4 4,-5 8,-5zm76 11c12,2 24,3 36,5 5,1 9,4 9,7 0,0 0,1 0,2 0,3 -3,5 -8,4 -12,-2 -24,-3 -36,-5 -5,-1 -9,-4 -9,-7 0,0 0,-1 0,-2 0,-3 3,-5 8,-4zm75 11c12,2 24,3 37,5 5,1 8,4 9,7 0,1 0,1 0,2 0,3 -4,5 -8,4 -12,-2 -25,-4 -37,-5 -4,-1 -8,-4 -8,-7 0,-1 0,-1 0,-2 -1,-3 3,-5 7,-4zm76 11c12,2 24,4 37,6 4,1 8,3 8,6 0,1 0,2 0,2 1,3 -3,5 -8,4 -12,-1 -24,-3 -36,-5 -4,-1 -8,-4 -9,-7 0,0 0,-1 0,-2 0,-3 3,-4 8,-4zm76 12c12,2 24,4 36,6 5,1 9,3 9,6 0,1 0,2 0,2 0,3 -3,5 -8,4 -12,-2 -24,-4 -36,-6 -5,0 -9,-3 -9,-6 0,-1 0,-1 0,-2 0,-3 3,-5 8,-4zm75 12c12,2 24,4 37,6 4,1 8,3 9,6 0,1 0,2 0,2 0,3 -4,5 -8,4 -13,-2 -25,-4 -37,-6 -4,-1 -8,-3 -8,-6 0,-1 -1,-2 -1,-2 0,-3 4,-5 8,-4zm75 24l-1 -12c-3,0 -6,1 -6,4 0,1 0,1 0,2 0,2 4,5 7,6zm-1169 -128c13,1 24,2 37,3 4,0 8,4 8,7 0,1 0,2 0,2 0,4 -3,7 -8,6 -12,-1 -24,-2 -36,-2 -5,-1 -8,-4 -8,-8 0,0 0,-1 0,-2 -1,-4 3,-6 7,-6zm76 6c12,1 24,2 36,3 5,1 9,4 9,7 0,1 0,2 0,3 0,3 -3,6 -8,5 -12,-1 -24,-2 -36,-3 -5,0 -9,-3 -9,-7 0,0 0,-1 0,-2 0,-4 3,-6 8,-6zm75 7c12,1 24,2 37,3 4,0 8,3 8,7 0,1 0,1 0,2 0,4 -3,6 -8,6 -12,-1 -24,-2 -36,-3 -5,-1 -8,-4 -8,-7 0,-1 0,-2 0,-3 -1,-3 3,-6 7,-5zm76 6c12,1 24,2 36,3 5,1 9,4 9,7 0,1 0,2 0,3 0,3 -4,6 -8,5 -12,-1 -25,-2 -37,-3 -4,0 -8,-3 -8,-7 0,-1 0,-1 0,-2 0,-4 3,-6 8,-6zm75 7c12,1 24,2 36,3 5,1 9,4 9,7 0,1 0,2 0,3 0,3 -3,5 -8,5 -12,-1 -24,-2 -36,-3 -5,-1 -8,-4 -9,-7 0,-1 0,-2 0,-2 0,-4 4,-6 8,-6zm76 7c12,2 24,3 36,4 5,0 8,4 9,7 0,1 0,2 0,2 0,4 -3,6 -8,6 -12,-2 -24,-3 -37,-4 -4,-1 -8,-4 -8,-7 0,-1 0,-2 0,-2 -1,-4 3,-6 8,-6zm75 8c12,1 24,3 37,4 4,1 8,4 8,7 0,1 0,1 0,2 1,3 -3,6 -8,5 -12,-1 -24,-2 -36,-4 -5,0 -9,-3 -9,-6 0,-1 0,-2 0,-3 0,-3 4,-5 8,-5zm76 8c12,2 24,3 36,4 5,1 9,4 9,7 0,1 0,2 0,2 0,4 -4,6 -8,5 -12,-1 -24,-2 -37,-4 -4,0 -8,-3 -8,-7 0,0 0,-1 0,-2 0,-3 3,-5 8,-5zm75 9c12,1 24,3 37,4 4,1 8,4 8,7 0,1 0,2 0,2 1,3 -3,5 -7,5 -13,-1 -25,-3 -37,-4 -5,-1 -8,-4 -9,-7 0,-1 0,-1 0,-2 0,-3 4,-6 8,-5zm76 9c12,2 24,3 36,5 5,1 8,4 9,7 0,0 0,1 0,2 0,3 -3,5 -8,4 -12,-1 -24,-3 -37,-4 -4,-1 -8,-4 -8,-7 0,-1 0,-1 0,-2 0,-3 3,-5 8,-5zm75 10c12,2 25,4 37,5 4,1 8,4 8,7 0,0 1,1 1,2 0,3 -4,5 -8,4 -12,-1 -24,-3 -37,-5 -4,0 -8,-3 -8,-6 0,-1 -1,-2 -1,-2 0,-3 4,-5 8,-5zm76 11c12,1 24,3 36,5 5,0 9,3 9,6 0,1 0,2 0,2 1,3 -3,5 -8,4 -12,-1 -24,-3 -36,-5 -5,0 -8,-3 -9,-6 0,-1 0,-1 0,-2 0,-3 4,-5 8,-4zm76 10c12,2 24,4 36,6 5,0 8,3 9,6 0,1 0,2 0,2 0,3 -3,5 -8,4 -12,-2 -24,-3 -36,-5 -5,-1 -9,-4 -9,-7 0,0 0,-1 0,-2 0,-3 3,-4 8,-4zm75 11c12,2 25,4 37,6 4,1 8,3 8,6 0,1 0,1 1,2 0,3 -4,5 -8,4 -13,-2 -25,-3 -37,-5 -4,-1 -8,-4 -8,-7 0,0 -1,-1 -1,-2 0,-3 4,-4 8,-4zm76 12c12,2 24,4 36,5 5,1 9,4 9,7 0,0 0,1 0,1 1,3 -3,5 -7,4 -13,-2 -25,-3 -37,-5 -5,-1 -8,-4 -9,-6 0,-1 0,-2 0,-2 0,-3 3,-5 8,-4zm113 29l-1 -12c-12,-2 -24,-4 -36,-6 -5,0 -8,1 -8,4 0,1 0,1 0,2 0,3 4,5 9,6 12,2 24,4 36,6zm-1192 -125l1 16c7,0 14,1 21,1 5,1 8,-2 8,-6 0,0 0,-1 0,-2 0,-4 -4,-7 -8,-7 -8,-1 -15,-1 -22,-2zm61 5c12,1 24,2 36,3 5,0 8,3 9,7 0,1 0,1 0,2 0,4 -3,6 -8,6 -12,-1 -24,-2 -37,-3 -4,0 -8,-3 -8,-7 0,-1 0,-1 0,-2 -1,-4 3,-7 8,-6zm75 6c12,1 24,2 36,3 5,0 9,3 9,7 0,1 0,1 0,2 0,4 -3,6 -8,6 -12,-1 -24,-2 -36,-3 -5,0 -9,-4 -9,-7 0,-1 0,-2 0,-3 0,-3 4,-6 8,-5zm76 6c12,1 24,2 36,3 5,0 8,4 9,7 0,1 0,2 0,2 0,4 -4,6 -8,6 -12,-1 -25,-2 -37,-3 -4,0 -8,-3 -8,-7 0,-1 0,-2 0,-2 -1,-4 3,-7 8,-6zm75 7c12,1 24,2 36,3 5,0 9,3 9,7 0,0 0,1 0,2 0,3 -3,6 -8,5 -12,-1 -24,-2 -36,-3 -5,0 -9,-3 -9,-7 0,0 0,-1 0,-2 0,-3 3,-6 8,-5zm75 6c13,1 25,2 37,4 5,0 8,3 9,6 0,1 0,2 0,3 0,3 -4,5 -8,5 -12,-1 -25,-2 -37,-3 -4,0 -8,-4 -8,-7 0,-1 -1,-2 -1,-2 0,-4 4,-6 8,-6zm76 7c12,1 24,3 36,4 5,0 9,3 9,7 0,0 0,1 0,2 1,3 -3,6 -8,5 -12,-1 -24,-2 -36,-3 -5,-1 -9,-4 -9,-7 0,-1 0,-2 0,-2 0,-4 4,-6 8,-6zm76 8c12,1 24,2 36,4 5,0 8,3 9,6 0,1 0,2 0,2 0,4 -4,6 -8,6 -12,-2 -25,-3 -37,-4 -4,-1 -8,-4 -8,-7 0,-1 0,-1 0,-2 -1,-3 3,-6 8,-5zm75 8c12,1 24,2 37,4 4,0 8,3 8,7 0,0 0,1 0,2 0,3 -3,5 -8,5 -12,-2 -24,-3 -36,-4 -4,-1 -8,-4 -9,-7 0,-1 0,-2 0,-2 0,-4 4,-6 8,-5zm76 8c12,2 24,3 36,5 5,0 8,3 9,6 0,1 0,2 0,2 0,4 -3,6 -8,5 -12,-1 -24,-3 -36,-4 -5,-1 -9,-4 -9,-7 0,0 0,-1 0,-2 -1,-3 3,-5 8,-5zm75 9c12,2 25,4 37,5 4,1 8,4 9,7 0,0 0,1 0,2 0,3 -4,5 -8,4 -12,-1 -25,-3 -37,-4 -4,-1 -8,-4 -9,-7 0,0 0,-1 0,-2 0,-3 4,-5 8,-5zm76 10c12,2 24,3 37,5 4,0 8,3 8,7 0,0 0,1 0,2 1,3 -3,5 -8,4 -12,-2 -24,-3 -36,-5 -5,0 -9,-3 -9,-6 0,-1 0,-2 0,-2 0,-3 3,-5 8,-5zm76 10c12,2 24,4 36,5 5,1 9,4 9,7 0,0 0,1 0,2 0,3 -3,5 -8,4 -12,-2 -24,-3 -36,-5 -5,0 -9,-3 -9,-6 0,-1 0,-2 0,-2 0,-4 3,-5 8,-5zm75 11c13,2 25,3 37,5 4,1 8,3 8,6 0,1 1,2 1,2 0,3 -4,5 -8,4 -12,-1 -25,-3 -37,-5 -4,0 -8,-3 -8,-6 0,-1 0,-1 -1,-2 0,-3 4,-5 8,-4zm76 11c12,1 24,3 37,5 4,0 8,3 8,6 0,1 0,1 0,2 1,3 -3,5 -7,4 -13,-2 -25,-3 -37,-5 -5,-1 -9,-4 -9,-7 0,0 0,-1 0,-1 0,-3 3,-5 8,-4zm76 10c12,2 24,4 36,6 5,0 9,3 9,6 0,1 0,1 0,2 0,3 -3,4 -8,4 -12,-2 -24,-4 -36,-6 -5,0 -9,-3 -9,-6 0,0 0,-1 0,-2 0,-2 3,-4 8,-4zm75 23l-1 -12c-4,0 -7,2 -6,4 0,1 0,2 0,2 0,3 3,5 7,6zm-1170 -114c12,1 24,2 36,3 5,0 9,3 9,7 0,0 0,1 0,2 0,4 -3,6 -8,6 -12,-1 -24,-2 -36,-3 -5,0 -9,-3 -9,-7 0,-1 0,-1 0,-2 0,-4 3,-7 8,-6zm76 5c12,1 24,2 36,3 4,0 8,4 8,7 1,1 1,2 1,3 0,3 -4,6 -8,5 -12,0 -25,-1 -37,-2 -4,-1 -8,-4 -8,-7 -1,-1 -1,-2 -1,-3 0,-3 4,-6 9,-6zm75 6c12,1 24,2 36,3 5,0 9,3 9,7 0,1 0,2 0,2 0,4 -3,6 -8,6 -12,-1 -24,-2 -36,-3 -5,0 -9,-3 -9,-7 0,0 0,-1 0,-2 0,-4 3,-6 8,-6zm75 6c13,1 24,2 37,3 4,0 8,4 8,7 0,1 0,2 1,2 0,4 -4,6 -8,6 -13,-1 -25,-2 -37,-3 -4,0 -8,-4 -8,-7 0,-1 0,-1 0,-2 -1,-4 3,-6 7,-6zm76 6c12,1 24,2 36,3 5,1 9,4 9,7 0,1 0,2 0,2 0,4 -3,6 -8,6 -12,-1 -24,-2 -36,-3 -5,0 -9,-3 -9,-7 0,-1 0,-1 0,-2 0,-4 3,-6 8,-6zm76 7c12,1 24,2 36,3 5,0 8,3 9,7 0,1 0,1 0,2 0,3 -4,6 -8,5 -12,-1 -25,-2 -37,-3 -4,0 -8,-3 -8,-7 -1,0 -1,-1 -1,-2 0,-3 4,-6 9,-5zm75 7c12,1 24,2 37,3 4,0 8,3 8,7 0,0 0,1 0,2 1,3 -3,6 -8,5 -12,-1 -24,-2 -36,-3 -5,-1 -9,-4 -9,-7 0,-1 0,-1 0,-2 0,-3 4,-6 8,-5zm75 7c13,1 25,2 37,3 5,1 8,4 9,7 0,1 0,2 0,2 0,4 -4,6 -8,5 -13,-1 -25,-2 -37,-3 -4,-1 -8,-4 -8,-7 0,-1 0,-1 0,-2 0,-3 3,-6 7,-5zm76 8c12,1 24,2 37,4 4,0 8,3 8,6 0,1 0,2 0,2 1,3 -3,6 -8,5 -12,-1 -24,-2 -36,-3 -5,-1 -8,-4 -9,-7 0,-1 0,-2 0,-2 0,-4 4,-6 8,-5zm76 8c12,1 24,3 36,4 5,1 9,4 9,7 0,1 0,1 0,2 0,3 -3,5 -8,5 -12,-2 -24,-3 -37,-4 -4,-1 -8,-4 -8,-7 0,-1 0,-1 0,-2 0,-3 3,-5 8,-5zm76 9c12,2 24,3 36,5 4,0 8,3 8,6 1,1 1,1 1,2 0,3 -4,5 -8,5 -12,-2 -25,-3 -37,-5 -4,0 -8,-3 -8,-6 0,-1 0,-2 0,-2 -1,-4 3,-5 8,-5zm75 9c12,2 24,3 37,5 4,1 8,4 8,7 0,0 0,1 0,2 1,3 -3,5 -8,4 -12,-2 -24,-3 -36,-5 -5,0 -8,-3 -9,-6 0,-1 0,-2 0,-2 0,-3 4,-5 8,-5zm76 10c12,2 24,3 37,5 4,1 8,4 8,6 0,1 0,2 0,2 0,3 -3,5 -8,5 -12,-2 -24,-4 -36,-5 -5,-1 -9,-4 -9,-7 0,0 0,-1 0,-1 0,-3 3,-5 8,-5zm75 10c13,2 25,4 37,5 5,1 9,4 9,7 0,0 0,1 0,1 0,3 -4,5 -8,5 -12,-2 -25,-4 -37,-5 -4,-1 -8,-4 -8,-7 0,0 0,-1 0,-2 -1,-3 3,-4 7,-4zm76 11c12,1 25,3 37,5 4,0 8,3 9,6 0,0 0,1 0,2 0,2 -4,4 -8,4 -13,-2 -25,-4 -37,-5 -5,-1 -8,-4 -9,-7 0,0 0,-1 0,-1 0,-3 4,-5 8,-4zm113 27l0 -12c-13,-2 -25,-3 -37,-5 -5,-1 -8,1 -8,4 0,1 0,1 0,2 0,3 4,5 9,6 12,2 24,3 36,5l0 0zm-1191 -109l1 16c7,0 13,1 20,1 5,0 8,-2 8,-6 0,-1 0,-1 0,-2 0,-4 -4,-7 -9,-7 -7,-1 -13,-1 -20,-2zm59 4c12,1 25,2 37,3 4,0 8,3 8,7 0,1 0,1 0,2 1,4 -3,6 -7,6 -13,-1 -25,-1 -37,-2 -4,-1 -8,-4 -9,-7 0,-1 0,-2 0,-3 0,-3 4,-6 8,-6zm76 6c12,1 24,1 36,2 5,1 9,4 9,7 0,1 0,2 0,2 0,4 -4,7 -8,6 -12,0 -24,-1 -36,-2 -5,0 -9,-4 -9,-7 0,-1 0,-2 0,-3 0,-3 3,-6 8,-5zm75 5c12,1 25,2 37,3 4,0 8,3 8,7 0,0 1,1 1,2 0,4 -4,6 -8,6 -13,-1 -25,-2 -37,-3 -4,0 -8,-3 -8,-7 0,-1 0,-1 -1,-2 0,-4 4,-6 8,-6zm76 6c12,1 24,2 36,3 5,0 9,3 9,7 0,0 0,1 0,2 0,3 -3,6 -8,5 -12,0 -24,-1 -36,-2 -5,-1 -9,-4 -9,-7 0,-1 0,-2 0,-3 0,-3 3,-5 8,-5zm75 6c13,1 25,2 37,3 4,0 8,3 9,7 0,0 0,1 0,2 0,3 -4,6 -8,5 -12,-1 -25,-1 -37,-2 -4,-1 -8,-4 -8,-8 0,0 -1,-1 -1,-2 0,-3 4,-6 8,-5zm76 6c12,1 24,2 36,3 5,0 9,4 9,7 0,1 0,1 0,2 0,3 -3,6 -8,5 -12,-1 -24,-2 -36,-3 -5,0 -9,-3 -9,-6 0,-1 0,-2 0,-3 0,-3 3,-6 8,-5zm76 7c12,1 24,2 36,3 5,1 8,3 9,7 0,0 0,1 0,2 0,3 -4,5 -8,5 -12,-1 -25,-2 -37,-3 -4,-1 -8,-4 -8,-7 0,-1 0,-1 0,-2 -1,-3 3,-6 8,-5zm75 7c12,1 24,2 37,3 4,1 8,4 8,7 0,1 0,1 0,2 0,3 -3,6 -8,5 -12,-1 -24,-2 -36,-3 -5,-1 -8,-4 -9,-7 0,-1 0,-1 0,-2 0,-3 4,-6 8,-5zm76 7c12,2 24,3 36,4 5,1 9,4 9,7 0,0 0,1 0,2 0,3 -3,5 -8,5 -12,-2 -24,-3 -36,-4 -5,0 -9,-3 -9,-7 0,0 0,-1 0,-2 0,-3 3,-5 8,-5zm75 9c13,1 25,2 37,4 5,0 8,3 8,6 1,1 1,2 1,2 0,3 -4,5 -8,5 -13,-1 -25,-3 -37,-4 -4,-1 -8,-4 -9,-7 0,0 0,-1 0,-2 0,-3 4,-5 8,-4zm76 8c12,2 24,3 37,4 4,1 8,4 8,7 0,1 0,1 0,2 1,3 -3,5 -8,5 -12,-2 -24,-3 -36,-5 -5,0 -9,-3 -9,-6 0,-1 0,-1 0,-2 0,-3 4,-5 8,-5zm76 9c12,2 24,3 36,5 5,0 9,3 9,6 0,1 0,1 0,2 0,3 -3,5 -8,4 -12,-1 -24,-2 -37,-4 -4,-1 -8,-3 -8,-6 0,-1 0,-2 0,-2 0,-3 3,-5 8,-5zm76 10c12,1 24,3 36,4 5,1 8,4 9,7 0,0 0,1 0,2 0,2 -4,4 -8,4 -13,-2 -25,-3 -37,-5 -4,0 -8,-3 -8,-6 0,-1 0,-1 0,-2 -1,-3 3,-5 8,-4zm75 9c12,2 25,3 37,5 4,1 8,4 8,6 0,1 0,2 0,2 1,3 -3,5 -7,4 -13,-1 -25,-3 -37,-4 -5,-1 -9,-4 -9,-7 0,0 0,-1 0,-1 0,-3 4,-5 8,-5zm76 10c12,2 24,3 36,5 5,1 9,3 9,6 0,1 0,2 0,2 0,3 -3,4 -8,4 -12,-2 -24,-3 -36,-5 -5,0 -9,-3 -9,-6 0,0 0,-1 0,-2 0,-2 3,-4 8,-4zm75 22l-1 -12c-4,0 -6,2 -6,4 0,1 0,1 0,2 0,2 3,5 7,6zm-1170 -100c12,0 24,1 36,2 5,0 8,3 9,7 0,1 0,2 0,2 0,4 -4,7 -8,6 -12,0 -25,-1 -37,-2 -4,0 -8,-3 -8,-7 0,-1 0,-2 0,-2 0,-4 3,-7 8,-6zm75 4c12,1 24,2 37,3 4,0 8,3 8,7 0,1 0,2 0,2 0,4 -3,7 -7,6 -13,0 -25,-1 -37,-2 -5,0 -9,-4 -9,-7 0,-1 0,-2 0,-3 0,-3 4,-6 8,-6zm75 6c13,1 25,1 37,2 5,1 9,4 9,7 0,1 0,2 0,2 0,4 -4,7 -8,6 -12,-1 -25,-2 -37,-2 -4,-1 -8,-4 -8,-7 0,-1 0,-2 0,-2 0,-4 3,-7 7,-6zm76 5c12,1 24,2 37,2 4,1 8,4 8,7 0,1 0,2 0,2 1,4 -3,6 -8,6 -12,-1 -24,-1 -36,-2 -5,-1 -8,-4 -9,-7 0,-1 0,-2 0,-2 0,-4 4,-6 8,-6zm76 5c12,1 24,2 36,3 5,0 9,3 9,7 0,1 0,1 0,2 0,3 -4,6 -8,5 -12,0 -25,-1 -36,-2 -5,0 -9,-3 -9,-7 0,-1 0,-1 0,-2 0,-4 3,-6 8,-6zm75 6c13,1 25,2 37,3 4,0 8,3 8,6 0,1 0,2 0,3 1,3 -3,5 -7,5 -13,-1 -25,-2 -37,-3 -4,0 -8,-3 -9,-6 0,-1 0,-2 0,-3 0,-3 4,-5 8,-5zm76 6c12,1 24,2 36,3 5,0 9,3 9,7 0,0 0,1 0,2 0,3 -3,5 -8,5 -12,-1 -24,-2 -36,-3 -5,0 -9,-3 -9,-7 0,0 0,-1 0,-2 0,-3 3,-5 8,-5zm75 6c13,1 25,2 37,3 5,1 8,4 9,7 0,1 0,2 0,2 0,3 -4,6 -8,5 -13,-1 -25,-2 -37,-3 -4,0 -8,-3 -8,-6 0,-1 0,-2 0,-3 -1,-3 3,-5 7,-5zm76 7c12,1 24,2 37,4 4,0 8,3 8,6 0,1 0,2 0,2 0,3 -3,6 -8,5 -12,-1 -24,-2 -36,-3 -5,-1 -9,-4 -9,-7 0,0 0,-1 0,-2 0,-3 4,-5 8,-5zm76 7c12,2 24,3 36,4 5,1 9,4 9,7 0,1 0,1 0,2 0,3 -4,5 -8,5 -12,-2 -25,-3 -37,-4 -4,-1 -8,-3 -8,-7 0,0 0,-1 0,-2 -1,-3 3,-5 8,-5zm75 9c12,1 25,2 37,4 4,0 8,3 9,6 0,1 0,1 0,2 0,3 -4,5 -8,5 -13,-2 -25,-3 -37,-4 -4,-1 -8,-4 -9,-7 0,0 0,-1 0,-2 0,-3 4,-5 8,-4zm76 8c12,1 24,3 36,4 5,1 9,3 9,7 0,0 0,1 0,1 1,3 -3,5 -8,5 -12,-1 -24,-3 -36,-4 -5,-1 -9,-3 -9,-7 0,0 0,-1 0,-2 0,-3 3,-5 8,-4zm76 9c12,1 24,3 36,4 5,1 9,3 9,6 0,1 0,2 0,2 0,3 -3,5 -8,5 -12,-2 -24,-3 -36,-5 -5,0 -9,-3 -9,-6 0,-1 0,-1 0,-2 0,-3 3,-5 8,-4zm75 9c13,1 25,3 37,4 5,1 8,3 9,6 0,1 -1,2 0,2 0,3 -4,5 -8,4 -13,-1 -25,-2 -37,-4 -4,0 -8,-3 -9,-6 0,-1 0,-1 0,-2 0,-3 4,-5 8,-4zm76 9c12,2 25,3 37,5 4,0 8,3 8,6 0,0 0,1 0,1 1,3 -3,5 -8,4 -12,-1 -24,-3 -36,-4 -5,-1 -9,-3 -9,-6 0,-1 0,-1 0,-2 0,-3 4,-5 8,-4zm114 26l-1 -12c0,0 0,0 -1,0 -12,-2 -24,-3 -36,-5 -5,0 -8,2 -8,4 0,1 0,2 0,2 0,3 4,6 9,6 12,2 24,3 36,5 0,0 1,0 1,0zm-1192 -95l1 16c7,0 13,1 20,1 4,0 8,-3 8,-6 0,-1 0,-2 -1,-3 0,-3 -4,-6 -8,-7 -7,0 -13,0 -20,-1zm59 4c12,1 24,1 36,2 5,0 9,4 9,7 0,1 0,2 0,2 0,4 -3,7 -8,6 -12,0 -24,-1 -36,-2 -5,0 -9,-3 -9,-7 0,0 0,-1 0,-2 0,-4 3,-6 8,-6zm75 5c13,0 25,1 37,2 4,0 8,3 9,7 0,1 0,1 0,2 0,3 -4,6 -8,6 -13,-1 -25,-1 -37,-2 -4,0 -8,-4 -8,-7 0,-1 0,-2 0,-2 0,-4 3,-7 7,-6zm76 4c12,1 24,2 36,3 5,0 9,3 9,7 0,0 0,1 0,2 0,3 -3,6 -8,6 -12,-1 -24,-2 -36,-3 -5,0 -8,-3 -9,-7 0,0 0,-1 0,-2 0,-3 3,-6 8,-6zm76 5c12,1 24,2 36,3 5,0 8,3 9,6 0,1 0,2 0,3 0,3 -4,6 -8,5 -12,0 -25,-1 -37,-2 -4,0 -8,-3 -8,-7 0,-1 0,-1 0,-2 0,-4 3,-6 8,-6zm75 5c12,1 24,2 37,3 4,0 8,3 8,7 0,0 0,1 0,2 0,3 -3,6 -8,5 -12,-1 -24,-1 -36,-2 -5,0 -9,-4 -9,-7 0,-1 0,-1 0,-2 0,-4 4,-6 8,-6zm76 6c12,1 24,1 36,2 5,1 9,4 9,7 0,1 0,1 0,2 0,3 -4,6 -8,5 -12,0 -24,-1 -37,-2 -4,0 -8,-3 -8,-7 0,0 0,-1 0,-2 0,-3 3,-6 8,-5zm75 5c12,1 24,2 37,3 4,1 8,4 8,7 0,1 0,1 1,2 0,3 -4,6 -9,5 -12,-1 -24,-2 -36,-3 -5,0 -8,-3 -9,-6 0,-1 0,-1 0,-2 0,-4 4,-6 8,-6zm76 6c12,1 24,3 36,4 5,0 9,3 9,6 0,1 0,2 0,2 0,3 -3,6 -8,6 -12,-2 -24,-3 -36,-4 -5,0 -9,-3 -9,-6 0,-1 0,-2 0,-2 0,-4 3,-6 8,-6zm75 7c12,1 25,2 37,4 4,0 8,3 8,6 0,1 0,2 0,2 1,3 -3,6 -7,5 -13,-1 -25,-2 -37,-3 -4,-1 -8,-3 -8,-7 0,0 -1,-1 -1,-2 0,-3 4,-5 8,-5zm76 7c12,2 24,3 37,4 4,1 8,4 8,7 0,0 0,1 0,2 0,3 -3,5 -8,4 -12,-1 -24,-2 -36,-3 -5,-1 -9,-4 -9,-7 0,0 0,-1 0,-2 0,-3 3,-5 8,-5zm76 8c12,1 24,3 36,4 5,0 9,3 9,6 0,1 0,2 0,2 0,3 -3,5 -8,5 -12,-1 -24,-2 -37,-4 -4,0 -8,-3 -8,-6 0,-1 0,-1 0,-2 0,-3 3,-5 8,-5zm75 8c13,2 25,3 37,4 5,1 8,4 9,7 0,0 0,1 0,1 0,3 -4,5 -8,5 -12,-1 -25,-3 -37,-4 -4,0 -8,-3 -8,-6 0,-1 0,-2 0,-2 -1,-3 3,-5 7,-5zm76 9c12,1 24,2 36,4 5,0 9,3 9,6 0,1 0,1 0,2 1,3 -3,5 -8,4 -12,-1 -24,-2 -36,-4 -5,0 -9,-3 -9,-6 0,-1 0,-1 0,-2 0,-3 4,-5 8,-4zm76 8c12,2 24,3 36,4 5,1 9,4 9,7 0,0 0,1 0,1 0,3 -3,5 -8,5 -12,-2 -24,-3 -36,-5 -5,0 -9,-3 -9,-6 0,0 0,-1 0,-2 0,-2 3,-4 8,-4zm75 9c13,1 25,3 37,4 4,1 9,4 9,6 0,1 0,1 0,2 0,3 -4,5 -8,4 -13,-1 -25,-3 -37,-4 -4,0 -8,-3 -8,-6 0,-1 0,-1 0,-2 0,-3 3,-5 7,-4zm77 21l-1 -12c-5,0 -8,1 -8,4 0,1 1,1 1,2 0,2 3,5 8,6zm-1172 -87c12,1 25,2 37,2 4,1 8,4 8,7 0,1 0,2 0,3 1,3 -3,6 -8,6 -12,-1 -24,-1 -36,-2 -5,0 -8,-4 -9,-7 0,-1 0,-2 0,-3 0,-3 4,-6 8,-6zm76 5c12,0 24,1 36,2 5,0 9,3 9,7 0,1 0,1 0,2 0,4 -3,6 -8,6 -12,0 -24,-1 -36,-2 -5,0 -9,-3 -9,-7 0,-1 0,-2 0,-2 0,-4 3,-7 8,-6zm75 4c12,1 25,2 37,2 4,0 8,4 8,7 0,1 0,2 1,2 0,4 -4,7 -9,6 -12,0 -24,-1 -36,-2 -5,0 -8,-3 -9,-7 0,0 0,-1 0,-2 0,-3 4,-6 8,-6zm76 5c12,0 24,1 36,2 5,0 9,3 9,7 0,0 0,1 0,2 0,3 -4,6 -8,6 -12,-1 -24,-2 -36,-2 -5,-1 -9,-4 -9,-7 0,-1 0,-2 0,-3 0,-3 3,-6 8,-5zm75 4c13,1 25,2 37,2 4,1 8,4 8,7 0,1 0,2 0,2 1,4 -3,6 -7,6 -13,-1 -25,-1 -37,-2 -4,0 -8,-3 -8,-7 0,0 0,-1 0,-2 -1,-4 3,-6 7,-6zm76 5c12,1 24,2 37,2 4,1 8,4 8,7 0,1 0,2 0,2 0,4 -3,6 -8,6 -12,-1 -24,-2 -36,-3 -5,0 -9,-3 -9,-6 0,-1 0,-2 0,-3 0,-3 3,-5 8,-5zm76 5c12,1 24,2 36,3 5,0 8,3 9,6 0,1 0,2 0,2 0,4 -4,6 -8,6 -12,-1 -25,-2 -37,-3 -4,0 -8,-3 -8,-6 0,-1 0,-2 0,-3 -1,-3 3,-5 8,-5zm75 6c12,0 24,1 36,2 5,1 9,4 9,7 0,1 0,1 0,2 0,3 -3,6 -8,5 -12,-1 -24,-2 -36,-2 -5,-1 -9,-4 -9,-7 0,-1 0,-1 0,-2 0,-3 3,-6 8,-5zm76 6c12,1 24,2 36,3 5,0 8,3 9,6 0,1 0,1 0,2 0,3 -4,6 -8,5 -12,-1 -25,-2 -37,-3 -4,0 -8,-3 -8,-6 0,-1 0,-2 0,-2 -1,-4 3,-6 8,-5zm75 6c12,1 24,2 37,3 4,1 8,4 8,7 0,0 0,1 0,2 1,3 -3,5 -7,5 -13,-2 -25,-3 -37,-4 -5,0 -9,-3 -9,-6 0,-1 0,-1 0,-2 0,-3 4,-6 8,-5zm76 7c12,1 24,2 37,4 4,0 8,3 8,6 0,1 0,1 0,2 0,3 -3,5 -8,5 -12,-1 -24,-3 -36,-4 -5,0 -9,-3 -9,-6 0,-1 0,-2 0,-2 0,-3 3,-5 8,-5zm76 7c12,2 24,3 36,4 5,0 9,3 9,6 0,1 0,2 0,2 0,3 -4,5 -8,5 -13,-1 -25,-3 -37,-4 -4,0 -8,-3 -8,-6 0,-1 0,-1 0,-2 0,-3 3,-5 8,-5zm75 8c13,1 25,3 37,4 4,0 8,3 8,6 0,1 0,1 1,2 0,3 -4,5 -9,4 -12,-1 -24,-2 -36,-3 -5,-1 -8,-4 -8,-6 0,-1 -1,-2 -1,-2 0,-3 4,-5 8,-5zm76 8c12,1 24,3 36,4 5,0 9,3 9,6 0,1 0,1 0,2 0,3 -3,5 -8,4 -12,-1 -24,-2 -36,-4 -5,0 -9,-3 -9,-6 0,0 0,-1 0,-2 -1,-2 3,-4 8,-4zm76 8c12,2 24,3 36,4 5,1 9,4 9,6 0,1 0,2 0,2 0,3 -4,5 -8,4 -12,-1 -24,-2 -37,-4 -4,0 -8,-3 -8,-6 0,0 0,-1 0,-2 -1,-2 3,-4 8,-4zm114 24l0 -11c-1,0 -2,0 -2,0 -12,-2 -25,-3 -37,-5 -4,0 -8,2 -8,5 0,0 0,1 0,2 0,2 4,5 9,5 12,2 24,3 37,4 0,0 1,0 1,0zm-1191 -80l1 16c6,0 12,0 18,1 5,0 8,-3 8,-6 0,-1 0,-2 0,-3 0,-3 -4,-6 -8,-7 -7,0 -13,0 -19,-1zm58 3c12,1 24,2 36,2 5,0 8,4 9,7 0,1 0,2 0,3 0,3 -4,6 -8,6 -12,-1 -24,-2 -37,-2 -4,-1 -8,-4 -8,-7 0,-1 0,-2 0,-3 0,-3 3,-6 8,-6zm75 4c12,1 24,2 37,2 4,1 8,4 8,7 0,1 0,2 0,3 0,3 -3,6 -8,6 -12,-1 -24,-2 -36,-2 -5,-1 -9,-4 -9,-7 0,-1 0,-2 0,-3 0,-3 4,-6 8,-6zm76 4c12,1 24,2 36,2 5,1 9,4 9,7 0,1 0,2 0,3 0,3 -4,6 -8,5 -12,0 -25,-1 -37,-2 -4,0 -8,-3 -8,-6 0,-1 0,-2 0,-3 0,-3 3,-6 8,-6zm75 5c12,0 24,1 37,2 4,0 8,3 8,6 0,1 0,2 0,3 0,3 -3,5 -8,5 -12,0 -24,-1 -36,-2 -5,0 -8,-3 -8,-6 -1,-1 -1,-2 -1,-3 0,-3 4,-6 8,-5zm76 4c12,0 24,1 36,2 5,0 9,3 9,7 0,0 0,1 0,2 0,3 -3,6 -8,5 -12,0 -24,-1 -37,-2 -4,0 -8,-3 -8,-6 0,-1 0,-2 0,-3 0,-3 3,-5 8,-5zm75 4c12,1 25,2 37,3 4,0 8,3 8,6 0,1 0,2 1,2 0,4 -4,6 -9,6 -12,-1 -24,-2 -36,-2 -5,-1 -8,-4 -9,-7 0,-1 0,-1 0,-2 0,-3 4,-6 8,-6zm76 5c12,1 24,2 36,3 5,0 9,3 9,6 0,1 0,1 0,2 0,3 -3,6 -8,6 -12,-1 -24,-2 -36,-3 -5,0 -9,-3 -9,-6 0,-1 0,-2 0,-2 0,-4 3,-6 8,-6zm76 5c12,1 24,2 36,3 4,0 8,3 8,6 1,1 1,2 1,3 0,3 -4,5 -8,5 -13,-1 -25,-2 -37,-3 -4,0 -8,-3 -8,-6 0,-1 0,-2 0,-2 -1,-4 3,-6 8,-6zm75 6c12,1 24,2 36,3 5,0 9,3 9,6 0,1 0,2 0,3 0,3 -3,5 -8,5 -12,-1 -24,-2 -36,-3 -5,-1 -9,-4 -9,-7 0,0 0,-1 0,-2 0,-3 3,-5 8,-5zm76 6c12,1 24,3 36,4 5,0 9,3 9,6 0,1 0,1 0,2 0,3 -4,5 -8,5 -12,-1 -25,-2 -37,-3 -4,-1 -8,-4 -8,-7 0,0 0,-1 0,-2 -1,-3 3,-5 8,-5zm75 7c12,1 25,2 37,3 4,1 8,4 8,7 0,0 0,1 1,2 0,3 -4,5 -8,5 -13,-2 -25,-3 -37,-4 -5,0 -8,-3 -9,-6 0,-1 0,-1 0,-2 0,-3 4,-5 8,-5zm76 7c12,1 24,2 37,4 4,0 8,3 8,6 0,1 0,1 0,2 0,3 -3,5 -8,5 -12,-2 -24,-3 -36,-4 -5,0 -8,-3 -9,-6 0,-1 0,-2 0,-2 0,-3 4,-5 8,-5zm76 8c12,1 24,2 36,3 5,1 9,3 9,6 0,1 0,2 0,2 0,3 -3,5 -8,5 -12,-1 -24,-3 -37,-4 -4,0 -8,-3 -8,-6 0,-1 0,-1 0,-2 0,-3 3,-5 8,-4zm75 7c12,1 25,3 37,4 4,0 8,3 8,6 1,0 1,1 1,2 0,2 -4,4 -8,4 -13,-1 -25,-2 -37,-4 -5,0 -8,-3 -9,-6 0,0 0,-1 0,-2 0,-2 4,-4 8,-4zm76 8c12,1 24,2 36,4 5,0 9,3 9,5 0,1 0,2 0,2 0,3 -3,5 -8,4 -12,-1 -24,-2 -36,-3 -5,-1 -9,-3 -9,-6 0,-1 0,-1 0,-2 0,-3 3,-5 8,-4zm77 19l-1 -11 0 0c-5,-1 -8,1 -8,4 0,0 0,1 0,2 0,2 4,5 8,5l1 0zm-1172 -72c12,1 24,1 36,2 5,0 9,3 9,7 0,1 0,2 0,2 0,4 -4,7 -8,6 -12,0 -24,-1 -37,-1 -4,-1 -8,-4 -8,-7 0,-1 0,-2 0,-3 0,-3 3,-6 8,-6zm75 4c12,0 25,1 37,2 4,0 8,3 8,7 0,0 0,1 0,2 0,3 -3,6 -8,6 -12,-1 -24,-1 -36,-2 -5,0 -8,-3 -9,-7 0,0 0,-1 0,-2 0,-4 4,-6 8,-6zm76 4c12,0 24,1 36,1 5,1 9,4 9,7 0,1 0,2 0,2 0,4 -4,7 -8,6 -12,0 -25,-1 -37,-1 -4,0 -8,-3 -8,-7 0,-1 0,-2 0,-2 0,-4 3,-7 8,-6zm75 3c12,1 25,1 37,2 4,0 8,3 8,7 0,1 1,1 1,2 0,4 -4,6 -9,6 -12,-1 -24,-1 -36,-2 -5,0 -9,-3 -9,-6 0,-1 0,-2 0,-3 0,-3 4,-6 8,-6zm76 4c12,1 24,1 36,2 5,0 9,3 9,7 0,0 0,1 0,2 0,3 -4,6 -8,5 -12,0 -24,-1 -36,-1 -5,0 -9,-3 -9,-7 0,-1 0,-1 0,-2 0,-3 3,-6 8,-6zm76 4c12,1 24,1 36,2 5,0 8,3 8,7 0,0 1,1 1,2 0,3 -4,6 -8,5 -13,0 -25,-1 -37,-1 -4,-1 -8,-4 -8,-7 0,-1 0,-2 0,-2 -1,-4 3,-6 8,-6zm75 4c12,1 24,2 36,2 5,1 9,4 9,7 0,1 0,1 0,2 0,3 -3,6 -8,6 -12,-1 -24,-2 -36,-2 -5,-1 -9,-4 -9,-7 0,-1 0,-1 0,-2 0,-4 4,-6 8,-6zm76 5c12,0 24,1 36,2 5,0 8,3 9,7 0,0 0,1 0,2 0,3 -4,5 -8,5 -13,-1 -25,-1 -37,-2 -4,0 -8,-3 -8,-7 0,0 0,-1 0,-2 -1,-3 3,-6 8,-5zm75 5c12,1 24,1 37,2 4,1 8,4 8,7 0,0 0,1 0,2 0,3 -3,5 -8,5 -12,-1 -24,-2 -36,-2 -5,-1 -9,-4 -9,-7 0,0 0,-1 0,-2 0,-3 4,-6 8,-5zm76 5c12,1 24,2 36,3 5,1 9,4 9,7 0,0 0,1 0,2 0,3 -4,5 -8,5 -12,-1 -25,-2 -37,-3 -4,0 -8,-3 -8,-6 0,-1 0,-2 0,-3 0,-3 3,-5 8,-5zm75 7c13,1 25,2 37,3 4,0 8,3 8,6 0,1 0,1 0,2 0,3 -3,5 -8,5 -12,-1 -24,-2 -36,-3 -5,-1 -9,-4 -9,-7 0,0 0,-1 0,-2 0,-3 4,-5 8,-4zm76 6c12,1 24,2 37,3 4,0 8,3 8,6 0,1 0,2 0,2 0,3 -3,5 -8,5 -12,-1 -24,-2 -36,-3 -5,-1 -9,-3 -9,-6 0,-1 0,-2 0,-2 0,-3 4,-5 8,-5zm76 7c12,1 24,2 36,3 5,0 9,3 9,6 0,1 0,1 0,2 0,3 -4,5 -8,5 -12,-2 -25,-3 -37,-4 -4,0 -8,-3 -8,-6 0,0 0,-1 0,-2 0,-3 3,-5 8,-4zm76 6c12,2 24,3 36,4 4,0 8,3 8,6 0,0 0,1 0,2 0,3 -3,5 -8,4 -12,-1 -24,-2 -36,-3 -4,-1 -8,-3 -8,-6 -1,-1 -1,-1 -1,-2 0,-3 4,-5 9,-5zm75 8c12,1 24,2 37,3 4,0 8,3 8,6 0,0 0,1 0,2 0,2 -3,4 -8,4 -12,-1 -24,-2 -36,-3 -5,-1 -9,-3 -9,-6 0,-1 0,-1 0,-2 0,-3 4,-5 8,-4zm116 22l-1 -11c-1,0 -2,-1 -3,-1 -12,-1 -24,-2 -36,-3 -5,-1 -9,1 -8,4 0,1 0,1 0,2 0,3 4,5 8,6 12,1 24,2 37,3 1,0 2,0 3,0zm-1192 -67l1 16c6,0 12,0 18,0 4,0 8,-2 8,-6 -1,-1 -1,-2 -1,-2 0,-4 -3,-7 -8,-7 -6,-1 -12,-1 -18,-1zm57 3c12,0 24,1 37,1 4,0 8,3 8,7 0,1 0,2 0,2 0,4 -3,7 -8,7 -12,-1 -24,-1 -36,-2 -5,0 -9,-3 -9,-7 0,-1 0,-2 0,-2 0,-4 4,-7 8,-6zm75 3c13,1 25,1 37,2 4,0 8,3 8,6 0,1 1,2 1,3 0,3 -4,6 -8,6 -13,-1 -25,-1 -37,-2 -4,0 -8,-3 -8,-7 -1,0 -1,-1 -1,-2 0,-3 4,-6 8,-6zm76 3c12,1 24,1 37,2 4,0 8,3 8,7 0,1 0,1 0,2 0,4 -3,6 -8,6 -12,0 -24,-1 -36,-2 -5,0 -9,-3 -9,-6 0,-1 0,-2 0,-3 0,-3 3,-6 8,-6zm76 4c12,0 24,1 36,1 5,1 8,4 9,7 0,1 0,2 0,2 0,4 -4,6 -8,6 -13,0 -25,-1 -37,-1 -4,0 -8,-4 -8,-7 0,-1 0,-1 0,-2 -1,-4 3,-6 8,-6zm75 3c12,1 24,1 37,2 4,0 8,3 8,7 0,0 0,1 0,2 0,3 -3,6 -8,6 -12,-1 -24,-2 -36,-2 -5,0 -9,-3 -9,-7 0,0 0,-1 0,-2 0,-3 4,-6 8,-6zm76 4c12,1 24,1 36,2 5,0 8,3 8,6 1,1 1,2 1,2 0,4 -4,6 -8,6 -12,-1 -25,-1 -37,-2 -4,0 -8,-3 -8,-6 0,-1 0,-2 0,-2 0,-4 3,-6 8,-6zm75 4c12,0 24,1 37,2 4,0 8,3 8,6 0,1 0,2 0,2 1,4 -3,6 -8,6 -12,-1 -24,-1 -36,-2 -5,0 -9,-3 -9,-6 0,-1 0,-2 0,-3 0,-3 3,-5 8,-5zm76 4c12,1 24,2 36,2 5,1 9,4 9,7 0,0 0,1 0,2 0,3 -4,5 -8,5 -12,-1 -25,-1 -37,-2 -4,0 -8,-3 -8,-6 0,-1 0,-2 0,-3 0,-3 3,-5 8,-5zm75 5c13,1 25,2 37,3 4,0 8,3 8,6 0,0 0,1 0,2 1,3 -3,5 -8,5 -12,-1 -24,-2 -36,-2 -5,-1 -9,-4 -9,-7 0,0 0,-1 0,-2 0,-3 4,-5 8,-5zm76 5c12,1 24,2 36,3 5,0 9,3 9,6 0,1 0,2 0,2 0,3 -3,6 -8,5 -12,-1 -24,-1 -36,-2 -5,-1 -9,-3 -9,-7 0,0 0,-1 0,-2 0,-3 3,-5 8,-5zm76 6c12,1 24,2 36,3 5,0 9,3 9,6 0,1 0,1 0,2 0,3 -4,5 -8,5 -13,-1 -25,-2 -37,-3 -4,0 -8,-3 -8,-6 0,-1 -1,-1 -1,-2 0,-3 4,-5 9,-5zm75 6c12,1 25,2 37,3 4,1 8,3 8,6 0,1 0,2 0,2 1,3 -3,5 -8,5 -12,-1 -24,-2 -36,-3 -5,0 -8,-3 -9,-6 0,-1 0,-2 0,-2 0,-3 4,-5 8,-5zm76 7c12,0 24,2 37,3 4,0 8,3 8,6 0,0 0,1 0,2 0,2 -3,4 -8,4 -12,-1 -24,-2 -36,-3 -5,0 -9,-3 -9,-6 0,-1 0,-1 0,-2 0,-3 4,-5 8,-4zm76 6c12,1 24,2 36,3 5,1 9,3 9,6 0,1 0,1 0,2 0,3 -4,5 -8,4 -13,-1 -25,-2 -37,-3 -5,0 -8,-3 -9,-6 0,0 0,-1 0,-1 0,-3 4,-5 9,-5zm75 7c12,1 24,2 37,3 4,0 8,3 8,6 0,0 0,1 0,1 1,3 -3,5 -8,5 -12,-1 -24,-2 -36,-3 -5,-1 -9,-3 -9,-6 0,-1 0,-1 0,-2 0,-3 4,-5 8,-4zm79 18l-1 -11 -2 -1c-5,0 -8,2 -8,5 0,0 0,1 0,1 0,3 4,6 8,6l3 0zm-1174 -58c12,0 24,1 37,1 4,0 8,4 8,7 0,1 0,2 0,3 0,3 -3,6 -8,6 -12,-1 -24,-1 -36,-2 -5,0 -9,-3 -9,-7 0,-1 0,-1 0,-2 0,-4 4,-6 8,-6zm76 3c12,0 24,1 36,1 5,1 8,4 8,7 0,1 1,2 1,3 0,3 -4,6 -8,6 -12,-1 -25,-1 -37,-2 -4,0 -8,-3 -8,-7 0,0 0,-1 0,-2 -1,-4 3,-6 8,-6zm75 3c12,1 24,1 36,1 5,1 9,4 9,7 0,1 0,2 0,2 0,4 -3,7 -8,6 -12,0 -24,0 -36,-1 -5,0 -9,-3 -9,-7 0,0 0,-1 0,-2 0,-3 3,-6 8,-6zm76 3c12,0 24,1 36,1 5,1 8,4 9,7 0,1 0,2 0,2 0,4 -4,6 -8,6 -12,0 -25,-1 -37,-1 -4,0 -8,-3 -8,-7 0,0 0,-1 0,-2 -1,-3 3,-6 8,-6zm75 3c12,0 24,1 37,1 4,1 8,4 8,7 0,1 0,1 0,2 0,4 -3,6 -8,6 -12,0 -24,-1 -36,-1 -5,0 -9,-3 -9,-7 0,-1 0,-1 0,-2 0,-3 4,-6 8,-6zm76 3c12,1 24,1 36,2 5,0 9,3 9,6 0,1 0,2 0,2 0,4 -4,6 -8,6 -12,0 -24,-1 -37,-1 -4,-1 -8,-4 -8,-7 0,-1 0,-1 0,-2 0,-3 3,-6 8,-6zm75 3c12,1 24,1 37,2 4,0 8,3 8,6 0,1 0,2 0,3 0,3 -3,5 -8,5 -12,0 -24,-1 -36,-1 -4,0 -8,-3 -8,-7 -1,0 -1,-1 -1,-2 0,-3 4,-6 8,-6zm76 4c12,1 24,1 36,2 5,0 9,3 9,6 0,1 0,2 0,3 0,3 -4,5 -8,5 -12,-1 -24,-1 -36,-2 -5,0 -9,-3 -9,-6 0,-1 0,-2 0,-2 0,-4 3,-6 8,-6zm75 4c13,1 25,1 37,2 4,1 8,3 8,7 0,0 0,1 0,2 0,3 -3,5 -8,5 -12,-1 -24,-1 -36,-2 -5,0 -8,-3 -8,-6 0,-1 -1,-2 -1,-3 0,-3 4,-5 8,-5zm76 5c12,0 24,1 36,2 5,0 9,3 9,6 0,1 0,2 0,2 0,4 -3,6 -8,6 -12,-1 -24,-2 -36,-3 -5,0 -9,-3 -9,-6 0,-1 0,-1 0,-2 0,-3 3,-6 8,-5zm76 5c12,1 24,2 36,3 5,0 9,3 9,6 0,0 0,1 0,2 0,3 -4,5 -8,5 -12,-1 -25,-2 -37,-3 -4,0 -8,-3 -8,-6 0,-1 0,-1 0,-2 -1,-3 3,-5 8,-5zm75 5c12,1 24,2 37,3 4,0 8,3 8,6 0,1 0,1 0,2 1,3 -3,5 -8,5 -12,-1 -24,-2 -36,-3 -5,0 -8,-3 -8,-6 -1,0 -1,-1 -1,-2 0,-3 4,-5 8,-5zm76 6c12,1 24,2 37,3 4,0 8,3 8,6 0,1 0,1 0,2 0,3 -3,5 -8,4 -12,0 -24,-1 -36,-2 -5,-1 -9,-3 -9,-6 0,-1 0,-2 0,-2 0,-3 3,-5 8,-5zm76 6c12,1 24,2 36,3 5,0 8,3 9,6 0,0 0,1 0,2 0,2 -4,4 -8,4 -13,-1 -25,-2 -37,-3 -4,0 -8,-3 -8,-5 0,-1 0,-2 0,-2 -1,-3 3,-6 8,-5zm75 6c13,1 25,2 37,3 4,0 8,3 8,6 0,0 0,1 0,2 0,2 -3,4 -8,4 -12,-1 -24,-2 -36,-3 -5,0 -8,-3 -9,-6 0,0 0,-1 0,-2 0,-2 4,-4 8,-4zm117 20l0 -10c-2,0 -3,-1 -5,-1 -12,-1 -24,-2 -36,-3 -5,0 -8,2 -8,4 0,1 0,2 0,2 0,3 4,6 8,6 13,1 25,2 37,3 2,0 3,0 4,-1zm-1191 -51l1 15c5,1 10,1 16,1 4,0 8,-3 8,-6 0,-1 0,-2 0,-3 0,-3 -4,-6 -9,-6 -5,-1 -11,-1 -16,-1zm55 2c12,0 25,1 37,1 4,1 8,4 8,7 0,1 0,2 0,3 1,3 -3,6 -7,6 -13,-1 -25,-1 -37,-2 -4,0 -9,-3 -9,-6 0,-1 0,-2 0,-3 0,-3 4,-6 8,-6zm76 3c12,0 24,1 36,1 5,0 9,3 9,7 0,1 0,1 0,2 0,4 -4,7 -8,6 -12,0 -24,0 -36,-1 -5,0 -9,-3 -9,-7 0,0 0,-1 0,-2 0,-3 3,-6 8,-6zm75 2c12,1 25,1 37,2 5,0 9,3 9,6 0,1 0,2 0,3 0,3 -4,6 -8,6 -13,-1 -25,-1 -37,-2 -5,0 -8,-3 -9,-6 0,-1 0,-2 0,-2 0,-4 4,-7 8,-7zm76 3c12,1 24,1 36,1 5,1 9,4 9,7 0,1 0,1 0,2 0,4 -3,6 -8,6 -12,0 -24,0 -36,-1 -5,0 -9,-3 -9,-7 0,0 0,-1 0,-2 0,-3 3,-6 8,-6zm76 3c12,0 24,1 36,1 4,0 8,3 8,6 0,1 1,2 1,3 0,3 -4,6 -8,6 -12,-1 -25,-1 -37,-1 -4,-1 -8,-4 -8,-7 0,-1 0,-2 0,-2 -1,-4 3,-6 8,-6zm75 3c12,0 24,1 36,1 5,0 9,3 9,6 0,1 0,2 0,3 0,3 -3,5 -8,5 -12,0 -24,0 -36,-1 -5,0 -9,-3 -9,-6 0,-1 0,-2 0,-3 0,-3 3,-6 8,-5zm75 3c13,0 25,1 37,1 5,0 9,3 9,7 0,0 0,1 0,2 0,3 -4,5 -8,5 -13,0 -25,-1 -37,-1 -4,0 -8,-3 -8,-6 0,-1 0,-2 0,-3 -1,-3 3,-6 7,-5zm76 3c12,1 24,1 36,2 5,0 9,3 9,6 0,1 0,2 0,2 0,3 -3,6 -8,6 -12,-1 -24,-1 -36,-2 -5,0 -9,-3 -9,-6 0,-1 0,-2 0,-2 0,-4 4,-6 8,-6zm76 4c12,1 24,1 36,2 5,0 9,3 9,6 0,1 0,2 0,2 0,3 -4,6 -8,6 -12,-1 -24,-2 -37,-2 -4,-1 -8,-3 -8,-7 0,0 0,-1 0,-2 0,-3 3,-5 8,-5zm75 4c12,1 25,2 37,3 4,0 8,3 8,6 0,0 0,1 0,2 1,3 -3,5 -8,5 -12,-1 -24,-2 -36,-2 -5,0 -8,-3 -9,-6 0,-1 0,-2 0,-2 0,-4 4,-6 8,-6zm76 5c12,1 24,2 36,3 5,0 9,3 9,6 0,0 0,1 0,2 0,3 -3,5 -8,5 -12,-1 -24,-2 -36,-3 -5,0 -9,-3 -9,-6 0,0 0,-1 0,-2 0,-3 3,-5 8,-5zm76 5c12,1 24,2 36,3 5,0 9,3 9,6 0,0 0,1 0,2 0,3 -4,5 -8,4 -12,0 -25,-1 -37,-2 -4,0 -8,-3 -8,-6 0,-1 0,-1 0,-2 0,-3 3,-5 8,-5zm75 5c12,1 25,2 37,3 4,0 8,3 8,6 0,1 0,1 0,2 1,3 -3,5 -8,5 -12,-1 -24,-2 -36,-3 -5,0 -9,-3 -9,-6 0,0 0,-1 0,-2 0,-3 4,-5 8,-5zm76 6c12,1 24,2 36,3 5,0 9,2 9,5 0,1 0,1 0,2 0,3 -3,5 -8,5 -12,-1 -24,-2 -37,-3 -4,0 -8,-3 -8,-6 0,0 0,-1 0,-2 0,-2 3,-4 8,-4zm75 5c12,1 25,2 37,3 4,0 9,3 9,6 0,0 0,1 0,2 0,2 -4,4 -8,4 -13,-1 -25,-2 -37,-3 -5,0 -8,-3 -8,-5 0,-1 -1,-2 -1,-2 0,-3 4,-5 8,-5zm80 18l-1 -12 -3 0c-4,0 -8,2 -8,4 0,1 0,2 0,2 0,3 4,5 9,6l3 0zm-1174 -44c12,0 24,0 36,1 5,0 8,3 8,7 0,0 1,1 1,2 0,3 -4,6 -8,6 -13,0 -25,-1 -37,-1 -4,0 -8,-3 -8,-7 0,-1 0,-1 0,-2 0,-4 3,-7 8,-6zm75 2c12,1 24,1 37,1 4,1 8,4 8,7 0,1 0,2 0,2 0,4 -3,7 -8,7 -12,-1 -24,-1 -36,-2 -5,0 -9,-3 -9,-6 0,-1 0,-2 0,-3 0,-3 4,-6 8,-6zm75 3c13,0 25,0 37,1 4,0 8,3 9,6 0,1 0,2 0,2 0,4 -4,7 -8,7 -13,-1 -25,-1 -37,-1 -4,0 -8,-3 -8,-7 0,-1 0,-2 0,-2 -1,-4 3,-7 7,-6zm76 2c12,0 24,0 37,1 4,0 8,3 8,6 0,1 0,2 0,3 1,3 -3,6 -8,6 -12,-1 -24,-1 -36,-1 -5,0 -8,-3 -9,-7 0,-1 0,-1 0,-2 0,-4 4,-6 8,-6zm76 2c12,0 24,1 36,1 5,0 8,3 9,6 0,1 0,2 0,3 0,3 -4,6 -8,6 -12,-1 -25,-1 -37,-1 -4,0 -8,-3 -8,-7 0,0 0,-1 0,-2 0,-3 3,-6 8,-6zm75 2c13,1 25,1 37,2 4,0 8,3 8,6 0,1 0,1 0,2 1,3 -3,6 -7,6 -13,0 -25,-1 -37,-1 -5,0 -9,-3 -9,-7 0,0 0,-1 0,-2 0,-3 4,-6 8,-6zm76 3c12,0 24,1 36,1 5,0 9,3 9,6 0,1 0,2 0,2 0,4 -4,6 -8,6 -12,0 -25,-1 -37,-1 -4,0 -8,-3 -8,-6 0,-1 0,-2 0,-2 -1,-4 3,-6 8,-6zm75 2c12,1 25,1 37,2 4,0 8,3 8,6 0,1 0,2 0,2 1,4 -3,6 -8,6 -12,-1 -24,-1 -36,-2 -5,0 -8,-2 -9,-6 0,0 0,-1 0,-2 0,-3 4,-6 8,-6zm76 4c12,0 24,1 36,1 5,1 9,3 9,6 0,1 0,2 0,3 0,3 -4,5 -8,5 -12,-1 -24,-1 -36,-2 -5,0 -9,-3 -9,-6 0,0 0,-1 0,-2 0,-3 3,-6 8,-5zm76 3c12,1 24,2 36,2 4,1 8,3 8,6 0,1 0,2 0,2 1,4 -3,6 -7,6 -13,-1 -25,-2 -37,-2 -4,0 -8,-3 -8,-6 -1,-1 -1,-2 -1,-2 0,-4 4,-6 9,-6zm75 4c12,1 24,2 37,3 4,0 8,3 8,6 0,0 0,1 0,2 0,3 -3,5 -8,5 -12,-1 -24,-2 -36,-2 -5,0 -9,-3 -9,-6 0,-1 0,-2 0,-2 0,-3 3,-6 8,-6zm76 5c12,0 24,1 36,2 5,0 9,3 9,6 0,1 0,1 0,2 0,3 -4,5 -8,5 -12,-1 -24,-2 -37,-2 -4,0 -8,-3 -8,-6 0,-1 0,-1 0,-2 0,-3 3,-5 8,-5zm75 5c13,0 25,1 37,2 4,0 8,3 8,6 0,0 0,1 0,1 1,3 -3,6 -7,5 -13,0 -25,-1 -37,-2 -5,0 -8,-3 -9,-6 0,0 0,-1 0,-2 0,-2 4,-5 8,-4zm76 4c12,1 24,2 36,3 5,0 9,3 9,5 0,1 0,2 0,2 0,3 -3,5 -8,5 -12,-1 -24,-1 -36,-2 -5,-1 -9,-3 -9,-6 0,-1 0,-1 0,-2 0,-3 3,-5 8,-5zm76 5c12,1 24,2 36,3 5,0 8,2 8,5 1,1 0,1 0,2 1,3 -3,5 -7,5 -12,-1 -24,-2 -37,-3 -4,0 -8,-3 -8,-5 0,-1 0,-2 0,-2 -1,-3 3,-5 8,-5zm118 18l-1 -9c-1,-1 -3,-1 -5,-1 -13,-1 -25,-2 -37,-3 -4,0 -8,2 -8,5 0,0 0,1 0,1 0,3 4,6 9,6 12,1 24,2 36,2 2,1 4,0 6,-1zm-1192 -36l1 15c5,0 10,1 15,1 5,0 8,-3 8,-6 0,-1 0,-2 0,-3 0,-3 -4,-6 -8,-7 -6,0 -11,0 -16,0zm55 2c12,0 24,0 36,1 5,0 9,3 9,6 0,1 0,2 0,3 0,3 -3,6 -8,6 -12,0 -24,-1 -36,-1 -5,0 -9,-3 -9,-7 0,0 0,-1 0,-2 -1,-4 3,-6 8,-6zm75 2c12,0 25,0 37,1 4,0 8,3 8,6 0,1 0,2 1,3 0,3 -4,6 -9,6 -12,0 -24,-1 -36,-1 -5,0 -8,-3 -9,-7 0,0 0,-1 0,-2 0,-4 4,-6 8,-6zm76 2c12,0 24,0 36,1 5,0 9,3 9,6 0,1 0,2 0,2 0,4 -3,7 -8,7 -12,-1 -25,-1 -37,-1 -4,0 -8,-3 -8,-7 0,-1 0,-1 0,-2 0,-4 3,-6 8,-6zm76 2c12,0 24,0 36,0 4,1 8,3 8,7 1,1 1,1 1,2 0,3 -4,6 -8,6 -13,0 -25,0 -37,-1 -4,0 -8,-3 -8,-6 0,-1 0,-2 0,-2 -1,-4 3,-6 8,-6zm75 1c12,1 24,1 36,1 5,0 9,3 9,7 0,0 0,1 0,2 0,3 -3,6 -8,6 -12,-1 -24,-1 -36,-1 -5,0 -9,-3 -9,-6 0,-1 0,-2 0,-3 0,-3 3,-6 8,-6zm75 2c13,1 25,1 37,1 4,0 8,3 8,6 0,1 0,2 1,3 0,3 -4,6 -8,5 -13,0 -25,0 -37,0 -4,0 -8,-3 -8,-7 0,0 0,-1 0,-2 -1,-3 3,-6 7,-6zm76 2c12,1 24,1 36,2 5,0 9,2 9,6 0,0 0,1 0,2 0,3 -3,6 -8,5 -12,0 -24,0 -36,-1 -5,0 -9,-2 -9,-6 0,0 0,-1 0,-2 0,-3 3,-6 8,-6zm76 3c12,0 24,1 36,1 5,1 8,3 9,6 0,1 0,2 0,3 0,3 -4,5 -8,5 -12,0 -25,-1 -37,-1 -4,0 -8,-3 -8,-6 0,-1 0,-2 0,-3 -1,-3 3,-5 8,-5zm75 3c12,0 24,1 37,2 4,0 8,2 8,6 0,0 0,1 0,2 0,3 -3,5 -8,5 -12,-1 -24,-1 -36,-1 -5,-1 -9,-3 -9,-7 0,0 0,-1 0,-2 0,-3 4,-5 8,-5zm76 3c12,1 24,1 36,2 5,0 9,3 9,6 0,1 0,1 0,2 0,3 -4,5 -8,5 -12,0 -24,-1 -36,-1 -5,-1 -9,-3 -9,-6 0,-1 0,-2 0,-2 0,-4 3,-6 8,-6zm75 4c12,1 25,1 37,2 5,0 8,3 9,6 0,1 0,1 0,2 0,3 -4,5 -8,5 -13,0 -25,-1 -37,-2 -5,0 -8,-3 -9,-6 0,0 0,-1 0,-2 0,-3 4,-5 8,-5zm76 4c12,1 24,1 37,2 4,0 8,3 8,6 0,1 0,1 0,2 0,3 -3,5 -8,5 -12,-1 -24,-1 -36,-2 -5,0 -9,-3 -9,-6 0,-1 0,-1 0,-2 0,-3 4,-5 8,-5zm76 4c12,1 24,2 36,3 5,0 9,2 9,5 0,1 0,2 0,2 0,3 -3,5 -8,5 -12,-1 -24,-1 -37,-2 -4,0 -8,-3 -8,-6 0,0 0,-1 0,-2 -1,-3 3,-5 8,-5zm75 5c12,0 25,1 37,2 4,0 8,3 8,6 1,0 0,1 0,1 1,3 -3,5 -7,5 -13,-1 -25,-1 -37,-2 -5,0 -9,-3 -9,-6 0,0 0,-1 0,-1 0,-3 4,-6 8,-5zm76 4c12,1 24,2 36,2 5,1 9,3 9,6 0,1 0,1 0,2 0,2 -3,4 -8,4 -12,-1 -24,-1 -37,-2 -4,0 -8,-2 -8,-5 0,-1 0,-2 0,-2 0,-3 3,-5 8,-5zm81 17l-1 -12 -5 0c-4,0 -8,2 -7,4 0,1 0,1 0,2 0,3 4,5 8,5l5 1zm-1176 -31c12,1 24,1 36,1 5,0 9,4 9,7 0,1 0,2 0,3 0,3 -3,6 -8,6 -12,-1 -24,-1 -36,-1 -5,0 -8,-3 -9,-7 0,-1 0,-2 0,-2 0,-4 3,-7 8,-7zm76 2c12,1 24,1 36,1 5,0 9,3 9,7 0,1 0,1 0,2 0,4 -4,6 -8,6 -12,0 -24,0 -37,0 -4,-1 -8,-4 -8,-7 0,-1 0,-2 0,-2 0,-4 3,-7 8,-7zm75 2c12,0 24,0 37,1 4,0 8,3 8,6 0,1 0,2 0,3 1,3 -3,6 -8,6 -12,0 -24,-1 -36,-1 -5,0 -8,-3 -9,-6 0,-1 0,-2 0,-3 0,-3 4,-6 8,-6zm76 1c12,1 24,1 36,1 5,0 9,3 9,7 0,0 0,1 0,2 0,3 -4,6 -8,6 -12,0 -24,0 -37,0 -4,-1 -8,-3 -8,-7 0,-1 0,-1 0,-2 0,-4 3,-7 8,-7zm75 2c12,0 24,0 37,0 4,1 8,3 8,7 0,1 0,2 0,2 1,4 -3,6 -7,6 -13,0 -25,0 -37,0 -5,0 -8,-3 -9,-7 0,0 0,-1 0,-2 0,-3 4,-6 8,-6zm76 1c12,1 24,1 36,1 5,0 9,3 9,6 0,1 0,2 0,3 0,3 -3,6 -8,6 -12,-1 -24,-1 -36,-1 -5,0 -9,-3 -9,-6 0,-1 0,-2 0,-3 0,-3 3,-6 8,-6zm75 2c12,0 25,0 37,1 4,0 8,3 8,6 0,1 1,1 1,2 0,3 -4,6 -8,6 -13,0 -25,-1 -37,-1 -4,0 -8,-3 -9,-6 0,-1 0,-1 0,-2 0,-3 4,-6 8,-6zm76 2c12,0 24,0 36,1 5,0 9,3 9,6 0,1 0,1 0,2 0,3 -3,6 -8,6 -12,-1 -24,-1 -36,-1 -5,0 -9,-3 -9,-6 0,-1 0,-2 0,-2 0,-4 3,-6 8,-6zm75 2c12,0 25,1 37,1 4,0 8,3 8,6 0,1 1,2 1,2 0,4 -4,6 -8,6 -13,0 -25,-1 -37,-1 -4,0 -8,-3 -8,-6 0,-1 0,-2 0,-2 -1,-4 3,-6 7,-6zm76 3c12,0 24,1 36,1 5,0 9,3 9,6 0,1 0,2 0,2 0,3 -3,6 -8,6 -12,-1 -24,-1 -36,-2 -5,0 -9,-3 -9,-6 0,0 0,-1 0,-2 0,-3 3,-5 8,-5zm75 3c13,1 25,1 37,2 5,0 9,3 9,6 0,0 0,1 0,2 0,3 -3,5 -8,5 -12,-1 -24,-1 -37,-2 -4,0 -8,-3 -8,-6 0,0 0,-1 0,-2 -1,-3 3,-5 7,-5zm76 3c12,1 25,1 37,2 4,0 8,3 8,6 0,1 0,1 1,2 0,3 -4,5 -9,5 -12,-1 -24,-1 -36,-2 -5,0 -8,-2 -8,-5 0,-1 -1,-2 -1,-2 0,-3 4,-6 8,-6zm76 4c12,1 24,1 36,2 5,0 9,3 9,6 0,0 0,1 0,1 0,3 -3,5 -8,5 -12,0 -24,-1 -36,-1 -5,-1 -9,-3 -9,-6 0,-1 0,-1 0,-2 0,-3 3,-5 8,-5zm76 4c12,0 24,1 36,2 4,0 8,2 8,5 0,1 1,2 1,2 0,3 -4,5 -8,5 -12,-1 -25,-1 -37,-2 -4,0 -8,-3 -8,-6 0,0 0,-1 0,-1 -1,-3 3,-6 8,-5zm75 4c12,0 24,1 37,1 4,1 8,3 8,6 0,1 0,1 0,2 1,3 -3,5 -7,5 -13,-1 -25,-2 -37,-2 -5,-1 -8,-3 -9,-6 0,0 0,-1 0,-2 0,-2 4,-5 8,-4zm119 16l0 -8c-2,-2 -4,-2 -7,-3 -12,0 -24,-1 -36,-2 -5,0 -8,2 -8,5 0,1 0,1 0,2 0,3 4,5 8,5 13,1 25,2 37,2 2,0 5,0 6,-1zm-1192 -22l1 15c5,0 10,0 15,1 5,0 8,-3 8,-7 0,0 0,-1 0,-2 0,-4 -4,-7 -9,-7 -5,0 -10,0 -15,0zm55 1c12,0 24,1 36,1 4,0 8,3 9,7 0,1 0,1 0,2 0,4 -4,6 -8,6 -12,0 -24,0 -37,0 -4,-1 -8,-4 -8,-7 0,-1 0,-2 0,-2 -1,-4 3,-7 8,-7zm75 2c12,0 24,0 36,0 5,0 9,3 9,7 0,1 0,2 0,2 0,4 -3,7 -8,7 -12,-1 -24,-1 -36,-1 -5,0 -8,-3 -9,-7 0,0 0,-1 0,-2 0,-3 3,-6 8,-6zm76 1c12,0 24,0 36,0 5,0 8,3 9,7 0,1 0,1 0,2 0,4 -3,6 -8,6 -12,0 -24,0 -37,0 -4,0 -8,-3 -8,-6 0,-1 0,-2 0,-3 0,-3 3,-6 8,-6zm75 1c12,0 24,0 37,0 4,0 8,3 8,7 0,1 0,1 0,2 1,3 -3,6 -8,6 -12,0 -24,0 -36,0 -4,0 -8,-3 -9,-7 0,0 0,-1 0,-2 0,-3 4,-6 8,-6zm76 1c12,0 24,0 36,0 5,1 8,3 9,7 0,1 0,1 0,2 0,3 -3,6 -8,6 -12,0 -24,0 -36,0 -5,0 -9,-3 -9,-7 0,0 0,-1 0,-2 0,-3 3,-6 8,-6zm75 1c12,0 24,0 37,1 4,0 8,2 8,6 0,0 0,1 0,2 0,3 -3,6 -8,6 -12,0 -24,0 -36,-1 -5,0 -8,-2 -9,-6 0,0 0,-1 0,-2 0,-3 4,-6 8,-6zm76 1c12,0 24,1 36,1 5,0 9,3 9,6 0,1 0,1 0,2 0,3 -3,6 -8,6 -12,0 -24,0 -37,-1 -4,0 -8,-2 -8,-6 0,0 0,-1 0,-2 0,-3 3,-6 8,-6zm75 2c12,0 24,0 37,1 4,0 8,3 8,6 0,1 0,1 0,2 1,3 -3,6 -7,6 -13,-1 -25,-1 -37,-1 -4,0 -8,-3 -8,-6 0,-1 0,-2 0,-3 -1,-3 3,-5 7,-5zm76 2c12,0 24,1 36,1 5,0 9,3 9,6 0,1 0,1 0,2 0,3 -3,6 -8,5 -12,0 -24,0 -36,-1 -5,0 -9,-2 -9,-6 0,0 0,-1 0,-2 0,-3 3,-5 8,-5zm75 2c13,1 25,1 37,2 5,0 8,2 9,6 0,0 0,1 0,2 0,3 -4,5 -8,5 -13,-1 -25,-1 -37,-1 -4,0 -8,-3 -8,-6 0,-1 0,-2 -1,-2 0,-3 4,-6 8,-6zm76 3c12,1 24,1 37,1 4,1 8,3 8,6 0,1 0,2 0,2 1,3 -3,6 -8,5 -12,0 -24,0 -36,-1 -5,0 -9,-3 -9,-6 0,0 0,-1 0,-2 0,-3 3,-5 8,-5zm76 3c12,1 24,1 36,2 5,0 8,2 9,5 0,1 0,2 0,2 0,3 -4,5 -8,5 -12,0 -24,-1 -37,-1 -4,0 -8,-3 -8,-6 0,0 0,-1 0,-2 0,-3 3,-5 8,-5zm75 3c12,1 25,1 37,2 4,0 8,3 8,5 0,1 0,2 0,2 1,3 -3,5 -7,5 -13,0 -25,-1 -37,-1 -4,0 -8,-3 -8,-6 0,0 -1,-1 -1,-2 0,-3 4,-5 8,-5zm76 4c12,0 24,1 36,1 5,0 9,3 9,6 0,0 0,1 0,2 0,2 -3,5 -8,4 -12,0 -24,-1 -36,-1 -5,0 -9,-3 -9,-6 0,0 0,-1 0,-2 0,-2 4,-5 8,-4zm76 3c12,1 24,1 36,2 4,0 8,2 9,5 0,1 0,1 0,2 0,3 -4,5 -8,4 -13,0 -25,-1 -37,-1 -4,0 -8,-3 -8,-6 0,0 0,-1 0,-1 -1,-3 3,-5 8,-5zm81 15l-1 -11 -5 -1c-5,0 -8,2 -8,5 0,1 0,1 0,2 0,3 4,5 9,5l5 0zm-1176 -16c12,0 24,1 37,1 4,0 8,3 8,7 0,0 0,1 0,2 0,3 -3,6 -8,6 -12,0 -24,0 -36,-1 -5,0 -8,-3 -9,-6 0,-1 0,-2 0,-3 0,-3 4,-6 8,-6zm76 2c12,0 24,0 36,0 5,0 9,3 9,7 0,0 0,1 0,2 0,4 -4,6 -8,6 -12,0 -25,0 -37,0 -4,0 -8,-3 -8,-7 0,0 0,-1 0,-2 0,-4 3,-7 8,-6zm75 1c12,0 24,0 37,0 4,0 8,3 8,6 0,1 0,2 0,3 0,3 -3,6 -8,6 -12,0 -24,0 -36,0 -5,0 -8,-3 -9,-7 0,0 0,-1 0,-2 0,-4 4,-6 8,-6zm76 0c12,0 24,0 36,1 5,0 9,3 9,6 0,1 0,2 0,2 0,4 -3,6 -8,6 -12,0 -24,0 -37,0 -4,0 -8,-3 -8,-6 0,-1 0,-2 0,-2 0,-4 3,-7 8,-7zm75 1c12,0 24,0 37,0 4,0 8,3 8,7 0,0 0,1 0,2 1,3 -3,6 -8,6 -12,0 -24,0 -36,0 -5,0 -9,-3 -9,-7 0,0 0,-1 0,-2 0,-3 4,-6 8,-6zm76 1c12,0 24,0 36,0 5,0 9,3 9,6 0,1 0,2 0,2 0,4 -3,6 -8,6 -12,0 -24,0 -37,0 -4,0 -8,-3 -8,-6 0,-1 0,-2 0,-2 0,-4 3,-7 8,-6zm75 0c12,0 24,1 37,1 4,0 8,2 8,6 0,0 0,1 0,2 1,3 -3,6 -8,6 -12,0 -24,0 -36,-1 -5,0 -8,-2 -9,-6 0,0 0,-1 0,-2 0,-3 4,-6 8,-6zm76 1c12,0 24,0 36,1 5,0 9,2 9,6 0,0 0,1 0,2 0,3 -4,6 -8,6 -12,-1 -24,-1 -37,-1 -4,0 -8,-3 -8,-6 0,-1 0,-1 0,-2 0,-3 3,-6 8,-6zm75 1c12,1 25,1 37,1 4,0 8,3 8,6 0,1 0,2 0,2 1,3 -3,6 -7,6 -13,0 -25,-1 -37,-1 -4,0 -8,-3 -8,-6 0,0 0,-1 -1,-2 0,-3 4,-6 8,-6zm76 2c12,0 24,1 36,1 5,0 9,3 9,6 0,1 0,1 0,2 0,3 -3,6 -8,6 -12,-1 -24,-1 -36,-1 -5,0 -9,-3 -9,-6 0,-1 0,-2 0,-2 0,-3 3,-6 8,-6zm75 2c13,1 25,1 37,1 5,1 8,3 9,6 0,1 0,2 0,2 0,3 -4,6 -8,6 -13,-1 -25,-1 -37,-1 -4,-1 -8,-3 -8,-6 0,-1 -1,-2 -1,-2 0,-3 4,-6 8,-6zm76 3c12,0 24,0 36,1 5,0 9,3 9,6 0,0 0,1 0,2 0,3 -3,5 -8,5 -12,0 -24,-1 -36,-1 -5,0 -8,-3 -9,-6 0,-1 0,-1 0,-2 0,-3 4,-5 8,-5zm76 2c12,1 24,1 36,2 5,0 8,2 9,5 0,1 0,2 0,2 0,3 -4,5 -8,5 -12,0 -25,0 -37,-1 -4,0 -8,-3 -8,-6 0,0 0,-1 0,-2 0,-3 3,-5 8,-5zm75 3c12,0 24,1 37,1 4,1 8,3 8,6 0,1 0,1 0,2 0,3 -3,5 -8,5 -12,-1 -24,-1 -36,-1 -5,0 -9,-3 -9,-6 0,-1 0,-1 0,-2 0,-3 4,-5 8,-5zm76 3c12,0 24,1 36,1 5,0 9,3 9,6 0,0 0,1 0,2 0,2 -3,5 -8,4 -12,0 -24,0 -36,-1 -5,0 -9,-2 -9,-5 0,-1 0,-2 0,-2 0,-3 3,-5 8,-5zm120 13l-1 -6c-1,-2 -4,-3 -7,-3 -13,0 -25,-1 -37,-1 -4,0 -8,2 -8,4 0,1 0,2 0,2 1,3 4,6 9,6 12,0 24,1 36,1 4,0 6,-1 8,-3zm-1193 -8l1 15c5,0 10,0 16,0 4,0 8,-2 7,-6 0,-1 0,-1 0,-2 0,-4 -4,-7 -9,-7 -5,0 -10,0 -15,0zm55 1c12,0 24,0 36,0 5,0 9,3 9,7 0,1 0,1 0,2 0,4 -3,7 -8,7 -12,-1 -24,-1 -37,-1 -4,0 -8,-3 -8,-7 0,0 0,-1 0,-2 0,-3 3,-6 8,-6zm75 1c12,0 24,0 36,0 5,0 9,3 9,7 0,0 0,1 0,2 1,3 -3,6 -8,6 -12,0 -24,0 -36,0 -4,0 -8,-3 -9,-7 0,0 0,-1 0,-2 0,-4 4,-6 8,-6zm76 0c12,0 24,0 36,0 5,0 9,3 9,7 0,1 0,1 0,2 0,4 -3,6 -8,6 -12,0 -24,0 -36,0 -5,0 -9,-2 -9,-6 0,-1 0,-2 0,-2 0,-4 3,-7 8,-7zm75 1c12,0 24,0 36,0 5,0 9,3 9,6 0,1 0,2 0,2 0,4 -3,6 -7,6 -13,0 -25,0 -37,0 -4,0 -8,-2 -8,-6 0,-1 0,-1 -1,-2 0,-4 4,-6 8,-6zm76 0c12,0 24,0 36,0 5,0 9,3 9,6 0,1 0,2 0,2 0,4 -3,6 -8,6 -12,0 -24,0 -36,0 -5,0 -9,-2 -9,-6 0,-1 0,-1 0,-2 0,-3 3,-6 8,-6zm75 0c12,0 24,0 36,0 5,0 9,3 9,6 0,1 0,2 0,2 1,4 -3,6 -8,6 -12,0 -24,0 -36,0 -4,0 -8,-2 -8,-6 -1,0 -1,-1 -1,-2 0,-3 4,-6 8,-6zm76 0c12,0 24,1 36,1 5,0 9,2 9,6 0,0 0,1 0,2 0,3 -4,6 -8,6 -12,0 -24,-1 -37,-1 -4,0 -8,-2 -8,-6 0,0 0,-1 0,-2 0,-3 3,-6 8,-6zm75 1c12,0 24,0 37,1 4,0 8,2 8,5 0,1 0,2 0,3 1,3 -3,5 -8,5 -12,0 -24,0 -36,0 -4,0 -8,-3 -8,-6 -1,-1 -1,-2 -1,-2 0,-4 4,-6 8,-6zm76 1c12,0 24,1 36,1 5,0 8,3 9,6 0,0 0,1 0,2 0,3 -3,5 -8,5 -12,0 -24,0 -36,0 -5,0 -9,-3 -9,-6 0,-1 0,-2 0,-2 0,-3 3,-6 8,-6zm75 2c12,0 24,0 37,1 4,0 8,2 8,5 0,1 0,2 0,2 1,3 -3,6 -7,6 -13,0 -25,-1 -37,-1 -5,0 -8,-3 -9,-6 0,0 0,-1 0,-2 0,-3 4,-5 8,-5zm76 1c12,1 24,1 36,1 5,1 9,3 9,6 0,1 0,2 0,2 0,3 -3,6 -8,5 -12,0 -24,0 -36,0 -5,0 -9,-3 -9,-6 0,-1 0,-1 0,-2 0,-3 3,-6 8,-6zm75 2c13,1 25,1 37,2 4,0 8,2 8,5 1,1 1,1 1,2 0,3 -4,5 -8,5 -13,0 -25,0 -37,-1 -4,0 -8,-2 -8,-5 0,-1 0,-2 0,-2 -1,-3 3,-6 7,-6zm76 3c12,0 24,1 37,1 4,0 8,2 8,5 0,1 0,1 0,2 0,3 -3,5 -8,5 -12,0 -24,0 -36,-1 -5,0 -9,-2 -9,-5 0,-1 0,-2 0,-2 0,-3 3,-5 8,-5zm76 2c12,0 24,1 36,1 5,0 8,3 9,5 0,1 0,2 0,2 0,3 -4,5 -8,5 -13,0 -25,0 -37,-1 -4,0 -8,-2 -8,-5 0,-1 0,-2 0,-2 -1,-3 3,-5 8,-5zm75 2c12,1 24,1 36,1 5,1 9,3 9,6 0,0 0,1 0,1 0,3 -3,5 -8,5 -12,0 -24,0 -36,-1 -5,0 -9,-2 -9,-5 0,-1 0,-1 0,-2 0,-3 4,-5 8,-5zm83 14l-1 -11 -6 0c-5,0 -9,2 -8,4 0,1 0,2 0,2 0,3 4,5 8,5 2,0 4,0 7,0zm-1177 -2c12,0 25,0 37,0 4,1 8,3 8,7 0,1 0,2 0,2 1,4 -3,7 -7,7 -12,-1 -24,-1 -37,-1 -4,0 -8,-3 -8,-6 0,-1 0,-2 0,-3 -1,-3 3,-6 7,-6zm76 1c12,0 24,0 36,0 5,0 9,3 9,7 0,0 0,1 0,2 0,3 -3,6 -8,6 -12,0 -24,0 -36,0 -5,0 -9,-3 -9,-6 0,-1 0,-2 0,-3 0,-3 3,-6 8,-6zm75 0c12,0 24,0 37,0 4,0 8,3 8,7 1,1 1,1 1,2 0,4 -4,6 -8,6 -12,0 -25,0 -37,0 -4,0 -8,-3 -8,-6 0,-1 0,-2 -1,-2 0,-4 4,-7 8,-7zm76 0c12,0 24,0 36,0 5,0 9,3 9,7 0,0 0,1 0,2 0,3 -3,6 -8,6 -12,0 -24,0 -36,0 -5,0 -9,-3 -9,-6 0,-1 0,-1 0,-2 0,-4 3,-7 8,-7zm75 0c13,0 25,0 37,0 4,0 8,3 8,6 0,1 0,2 0,2 0,4 -3,7 -7,7 -13,0 -25,0 -37,0 -4,0 -8,-3 -8,-6 0,-1 0,-2 -1,-3 0,-3 4,-6 8,-6zm76 0c12,0 24,0 36,0 5,0 9,3 9,6 0,1 0,1 0,2 0,3 -3,6 -8,6 -12,0 -24,0 -36,0 -5,0 -9,-2 -9,-6 0,0 0,-1 0,-2 0,-3 3,-6 8,-6zm75 0c12,0 24,0 37,0 4,0 8,2 8,6 0,0 0,1 0,2 1,3 -3,6 -7,6 -13,0 -25,0 -37,0 -4,0 -8,-3 -8,-6 -1,-1 -1,-1 -1,-2 0,-3 4,-6 8,-6zm76 0c12,0 24,0 36,0 5,0 8,3 9,6 0,1 0,1 0,2 0,3 -3,6 -8,6 -12,0 -24,0 -37,0 -4,0 -8,-3 -8,-6 0,-1 0,-2 0,-2 0,-4 3,-6 8,-6zm302 4c12,0 24,0 36,1 5,0 9,2 9,5 0,1 0,2 0,2 0,3 -4,5 -8,5 -12,0 -24,0 -37,0 -4,0 -8,-3 -8,-6 0,0 0,-1 0,-2 0,-3 3,-5 8,-5zm-227 -4c12,0 24,0 37,1 4,0 8,2 8,5 0,1 0,2 0,2 0,1 0,1 0,1l3 0c6,0 13,0 20,0 0,0 0,0 0,0 0,-1 0,-2 0,-2 -1,-3 3,-6 8,-6 12,0 24,0 36,1 5,0 8,2 9,5 0,1 0,1 0,2 7,0 15,0 22,0 0,0 0,-1 0,-1 0,-3 4,-6 8,-6 12,1 24,1 37,1 4,0 8,3 8,6 0,0 0,1 0,2 1,3 -3,5 -7,5 -4,0 -7,0 -11,0 2,1 4,3 5,4 2,3 4,5 6,8 0,0 1,0 2,0 12,0 24,0 36,0 5,0 9,3 9,6 0,0 0,1 0,2 0,3 -4,5 -8,5 -12,0 -23,0 -34,0 0,3 1,7 1,10 0,0 0,0 0,0 0,1 0,1 0,2 2,1 4,3 4,5 0,0 0,1 0,2 0,2 -3,5 -6,5 -2,6 -5,12 -10,16 -10,11 -21,9 -31,9 -28,0 -56,0 -84,0 -8,1 -16,1 -25,1 -1,0 -2,-1 -3,-1l0 0c-11,-1 -22,-5 -28,-12 -3,-4 -6,-8 -9,-13l0 0c-4,0 -7,-2 -7,-5 0,-1 0,-2 0,-2 -1,-3 1,-5 4,-6 0,-1 0,-1 0,-2 0,0 0,0 0,0 0,-4 1,-7 1,-10 -12,0 -24,0 -36,0 -4,0 -8,-3 -8,-6 0,-1 0,-2 -1,-2 0,-4 4,-6 8,-6 12,0 24,0 37,0 1,0 3,0 4,1 2,-4 4,-8 7,-11 1,-1 2,-1 3,-2 -5,0 -9,0 -14,0 -5,0 -8,-3 -9,-6 0,-1 0,-1 0,-2 0,-3 4,-6 8,-6zm302 5c12,1 24,1 37,1 4,0 8,3 8,6 0,0 0,1 0,2 1,3 -3,5 -8,5 -12,0 -24,-1 -36,-1 -5,0 -8,-2 -9,-5 0,-1 0,-2 0,-2 0,-3 4,-6 8,-6zm76 2c12,0 24,1 36,1 5,0 9,2 9,5 0,1 0,2 0,2 0,3 -4,5 -8,5 -12,0 -24,0 -37,-1 -4,0 -8,-2 -8,-5 0,-1 0,-1 0,-2 0,-3 3,-5 8,-5zm75 2c13,0 25,0 37,1 4,0 8,2 8,5 0,1 0,1 0,2 1,3 -3,5 -8,5 -12,-1 -24,-1 -36,-1 -5,0 -8,-3 -9,-5 0,-1 0,-2 0,-2 0,-3 4,-5 8,-5zm121 8l0 -1c-1,-2 -5,-5 -9,-5 -12,0 -24,0 -36,-1 -5,0 -8,3 -8,5 0,1 0,2 0,2 0,3 4,5 8,5 12,1 24,1 37,1 4,0 8,-2 8,-5 0,0 0,-1 0,-1zm-1193 11l0 15c6,0 12,0 18,0 4,0 8,-3 7,-6 0,-1 0,-2 0,-3 0,-3 -4,-6 -9,-6l-16 0zm55 0c12,0 25,0 37,0 4,1 8,3 8,7 1,1 1,1 1,2 0,4 -3,7 -8,7 -12,0 -24,0 -37,0 -4,0 -8,-3 -8,-7 0,-1 -1,-2 -1,-2 0,-4 4,-7 8,-7zm76 0c12,0 24,0 36,0 5,0 9,3 9,7 0,1 0,1 0,2 0,4 -3,7 -8,7 -12,0 -24,0 -36,0 -5,0 -9,-3 -9,-7 0,0 0,-1 0,-2 0,-4 3,-7 8,-7zm75 0c12,0 24,0 37,0 4,0 8,3 8,6 1,1 1,2 1,3 0,3 -4,6 -8,6 -13,0 -25,0 -37,0 -4,0 -8,-2 -8,-6 0,-1 -1,-2 -1,-2 0,-4 4,-7 8,-7zm76 0c12,0 24,0 36,0 5,0 8,2 9,6 0,1 0,1 0,2 0,4 -3,6 -8,6 -12,1 -24,1 -36,1 -5,0 -9,-3 -9,-7 0,0 0,-1 0,-2 0,-3 3,-6 8,-6zm75 -1c12,0 24,0 36,0 5,0 9,3 9,6 0,1 0,2 0,2 0,4 -3,6 -7,7 -13,0 -25,0 -37,0 -4,0 -8,-3 -9,-6 0,-1 0,-2 0,-2 0,-4 4,-7 8,-7zm75 0c12,0 25,-1 37,-1 4,0 8,3 8,6 1,1 1,2 1,2 0,4 -4,7 -8,7 -13,0 -25,0 -37,0 -4,0 -8,-3 -8,-6 0,-1 0,-1 0,-2 -1,-4 3,-6 7,-6zm76 -1c12,0 24,0 36,0 5,0 9,3 9,6 0,1 0,1 0,2 0,3 -3,6 -8,6 -12,0 -24,0 -36,0 -5,0 -9,-2 -9,-6 0,0 0,-1 0,-2 0,-3 3,-6 8,-6zm377 3c12,0 24,0 37,0 4,0 8,3 8,6 0,0 0,1 0,2 0,3 -3,5 -8,5 -12,0 -24,-1 -36,-1 -5,0 -9,-2 -9,-5 0,-1 0,-1 0,-2 0,-3 4,-6 8,-5zm76 1c12,0 24,0 36,0 5,0 8,3 8,6 0,0 1,1 1,1 0,3 -4,6 -8,6 -13,0 -25,-1 -37,-1 -4,0 -8,-2 -8,-5 0,-1 -1,-1 -1,-2 0,-3 4,-5 9,-5zm75 1c12,0 24,0 37,0 4,1 8,3 8,6 0,0 0,1 0,2 0,2 -3,5 -8,5 -12,-1 -24,-1 -36,-1 -5,0 -9,-2 -9,-5 0,-1 0,-1 0,-2 0,-3 4,-5 8,-5zm75 1c13,0 25,0 37,1 4,0 8,2 8,5 0,0 0,1 0,2 0,2 -3,5 -8,5 -12,-1 -24,-1 -36,-1 -5,0 -8,-2 -8,-5 0,-1 -1,-1 -1,-2 0,-3 4,-5 8,-5zm84 13l-1 -12c-2,0 -5,0 -7,0 -5,0 -8,2 -8,5 0,1 0,1 0,2 0,3 4,5 8,5l8 0zm-1175 12c12,0 24,0 36,0 5,0 9,3 9,7 0,0 0,1 0,2 0,4 -3,6 -8,6 -12,0 -24,0 -36,0 -4,0 -8,-3 -9,-6 0,-1 0,-2 0,-3 0,-3 3,-6 8,-6zm75 0c12,0 24,0 36,0 5,0 9,3 9,6 0,1 0,2 0,3 1,3 -3,6 -7,6 -13,0 -24,0 -37,0 -4,0 -8,-2 -8,-6 -1,-1 0,-2 0,-2 -1,-4 3,-7 7,-7zm75 0c12,0 24,0 37,0 4,0 8,2 9,6 0,1 0,1 0,2 0,4 -4,7 -8,7 -12,0 -24,0 -36,0 -5,0 -9,-3 -9,-6 0,-1 0,-2 0,-3 -1,-3 3,-6 7,-6zm76 -1c12,0 24,0 36,0 5,0 9,3 9,6 0,1 0,2 0,2 0,4 -3,7 -8,7 -12,0 -24,0 -36,0 -5,0 -9,-3 -9,-6 0,-1 0,-2 0,-2 0,-4 3,-7 8,-7zm75 -1c12,0 24,0 36,0 5,0 9,2 9,6 0,1 0,1 0,2 0,4 -3,6 -7,6 -13,1 -25,1 -37,1 -4,0 -8,-3 -9,-6 0,-1 0,-2 0,-2 0,-4 4,-7 8,-7zm76 -1c12,0 24,0 36,0 4,0 8,2 8,6 0,0 0,1 0,2 1,3 -3,6 -7,6 -12,0 -24,1 -37,1 -4,0 -8,-3 -8,-6 0,-1 0,-2 0,-2 -1,-4 3,-7 8,-7zm75 -1c12,0 24,0 36,0 5,0 9,2 9,5 0,1 0,2 0,3 0,3 -3,6 -8,6 -12,0 -24,0 -36,0 -5,1 -9,-2 -9,-6 0,0 0,-1 0,-2 0,-3 3,-6 8,-6zm75 -1c12,0 24,0 36,0 5,0 9,2 9,6 0,0 0,1 0,2 0,3 -3,6 -8,6 -12,0 -24,0 -36,0 -5,0 -8,-2 -9,-6 0,0 0,-1 0,-2 0,-3 3,-6 8,-6zm301 0c12,0 24,0 37,1 4,0 8,2 8,5 0,1 0,1 0,2 0,3 -3,5 -8,5 -12,0 -24,0 -36,0 -4,0 -8,-2 -9,-5 0,-1 1,-1 0,-2 0,-3 4,-6 8,-6zm76 1c12,0 24,0 36,0 5,0 8,3 8,6 0,0 1,1 1,2 0,2 -4,5 -8,5 -13,0 -25,0 -37,0 -4,0 -8,-3 -8,-6 0,0 0,-1 0,-2 0,-3 3,-5 8,-5zm75 1c12,0 24,0 36,0 5,0 9,2 9,5 0,1 0,1 0,2 0,3 -3,5 -8,5 -12,0 -24,0 -36,0 -5,0 -9,-2 -9,-5 0,-1 0,-2 0,-2 0,-3 4,-6 8,-5zm75 0c13,0 25,0 37,1 4,0 8,2 8,5 0,0 0,1 0,1 0,3 -3,6 -8,6 -12,0 -24,-1 -36,-1 -5,0 -9,-2 -9,-5 0,0 0,-1 0,-2 0,-3 4,-5 8,-5zm76 1c12,0 24,0 36,0 4,0 8,2 8,5 0,1 0,1 0,2 0,3 -3,5 -8,5 -12,0 -24,0 -36,0 -5,0 -8,-3 -8,-5 0,-1 0,-2 -1,-2 0,-3 4,-5 9,-5zm-1148 30c1,6 1,12 1,16 6,0 13,0 20,0 4,0 8,-3 7,-7 0,0 0,-1 0,-2 0,-4 -4,-6 -9,-6 -6,0 -12,-1 -19,-1zm58 1c12,0 24,0 37,0 4,0 8,2 8,6 0,1 0,2 1,2 0,4 -4,7 -8,7 -12,0 -24,0 -36,0 -5,0 -9,-3 -9,-6 0,-1 0,-2 -1,-3 0,-3 4,-6 8,-6zm75 -1c12,0 24,0 37,0 4,0 8,3 9,6 0,1 0,2 0,3 0,3 -4,6 -8,6 -12,0 -24,1 -36,1 -5,0 -9,-3 -9,-7 0,0 0,-1 0,-2 -1,-4 3,-7 7,-7zm76 0c12,-1 24,-1 36,-1 4,0 8,3 9,6 0,1 0,2 0,2 0,4 -4,7 -8,7 -12,0 -24,0 -36,1 -5,0 -9,-3 -9,-7 0,0 0,-1 0,-2 0,-3 3,-6 8,-6zm75 -2c12,0 24,0 36,0 5,0 8,2 9,6 0,1 0,1 0,2 0,4 -3,6 -8,6 -12,1 -24,1 -36,1 -5,0 -9,-3 -9,-6 0,-1 0,-1 0,-2 0,-4 3,-7 8,-7zm75 -1c12,0 24,0 36,-1 5,0 9,3 9,6 0,1 0,2 0,2 0,4 -3,7 -8,7 -12,0 -24,0 -36,1 -5,0 -8,-3 -9,-6 0,-1 0,-2 0,-3 0,-3 3,-6 8,-6zm75 -2c12,0 24,0 36,0 5,0 9,2 9,5 0,1 0,2 0,3 0,3 -3,6 -8,6 -12,0 -24,1 -36,1 -4,0 -8,-3 -8,-6 0,-1 0,-1 0,-2 -1,-4 3,-6 7,-7zm75 -1c12,0 24,0 37,-1 4,0 8,3 8,6 0,1 0,2 0,2 1,3 -3,6 -8,6 -12,1 -24,1 -36,1 -4,0 -8,-2 -8,-6 -1,0 -1,-1 -1,-2 0,-3 4,-6 8,-6zm75 -1c13,0 25,-1 37,-1 4,0 8,3 8,6 0,1 0,1 0,2 1,3 -3,6 -7,6 -13,0 -25,0 -37,1 -4,0 -8,-3 -8,-6 0,-1 0,-2 0,-2 -1,-4 3,-6 7,-6zm226 -1c12,0 24,0 36,0 5,0 9,2 9,5 0,1 0,1 0,2 0,3 -4,6 -8,6 -12,0 -24,0 -36,0 -5,0 -9,-3 -9,-6 0,-1 0,-1 0,-2 0,-3 4,-5 8,-5zm75 0c12,0 24,0 37,0 4,0 8,2 8,5 0,1 0,1 0,2 0,3 -4,5 -8,5 -12,0 -24,0 -36,0 -5,0 -9,-2 -9,-5 0,-1 0,-1 0,-2 0,-3 4,-5 8,-5zm76 0c12,0 24,0 36,0 4,0 8,2 8,5 0,1 0,1 0,2 0,3 -3,5 -8,5 -12,0 -24,0 -36,0 -5,0 -9,-2 -9,-5 0,-1 0,-1 0,-2 0,-3 4,-5 9,-5zm75 0c12,0 24,0 36,0 5,0 8,2 8,5 0,1 0,1 0,2 0,3 -3,5 -8,5 -12,0 -24,0 -36,0 -4,0 -8,-2 -8,-5 0,-1 0,-1 0,-2 0,-3 3,-5 8,-5zm75 0c12,0 24,0 36,0 5,0 8,2 8,5 0,1 0,1 0,2 0,2 -3,5 -8,5 -12,0 -24,0 -36,0 -5,0 -8,-2 -8,-5 0,-1 0,-1 0,-2 0,-3 3,-5 8,-5zm86 12l-1 -12 -10 0c-5,0 -8,2 -8,5 0,1 0,1 0,2 0,2 3,5 8,5 3,0 7,0 11,0zm-1174 25c12,0 24,0 36,0 5,0 9,3 9,7 0,1 0,2 0,2 1,4 -3,7 -7,7 -12,0 -24,0 -36,0 -5,0 -9,-3 -9,-7 0,0 0,-1 0,-2 -1,-4 3,-7 7,-7zm75 0c12,0 24,0 36,0 5,0 9,3 9,6 0,1 0,2 0,2 0,4 -3,7 -7,7 -12,0 -24,0 -36,0 -5,1 -9,-2 -9,-6 0,-1 0,-1 0,-2 -1,-4 3,-7 7,-7zm75 -1c12,0 24,0 36,0 5,0 9,2 9,6 0,1 0,1 0,2 1,4 -3,7 -7,7 -12,0 -24,0 -37,0 -4,1 -8,-2 -8,-6 0,-1 0,-1 -1,-2 0,-4 4,-7 8,-7zm75 -1c12,0 24,-1 36,-1 5,0 9,3 9,6 0,1 0,2 0,2 1,4 -3,7 -7,7 -13,0 -24,1 -37,1 -4,0 -8,-3 -8,-6 0,-1 0,-2 0,-3 -1,-3 3,-6 7,-6zm75 -2c12,0 24,0 36,-1 5,0 9,3 9,6 0,1 0,2 0,3 0,3 -3,6 -7,6 -13,0 -25,1 -37,1 -4,0 -8,-3 -8,-6 0,-1 0,-2 -1,-2 0,-4 4,-7 8,-7zm75 -2c12,0 24,0 36,-1 5,0 9,3 9,6 0,1 0,2 0,2 0,4 -3,7 -8,7 -11,0 -24,1 -36,1 -4,0 -8,-3 -8,-6 0,-1 0,-2 -1,-2 0,-4 4,-7 8,-7zm75 -2c12,0 24,0 37,-1 4,0 8,3 8,6 0,1 0,2 0,2 0,4 -3,7 -7,7 -13,0 -25,0 -37,1 -4,0 -8,-3 -8,-6 -1,-1 -1,-2 -1,-2 0,-4 4,-6 8,-7zm75 -2c12,0 24,0 36,0 5,0 9,2 9,5 0,1 0,2 0,3 0,3 -3,6 -8,6 -12,0 -24,0 -36,1 -5,0 -8,-3 -9,-6 0,-1 0,-2 0,-2 0,-4 4,-6 8,-7zm75 -1c12,0 24,0 36,-1 5,0 9,3 9,6 0,1 0,1 0,2 0,3 -3,6 -8,6 -12,0 -24,1 -36,1 -5,0 -8,-3 -9,-6 0,-1 0,-1 0,-2 0,-3 4,-6 8,-6zm75 -1c12,0 24,0 36,0 5,0 8,2 9,5 0,1 0,2 0,2 0,3 -4,6 -8,6 -12,0 -24,0 -36,1 -5,0 -9,-3 -9,-6 0,-1 0,-1 0,-2 0,-3 4,-6 8,-6zm75 -1c12,0 24,0 36,0 5,0 9,2 9,6 0,0 0,1 0,2 0,3 -3,5 -8,5 -12,0 -24,0 -36,1 -5,0 -9,-3 -9,-6 0,-1 0,-1 0,-2 0,-3 4,-6 8,-6zm75 0c12,0 24,0 36,0 5,0 9,2 9,5 0,1 0,1 0,2 0,3 -4,5 -8,5 -12,1 -24,1 -36,1 -5,0 -9,-3 -9,-6 0,0 0,-1 0,-2 0,-3 4,-5 8,-5zm75 -1c12,0 24,0 36,0 5,0 9,2 9,5 0,1 0,2 0,2 0,3 -4,6 -8,6 -12,0 -24,0 -36,0 -5,0 -8,-2 -9,-5 0,-1 0,-2 0,-2 0,-3 4,-6 8,-6zm75 0c12,0 24,0 37,0 4,0 8,2 8,5 0,1 0,1 0,2 0,3 -4,5 -8,5 -12,0 -24,0 -36,0 -5,0 -9,-2 -9,-5 0,-1 0,-1 0,-2 0,-3 4,-5 8,-5zm75 -1c12,0 24,0 36,0 5,0 9,2 9,5 0,1 0,1 0,2 0,3 -4,5 -8,5 -12,0 -24,1 -37,1 -4,0 -8,-3 -8,-6 0,0 0,-1 0,-1 0,-3 4,-5 8,-6zm75 0c12,0 24,0 36,0 5,0 8,2 9,5 0,0 0,1 0,1 0,3 -4,6 -9,6 -12,0 -24,0 -36,0 -4,0 -8,-2 -8,-5 0,-1 0,-1 0,-2 0,-3 4,-5 8,-5zm-1143 44c2,6 3,11 6,16 5,0 10,0 16,0 4,0 8,-3 7,-7 0,-1 0,-1 0,-2 0,-4 -4,-7 -9,-7 -7,0 -13,0 -20,0zm59 0c12,0 24,0 36,0 4,0 8,3 9,6 0,1 0,2 0,3 0,3 -3,6 -7,6 -13,0 -25,0 -37,1 -4,0 -8,-3 -8,-7 -1,-1 -1,-1 -1,-2 0,-4 3,-7 8,-7zm75 -1c11,0 23,0 36,0 4,0 8,2 9,6 0,1 0,1 0,2 0,4 -3,7 -8,7 -12,0 -24,0 -36,1 -4,0 -8,-3 -9,-7 0,-1 0,-1 0,-2 0,-4 3,-7 8,-7zm74 -1c12,-1 24,-1 36,-1 5,0 9,2 10,6 0,1 0,2 0,2 0,4 -4,7 -8,7 -12,0 -24,0 -36,1 -5,0 -8,-3 -9,-6 0,-1 0,-2 0,-3 0,-3 3,-6 7,-6zm75 -2c12,-1 24,-1 36,-1 5,-1 9,2 9,6 0,0 0,1 0,2 0,3 -3,6 -7,6 -13,1 -25,1 -37,2 -4,0 -8,-3 -8,-6 0,-1 0,-2 0,-3 -1,-3 3,-6 7,-6zm75 -2c12,-1 24,-1 36,-2 5,0 9,3 9,6 0,1 0,2 0,2 0,4 -3,7 -8,7 -12,0 -24,1 -36,1 -4,0 -8,-2 -9,-6 0,-1 0,-1 0,-2 0,-4 4,-6 8,-6zm75 -3c12,0 24,-1 36,-1 4,0 8,2 9,6 0,0 0,1 0,2 0,3 -4,6 -8,6 -12,1 -24,1 -36,2 -5,0 -8,-3 -9,-6 0,-1 0,-2 0,-2 0,-4 3,-7 8,-7zm75 -2c12,-1 24,-1 36,-1 4,0 8,2 8,5 0,1 1,2 1,3 0,3 -4,6 -8,6 -12,0 -24,1 -36,1 -5,0 -9,-2 -9,-6 0,0 0,-1 0,-2 0,-3 3,-6 8,-6zm74 -2c12,-1 24,-1 36,-1 5,0 9,2 9,5 0,1 0,2 0,2 0,4 -3,6 -8,7 -12,0 -24,0 -36,1 -4,0 -8,-3 -8,-6 0,-1 0,-1 0,-2 -1,-3 3,-6 7,-6zm75 -2c12,0 24,0 36,-1 5,0 9,3 9,6 0,1 0,1 0,2 0,3 -4,6 -8,6 -12,0 -24,0 -36,1 -5,0 -8,-3 -9,-6 0,-1 0,-1 0,-2 0,-3 4,-6 8,-6zm75 -1c12,0 24,-1 36,-1 5,0 8,3 8,6 0,0 1,1 1,2 0,3 -4,5 -8,5 -13,1 -24,1 -36,1 -5,0 -9,-2 -9,-5 0,-1 0,-2 0,-3 0,-3 3,-5 8,-5zm75 -1c12,-1 24,-1 36,-1 5,0 8,2 8,5 1,1 0,2 0,2 1,3 -3,6 -8,6 -12,0 -24,1 -36,1 -4,0 -8,-3 -8,-6 0,0 0,-1 0,-2 0,-3 3,-5 8,-5zm75 -1c12,-1 24,-1 36,-1 4,0 8,2 8,5 0,1 0,2 0,2 0,3 -3,6 -8,6 -12,0 -24,0 -36,0 -4,1 -8,-2 -8,-5 0,-1 0,-1 0,-2 0,-3 3,-5 8,-5zm75 -1c12,0 24,-1 36,-1 4,0 8,2 8,5 0,1 0,2 0,2 0,3 -4,6 -8,6 -12,0 -24,0 -36,0 -5,0 -9,-2 -9,-5 0,-1 0,-1 0,-2 0,-3 4,-5 9,-5zm74 -1c12,0 24,-1 36,-1 5,0 9,2 9,5 0,1 0,2 0,2 0,3 -4,5 -9,5 -12,1 -24,1 -36,1 -4,0 -8,-2 -8,-5 0,-1 0,-1 0,-2 0,-3 4,-5 8,-5zm75 -1c12,0 24,-1 36,-1 5,0 8,2 8,5 0,1 0,1 0,2 0,3 -4,5 -8,5 -12,0 -24,1 -36,1 -5,0 -8,-2 -8,-5 0,-1 0,-1 0,-2 0,-3 4,-5 8,-5zm87 10c0,-3 1,-7 1,-11 -5,0 -9,0 -13,0 -5,0 -8,2 -8,5 0,0 0,1 0,2 -1,2 3,5 8,5 4,0 8,0 12,-1zm-1175 43c5,6 11,9 18,12 8,0 17,0 26,0 4,0 8,-3 7,-6 0,-1 0,-2 0,-3 0,-3 -4,-6 -9,-6 -12,0 -24,0 -36,0 -3,0 -5,1 -6,3zm81 -4c12,0 24,0 36,0 4,-1 9,2 9,6 0,1 0,1 0,2 0,4 -3,6 -7,7 -13,0 -25,0 -37,0 -4,0 -8,-2 -8,-6 0,0 0,-1 0,-2 -1,-4 3,-7 7,-7zm75 -1c12,-1 23,-1 35,-1 5,0 9,2 9,6 0,1 0,1 1,2 0,4 -4,6 -8,7 -12,0 -24,0 -36,1 -4,0 -8,-3 -9,-6 0,-1 0,-2 0,-3 0,-3 3,-6 8,-6zm74 -2c12,-1 24,-1 36,-2 5,0 9,3 9,6 0,1 0,2 0,3 0,3 -3,6 -8,6 -12,0 -24,1 -36,1 -4,0 -8,-2 -8,-6 0,0 0,-1 0,-2 -1,-3 3,-6 7,-6zm75 -3c12,0 24,-1 36,-1 4,0 8,2 8,6 0,0 1,1 1,2 0,3 -4,6 -8,6 -12,1 -24,1 -36,2 -5,0 -8,-3 -9,-6 0,-1 0,-2 0,-2 0,-4 3,-7 8,-7zm74 -3c12,0 24,0 36,-1 5,0 9,2 9,6 0,1 0,1 0,2 0,3 -3,6 -8,6 -12,1 -24,1 -36,2 -4,0 -8,-3 -8,-6 0,-1 0,-1 0,-2 -1,-4 3,-6 7,-7zm75 -2c12,-1 24,-1 36,-2 4,0 8,3 8,6 0,1 1,1 1,2 0,3 -4,6 -8,6 -12,1 -24,1 -36,2 -5,0 -9,-2 -9,-6 0,0 0,-1 0,-2 0,-3 3,-6 8,-6zm74 -3c12,-1 24,-1 36,-1 5,-1 9,2 9,5 0,1 0,2 0,2 0,4 -3,6 -8,7 -12,0 -24,0 -36,1 -4,0 -8,-2 -8,-6 0,0 0,-1 0,-2 0,-3 3,-6 7,-6zm75 -2c12,-1 24,-1 36,-2 4,0 8,3 8,6 0,1 0,1 0,2 1,3 -3,6 -7,6 -12,0 -24,1 -36,1 -5,0 -8,-2 -9,-5 0,-1 0,-2 0,-3 0,-3 4,-5 8,-5zm74 -3c13,0 24,0 36,0 5,0 9,2 9,5 0,1 0,2 0,2 0,3 -3,6 -8,6 -12,0 -24,1 -36,1 -4,0 -8,-2 -8,-5 0,-1 0,-2 0,-3 -1,-3 3,-5 7,-6zm75 -1c12,0 24,0 36,-1 5,0 8,3 8,6 0,0 1,1 1,2 0,3 -4,5 -8,5 -12,1 -24,1 -36,1 -5,0 -9,-2 -9,-5 0,-1 0,-2 0,-2 0,-3 4,-6 8,-6zm75 -2c12,0 24,0 36,0 4,0 8,2 8,5 0,1 0,1 0,2 0,3 -3,5 -8,6 -12,0 -24,0 -36,0 -4,0 -8,-2 -8,-5 0,-1 0,-1 0,-2 0,-3 3,-6 8,-6zm74 -1c12,0 24,-1 36,-1 5,0 8,2 8,5 0,1 0,2 0,2 0,3 -3,6 -8,6 -12,0 -23,0 -35,1 -5,0 -9,-3 -9,-6 0,0 0,-1 0,-2 0,-3 4,-5 8,-5zm75 -2c12,0 24,0 36,0 4,0 8,2 8,5 0,0 0,1 0,2 0,3 -4,5 -8,5 -12,0 -24,1 -36,1 -4,0 -8,-2 -8,-5 0,-1 0,-1 0,-2 0,-3 3,-5 8,-6zm74 -1c12,0 24,0 36,-1 5,0 8,2 8,5 0,1 0,1 0,2 0,3 -3,5 -8,5 -12,1 -24,1 -36,1 -4,0 -8,-2 -8,-5 0,0 0,-1 0,-2 0,-3 4,-5 8,-5zm75 -1c12,-1 23,-1 36,-1 4,0 8,2 8,5 0,0 0,1 0,1 0,3 -4,5 -8,5 -13,1 -24,1 -36,1 -5,0 -8,-2 -8,-5 0,0 0,-1 0,-1 0,-3 3,-5 8,-5zm-460 -74c0,0 1,0 1,0 0,0 2,-1 3,-1 1,-1 2,-1 2,-2 1,0 3,-2 4,-4 1,-1 1,-3 2,-5 1,-3 1,-5 1,-8 0,-3 0,-6 -1,-8 -1,-2 -2,-4 -3,-6 0,-1 -2,-3 -3,-4 -3,-2 -4,-1 -5,-2 0,0 -1,0 -2,0 0,0 -1,0 -1,1 -1,0 -2,1 -3,1 -5,4 -7,11 -7,18 0,7 2,14 7,18 3,2 5,1 5,2zm0 -34c-3,0 -5,2 -6,5 -2,2 -3,6 -3,10 1,4 2,7 4,10 1,2 4,3 6,3 3,0 5,-2 6,-5 2,-3 3,-6 2,-10 0,-4 -1,-7 -3,-10 -1,-2 -4,-3 -6,-3zm60 32c0,0 0,0 1,0 0,0 1,0 1,0 3,-1 5,-4 7,-7 2,-3 2,-6 3,-9 0,-4 0,-7 -1,-10 -1,-2 -2,-4 -3,-6 -1,-3 -4,-5 -6,-5 -1,-1 -1,-1 -1,-1 -1,0 -2,0 -2,0 -1,1 -1,1 -2,1 -1,0 -2,1 -3,1 -1,2 -2,3 -3,4 -1,2 -2,4 -2,6 -1,5 -1,11 0,16 2,4 5,8 8,10 1,0 3,0 3,0zm-1 -32c-2,0 -4,2 -5,4 -2,3 -3,6 -2,10 0,4 1,7 3,9 1,3 3,4 6,4 2,-1 4,-2 5,-5 2,-3 2,-6 2,-10 0,-3 -1,-7 -3,-9 -1,-2 -3,-4 -6,-3zm-38 32c2,-1 3,-1 4,-1 0,-3 0,-7 0,-11 0,-4 0,-8 0,-12 0,0 3,5 4,6 1,2 2,4 4,6 1,2 2,4 4,6 1,3 2,4 3,6 0,-6 0,-12 0,-18 0,-6 0,-12 0,-18 -1,0 -2,0 -3,0 0,4 0,7 0,11 0,4 0,8 0,12 0,0 -2,-3 -2,-3 -2,-4 -5,-7 -7,-11 -2,-3 -5,-7 -7,-10 0,6 0,12 0,18 0,6 0,12 0,19zm-58 -28c0,1 0,2 0,3 0,0 0,1 1,1 0,3 2,5 4,7 3,2 9,3 9,8 0,2 -1,4 -2,5 -2,1 -5,1 -7,-1 0,0 -1,-1 -1,-1 -1,1 -2,3 -3,3 0,1 1,2 1,2 1,1 1,1 2,2 2,1 4,1 4,1 1,0 1,0 2,0 1,0 3,0 5,-3 1,-1 2,-3 3,-6 0,-4 -1,-6 -2,-8 -1,-2 -2,-3 -4,-4 -3,-2 -9,-4 -8,-9 1,-4 5,-5 8,-3 1,1 2,1 2,2 1,-1 2,-2 3,-3 0,-1 -2,-3 -3,-4 -1,0 -1,-1 -2,-1 -1,0 -2,-1 -2,-1 -1,0 -1,0 -2,0 0,1 -1,1 -2,1 -2,1 -4,2 -5,5 -1,2 0,4 -1,4zm122 27c0,0 1,0 2,0 0,0 2,0 4,-3 1,-1 1,-2 2,-4 0,-1 0,-2 0,-2 0,-1 0,-1 0,-2 0,0 0,-1 0,-1 -1,-3 -2,-5 -4,-7 -1,0 -2,-1 -3,-2 -1,0 -2,-1 -3,-2 -1,0 -2,-1 -2,-3 0,-5 4,-7 7,-4 0,0 1,1 1,1 1,-1 2,-2 3,-3 0,-1 -2,-2 -3,-3 -2,-2 -3,-1 -3,-2 -1,0 -1,0 -2,0 0,1 -2,0 -4,3 -1,2 -2,4 -2,6 -1,3 0,5 1,7 1,2 2,3 4,4 2,2 8,3 6,8 0,2 -1,4 -3,4 -1,0 -2,0 -3,-1 -1,0 -2,-1 -2,-1 0,0 -2,2 -2,3 0,0 0,1 1,1 1,2 2,3 4,3 0,0 1,0 1,0z"/>
  <path class="fil0" d="M1649 907c1,-2 2,-4 3,-6 5,-8 7,-19 7,-36l-50 -633 0 0c-1,-9 -6,-17 -14,-23l0 0c-4,-4 -8,-7 -13,-9 -387,-79 -752,-137 -1101,-176 -10,-1 -19,0 -27,2 -3,1 -6,2 -9,4 -6,3 -11,8 -14,14 -7,10 -10,23 -9,41 0,1 0,3 0,5 0,3 1,7 1,10 1,14 2,28 3,42l1 16c1,14 2,28 2,42l1 16c1,14 2,27 3,40 0,5 1,11 1,16 1,14 2,28 3,42 0,5 0,11 1,16 1,14 2,28 2,42l1 16c1,14 2,28 3,42 0,5 1,11 1,16 1,14 2,27 2,41l1 16c1,14 2,28 3,42 0,5 0,10 1,15 0,15 1,29 2,43l1 15c1,15 1,29 2,43 0,5 1,10 1,15 1,15 1,28 2,41l1 15c0,16 1,30 2,43l0 15c1,17 2,31 2,42 1,6 1,12 1,16 0,11 1,17 1,17 1,10 3,18 5,25l-2 0c2,6 3,11 6,16 1,0 1,0 2,0 3,6 7,11 11,15 -1,0 -1,1 -1,1 5,6 11,9 18,12 0,0 1,0 1,0 9,4 18,6 29,6l548 -17c186,-5 374,-11 565,-16zm-1237 -42c0,0 -9,-247 -44,-764 -2,-16 3,-32 12,-44l24 -18 0 0 1 0 6 -4c-8,14 -11,32 -10,55 36,517 48,775 48,775 3,43 23,76 46,89l-36 -2c-24,-13 -44,-44 -47,-87zm-375 -557c-12,19 -14,44 -12,70 9,158 10,334 26,490 3,35 26,54 53,62 -1,0 -1,0 -1,0l0 0c-20,-3 -36,-10 -47,-22 -11,-11 -18,-26 -21,-45l-26 -498 0 0c0,-11 1,-22 5,-30 3,-9 10,-17 18,-23l0 0 5 -4zm1623 598c-6,11 -15,17 -25,19l-1 0 0 0 -1119 39 0 0 0 0 -410 -24 0 0 0 0 0 0 0 0c-1,0 -2,0 -4,-1l0 0c-22,-3 -39,-11 -51,-24 -13,-13 -21,-30 -25,-51l0 -1 0 0 -25 -497 0 0c-1,-13 1,-25 5,-35 5,-10 12,-19 22,-26l0 -1 372 -272 0 0 1 -1c26,-17 46,-31 72,-31l0 0 0 0c209,27 404,55 586,85 182,31 350,63 505,97l0 0c10,2 26,10 38,20l0 0c9,8 16,18 17,29l0 0 50 634 0 0c0,18 -3,31 -8,41z"/>
 </g>
</svg>
