<?xml version="1.0" encoding="UTF-8"?>
<!DOCTYPE svg PUBLIC "-//W3C//DTD SVG 1.1//EN" "http://www.w3.org/Graphics/SVG/1.1/DTD/svg11.dtd">
<!-- Creator: CorelDRAW X7 -->
<svg xmlns="http://www.w3.org/2000/svg" xml:space="preserve" width="192.307mm" height="62.6521mm" version="1.1" style="shape-rendering:geometricPrecision; text-rendering:geometricPrecision; image-rendering:optimizeQuality; fill-rule:evenodd; clip-rule:evenodd"
viewBox="0 0 1582 515"
 xmlns:xlink="http://www.w3.org/1999/xlink">
 <defs>
  <style type="text/css">
   <![CDATA[
    .fil1 {fill:#2B2A29}
    .fil0 {fill:#231F20}
   ]]>
  </style>
 </defs>
 <g id="Layer_x0020_1">
  <metadata id="CorelCorpID_0Corel-Layer"/>
  <g id="_708731096432">
   <path class="fil0" d="M1069 374c0,0 1,0 1,0 0,0 1,-1 2,-1 0,0 1,-1 1,-1 1,-1 2,-2 3,-3 0,-1 1,-3 1,-5 1,-1 1,-3 1,-6 0,-2 -1,-4 -1,-6 -1,-1 -1,-3 -2,-4 0,-1 -1,-2 -2,-3 -2,-1 -3,-1 -3,-1 -1,0 -1,0 -2,0 0,0 0,0 -1,0 0,0 -1,1 -2,2 -1,1 -3,3 -3,5 -1,3 -2,5 -2,8 0,3 1,5 2,8 1,2 2,4 4,6 1,1 3,1 3,1zm0 -26c-2,0 -4,2 -5,4 0,1 0,2 -1,3 0,2 0,3 0,5 0,3 1,5 2,7 2,2 3,3 5,2 2,0 3,-1 4,-3 0,-2 1,-3 1,-4 0,-1 0,-3 0,-4 0,-3 -1,-6 -2,-7 -1,-2 -3,-3 -4,-3z"/>
   <path class="fil0" d="M1107 370c1,0 1,0 1,0 0,0 1,0 1,0 2,-1 3,-3 4,-5 1,-2 1,-5 1,-7 0,-2 0,-5 -1,-7 0,-2 -1,-3 -1,-4 -1,-2 -3,-3 -4,-4 0,0 -1,0 -1,0 0,0 -1,0 -1,0 0,0 -1,0 -1,0 0,1 -1,1 -2,2 0,1 -1,2 -2,3 0,1 0,2 -1,4 0,2 0,4 0,6 0,2 0,4 1,5 1,4 3,6 5,7 0,0 1,0 1,0zm-1 -23c-1,0 -2,1 -3,3 -1,2 -1,5 -1,8 0,2 1,5 2,6 1,2 2,3 4,2 1,0 2,-1 3,-3 1,-2 1,-5 1,-7 0,-3 -1,-5 -2,-7 -1,-1 -2,-2 -4,-2z"/>
   <path class="fil0" d="M1083 372c1,0 2,0 3,0 0,-2 0,-3 0,-5 0,-1 -1,-3 -1,-4 0,-2 0,-3 0,-5 0,-1 0,-3 0,-4 0,0 2,4 3,4 1,2 2,3 2,5 1,1 2,3 3,4 1,2 2,3 3,4 -1,-2 -1,-4 -1,-6 0,-3 0,-5 0,-7 0,-2 0,-5 0,-7 0,-2 0,-4 0,-7 -1,0 -2,0 -3,0 1,2 1,3 1,5 0,1 0,3 0,4 0,1 0,3 0,4 0,2 0,3 0,5 0,0 -1,-2 -1,-2 -1,-2 -2,-3 -2,-4 -1,-2 -2,-3 -3,-4 -1,-1 -1,-3 -2,-4 -1,-1 -2,-3 -2,-4 0,2 0,5 0,7 0,2 0,4 0,7 0,2 0,4 0,7 0,2 0,4 0,7z"/>
   <path class="fil0" d="M1043 352c0,1 0,1 0,2 0,0 0,0 0,1 1,2 2,4 3,5 3,2 7,2 7,6 0,2 -1,3 -2,4 -1,1 -3,0 -5,-1 0,0 0,0 0,0 -1,0 -2,2 -2,2 0,1 0,1 1,2 0,0 0,0 1,1 1,1 2,1 3,1 0,0 1,0 1,0 1,0 2,0 4,-3 1,-1 1,-2 2,-5 0,-2 -1,-4 -1,-6 -1,-1 -2,-2 -3,-3 -2,-1 -7,-2 -6,-6 1,-3 3,-4 5,-3 1,1 2,1 2,1 1,0 1,-1 2,-2 0,-1 -1,-2 -2,-3 0,0 -1,0 -1,0 -1,-1 -2,-1 -2,-1 0,0 -1,0 -1,0 -1,0 -1,0 -1,1 -2,0 -3,2 -4,4 -1,2 -1,2 -1,3z"/>
   <path class="fil0" d="M1122 368c0,0 1,0 1,0 0,0 2,0 3,-2 0,-1 0,-2 0,-3 0,-1 0,-1 1,-2 -1,0 -1,0 -1,-1 0,0 0,0 0,-1 0,-2 -1,-3 -2,-4 -1,0 -1,-1 -2,-1 0,0 -1,-1 -2,-1 0,-1 -1,-1 -1,-3 0,-3 2,-4 4,-2 0,0 1,0 1,0 0,0 1,-1 1,-2 0,0 -1,-1 -1,-2 -2,-1 -2,-1 -2,-1 -1,0 -1,0 -1,0 0,0 -2,0 -3,2 0,1 -1,3 -1,4 0,2 0,4 1,5 1,1 2,2 2,3 2,1 5,1 5,5 -1,1 -1,2 -2,3 -1,0 -1,-1 -2,-1 -1,0 -1,-1 -1,-1 0,0 -2,2 -2,2 1,1 1,1 1,1 1,1 2,2 3,2 0,0 0,0 0,0z"/>
  </g>
  <g>
   <path class="fil1" d="M128 0c-3,0 -6,0 -9,0l-36 2 -34 2c-13,1 -25,7 -33,16 -8,9 -14,21 -14,34l-1 201 -1 203c0,13 5,25 13,34 9,10 20,16 33,17l35 3 36 3c3,1 6,1 9,0l126 -11 0 0 1274 -110 2 0 0 0 0 0 0 0 0 0 0 0 0 0 0 0 0 0 0 0 0 0 14 -1c10,-1 19,-4 26,-8 9,-5 14,-12 14,-20l-2 -121 -3 -109c0,-7 -4,-14 -12,-18 -2,-1 -5,-3 -10,-4l-1427 -113 0 0zm152 446c-2,-89 -1,-89 37,-91l1206 -47c24,-1 26,3 26,40 0,19 -1,32 -7,39l-1279 111c0,0 0,0 0,0 -1,0 18,-24 17,-52zm1248 -52l0 0 0 0 0 0 0 0 0 0 0 0zm-1370 -346l0 209 1 210c0,20 -16,35 -35,33l-41 -3 -41 -3c-18,-1 -33,-18 -33,-37l0 -202 0 -200c0,-19 15,-35 33,-36l40 -3 41 -2c19,-1 35,14 35,34z"/>
  </g>
  <path class="fil1" d="M52 40l32 -3 32 -2c1,0 2,0 2,0 8,0 14,3 19,9 5,5 8,13 9,21 0,1 0,2 0,3l1 190 0 189c0,1 0,2 0,3 -1,8 -4,16 -9,21 -5,5 -11,8 -18,8 -1,0 -2,0 -2,0l-33 -3 -32 -2c-7,-1 -14,-5 -19,-12 -5,-6 -8,-15 -8,-24l-1 -181 -1 -182c0,-9 3,-18 8,-24 5,-7 12,-11 20,-11zm-15 41c0,-17 12,-31 26,-32l33 -2 32 -1 5 -1c0,1 1,1 1,2 5,4 7,11 8,19 0,1 0,1 0,2l1 190 0 189c0,1 0,2 0,3 -1,7 -4,13 -8,18 -1,1 -1,2 -2,2 -1,0 -2,0 -3,0l-34 -2 -33 -2c-14,-1 -26,-16 -26,-33l0 -176 0 -176z"/>
  <path class="fil1" d="M97 401l-20 -1 -19 -1c-3,0 -5,2 -5,6l0 9 1 10c0,3 2,6 4,6l19 1 20 1c2,0 4,-2 5,-5l0 -10 0 -10c0,-4 -2,-6 -5,-6z"/>
  <path class="fil1" d="M113 407l-1 10 0 10c0,3 3,6 6,6l5 0 6 1c3,0 5,-3 6,-6l0 -11 0 -10c0,-3 -3,-6 -6,-6l-5 0 -6 0c-3,0 -5,3 -5,6z"/>
  <path class="fil1" d="M306 372c-11,0 -17,13 -9,20 2,2 5,3 8,3l41 -2c6,-1 11,-6 11,-12 1,-6 -4,-10 -10,-10l-41 1z"/>
  <path class="fil1" d="M41 449c2,4 5,8 8,11l0 -12c0,-1 0,-2 -1,-3l0 0c-1,0 -2,-1 -3,-1l-1 0c-1,0 -2,0 -2,1 -1,0 -1,1 -1,2l0 0 0 0 0 0 0 0 0 0 0 2zm21 -59l17 0 0 -3 0 0 0 0 0 0 0 0 0 0c0,-1 1,-2 1,-3 1,0 2,-1 3,-1l1 0c1,0 2,1 3,2l0 0c0,0 1,1 1,2l0 3 6 1 12 0 0 -3 0 0 0 0 0 0 0 0 0 0c0,-1 1,-2 1,-2 1,-1 2,-1 3,-1l1 0c1,0 2,0 3,1l0 0c1,1 1,2 1,3l0 2 7 0c-1,0 -1,0 -1,0l0 0c-1,-1 -1,-2 -1,-3l0 0 0 0 0 0 0 0 0 0 0 -12 0 0 0 0 0 0 0 0 0 0c0,-1 0,-2 1,-3 1,0 2,-1 3,-1l1 0c1,0 2,1 2,2l0 0c1,0 2,1 2,2l0 13c0,1 -1,2 -2,2l0 0 0 0c0,0 0,0 0,1l4 0c1,0 2,0 2,0l0 -3 0 0 0 0 0 0 0 0 0 0c0,-1 1,-1 1,-2 1,-1 2,-1 3,-1l1 0c1,0 2,1 3,1l0 0c1,1 1,2 1,3l0 13c0,0 0,1 -1,2l0 8c1,1 1,2 1,3l0 12c0,1 0,2 -1,3l0 0 0 0 0 0 0 1 0 0 0 1 0 0c0,2 -1,4 -2,5 1,0 1,1 2,1l0 0c1,1 1,2 1,3l0 12c0,1 0,2 -1,3l0 0 0 0c-1,0 -2,1 -3,0l-1 0c-1,0 -2,0 -3,-1l0 0c0,-1 -1,-1 -1,-2l0 0 0 0 0 0 0 0 0 0 0 -13 0 0 0 0 0 0 0 0c0,0 -1,0 -2,0l0 0 0 0 0 0 -2 0c-1,1 -1,1 -2,2l0 0 0 0c0,0 -1,1 -2,1l-1 -1c-1,0 -2,0 -3,-1l0 0c-1,0 -1,-1 -1,-1l-5 -1 0 12c0,1 0,2 -1,3l0 0 0 0c-1,0 -2,1 -3,0l-1 0c-1,0 -2,0 -2,-1l0 0c-1,0 -2,-1 -2,-2l0 0 0 0 0 0 0 0 0 0 0 -12 -5 0c0,0 0,1 0,1l0 0 0 0c-1,0 -2,1 -3,1l-1 0c-1,0 -2,-1 -3,-2l0 0c0,0 0,0 0,0l-6 -1 0 11c0,1 0,2 -1,3l0 0 0 0c-1,0 -2,1 -3,1l-1 -1c-1,0 -2,0 -2,-1l0 0c-1,0 -1,-1 -2,-2l0 0 0 0 0 0 0 0 0 0 0 -11 -5 0c0,0 0,0 0,0l0 0 0 0c-1,1 -2,1 -3,1l-1 0c-1,0 -2,-1 -3,-1l0 0c0,-1 0,-1 0,-1l-5 0 0 10c0,1 0,2 -1,3l0 0 0 0c-1,0 -2,1 -3,1l-1 0c-1,-1 -2,-1 -2,-2l0 0c-1,0 -1,-1 -2,-2l0 0 0 0 0 0 0 0 0 0 0 -11c0,-1 -1,-1 -2,-2 -1,-1 -2,-2 -2,-3l0 3c0,1 0,2 -1,2l0 0 0 0c-1,1 -2,1 -3,1l-1 0c-1,0 -2,0 -2,-1l0 0c-1,-1 -1,-2 -1,-3l0 0 0 0 0 0 0 0 0 0 -1 -12 0 0 0 0 0 0 0 0 0 0c1,-1 1,-2 2,-2 0,-1 1,-1 2,-1l1 0c1,0 2,1 3,1l0 0c0,0 0,0 0,1l0 -8 0 -1c0,0 0,0 0,0l0 0 0 0c-1,1 -2,1 -3,1l-1 0c-1,0 -2,-1 -2,-1l0 0c-1,-1 -2,-2 -2,-3l0 0 0 0 0 0 0 0 0 0 0 -12 0 0 0 0 0 0 0 0 0 0c0,-1 1,-2 1,-2 1,-1 2,-1 3,-1l1 0c1,0 2,0 3,1l0 0c0,0 0,1 0,1 1,-2 2,-3 3,-4 0,-1 1,-1 2,-2l0 -5 0 0 0 0 0 0 0 0 0 0c0,-1 1,-2 1,-2 1,-1 2,-1 3,-1l1 0c1,0 2,1 3,1l0 0c0,1 1,2 1,3l0 4zm32 2l-37 -1 0 0c-2,0 -4,1 -5,2 -2,1 -2,3 -2,5l0 0 0 15 0 15c0,2 1,4 2,6 2,1 4,2 6,2l36 2 37 2 0 0c2,0 4,-1 6,-2 1,-2 2,-4 2,-6l0 0 1 -15 0 -15c0,-3 -1,-5 -3,-6 -1,-2 -3,-3 -6,-3l-37 -1zm48 -336c-1,-4 -3,-8 -6,-11l-3 0c0,1 0,1 0,1l0 0 0 0 0 0 0 0 0 0 0 13 0 0 0 0 0 0 0 0 0 0c0,1 1,2 1,3l0 0c1,0 2,1 3,0l1 0c1,0 2,0 3,-1l0 0 0 0c1,-1 1,-1 1,-3l0 -2zm-28 -10l-8 1c0,0 0,0 0,0l0 0 0 0 0 0 0 0 0 0 0 13 0 0 0 0 0 0 0 0 0 0c0,1 0,2 1,3l0 0c0,1 1,1 3,1l1 0c1,0 2,-1 2,-1l0 0 0 0c1,-1 2,-2 2,-3l0 -13c0,0 0,0 -1,-1zm-27 2l-9 0c0,1 0,1 0,1l0 0 0 0 0 0 0 0 0 0 0 13 0 0 0 0 0 0 0 0 0 0c0,1 1,2 1,2l0 0c1,1 2,1 3,1l1 0c1,0 2,0 3,-1l0 0 0 0c0,-1 1,-2 1,-3l0 -13c0,0 0,0 0,0zm-27 2c-3,0 -6,1 -9,3l0 10 0 0 0 0 0 0 0 0 0 0c1,1 1,2 2,2l0 1c0,0 1,0 2,0l1 0c1,0 2,0 3,-1l0 0 0 0c1,-1 1,-1 1,-2l0 -13 0 0zm-16 10c-3,3 -4,7 -6,11l0 6 0 0 0 0 0 0 0 0 0 0c0,1 1,2 2,2l0 0c0,1 1,1 2,1l1 0c1,0 2,-1 3,-1l0 0 0 0c1,-1 1,-2 1,-3l0 -12c0,-1 0,-2 -1,-3l0 0c-1,0 -1,-1 -2,-1zm98 12l0 13c0,1 0,2 -1,3l0 0 0 0c-1,1 -2,1 -3,1l-1 0c-1,0 -2,0 -3,-1l0 0c0,0 -1,-1 -1,-2l0 0 0 0 0 0 0 0 0 0 0 -13 0 0 0 0 0 0 0 0 0 0c0,-1 1,-2 1,-3 1,-1 2,-1 3,-1l1 0c1,0 2,0 3,1l0 0c1,1 1,1 1,2zm0 27l0 13c0,1 0,2 -1,3l0 0 0 0c-1,1 -2,1 -3,1l-1 0c-1,0 -2,0 -3,-1l0 0c0,0 -1,-1 -1,-2l0 0 0 0 0 0 0 0 0 0 0 -13 0 0 0 0 0 0 0 0 0 0c0,-1 1,-2 1,-3 1,-1 2,-1 3,-1l1 0c1,0 2,0 3,1l0 0c1,0 1,1 1,2zm0 27l0 13c0,1 0,2 -1,3l0 0 0 0c-1,0 -2,1 -3,1l-1 0c-1,0 -2,0 -3,-1l0 0c0,-1 -1,-2 -1,-3l0 0 0 0 0 0 0 0 0 0 0 -13 0 0 0 0 0 0 0 0 0 0c0,-1 1,-1 1,-2 1,-1 2,-1 3,-1l1 0c1,0 2,0 3,1l0 0c1,0 1,1 1,2zm0 27l0 13c0,1 0,2 -1,2l0 0 0 0c-1,1 -2,2 -3,2l-1 0c-1,0 -2,-1 -3,-1l0 0c0,-1 -1,-2 -1,-3l0 0 0 0 0 0 0 0 0 0 0 -13 0 0 0 0 0 0 0 0 0 0c0,-1 1,-2 1,-2 1,-1 2,-2 3,-2l1 0c1,0 2,1 3,1l0 0c1,1 1,2 1,3zm0 27l0 12c0,1 0,2 -1,3l0 0 0 0c-1,1 -2,1 -3,1l-1 0c-1,0 -2,0 -3,-1l0 0c0,-1 -1,-1 -1,-2l0 0 0 0 0 0 0 0 0 0 0 -13 0 0 0 0 0 0 0 0 0 0c0,-1 1,-2 1,-3 1,-1 2,-1 3,-1l1 0c1,0 2,0 3,1l0 0c1,1 1,2 1,3zm0 26l0 13c0,1 0,2 -1,3l0 0 0 0c-1,0 -2,1 -3,1l-1 0c-1,0 -2,-1 -3,-1l0 0c0,-1 -1,-2 -1,-3l0 0 0 0 0 0 0 0 0 0 0 -13 0 0 0 0 0 0 0 0 0 0c0,-1 1,-2 1,-2 1,-1 2,-1 3,-1l1 0c1,0 2,0 3,1l0 0c1,0 1,1 1,2zm0 27l0 12c0,1 0,2 -1,3l0 0 0 0c-1,1 -2,1 -3,1l-1 0c-1,0 -2,0 -3,-1l0 0c0,-1 -1,-2 -1,-2l0 0 0 -1 0 0 0 0 0 0 0 -12 0 0 0 0 0 0 0 0 0 -1c0,0 1,-1 1,-2 1,-1 2,-1 3,-1l1 0c1,0 2,0 3,1l0 0c1,1 1,2 1,3zm0 26l0 13c0,1 0,2 -1,2l0 0 0 0c-1,1 -2,1 -3,1l-1 0c-1,0 -2,0 -3,-1l0 0c0,0 -1,-1 -1,-2l0 0 0 0 0 0 0 0 0 0 0 -13 0 0 0 0 0 0 0 0 0 0c0,-1 1,-2 1,-3 1,0 2,-1 3,-1l1 0c1,0 2,1 3,1l0 0c1,1 1,2 1,3zm0 26l0 13c0,1 0,2 -1,3l0 0 0 0c-1,0 -2,1 -3,1l-1 0c-1,0 -2,-1 -3,-2l0 0c0,0 -1,-1 -1,-2l0 0 0 0 0 0 0 0 0 0 0 -13 0 0 0 0 0 0 0 0 0 0c0,-1 1,-2 1,-2 1,-1 2,-1 3,-1l1 0c1,0 2,0 3,1l0 0c1,1 1,1 1,2zm0 27l0 12c0,1 0,2 -1,3l0 0 0 0c-1,0 -2,1 -3,1l-1 0c-1,0 -2,-1 -3,-1l0 0c0,-1 -1,-2 -1,-3l0 0 0 0 0 0 0 0 0 0 0 -13 0 0 0 0 0 0 0 0 0 0c0,-1 1,-1 1,-2 1,-1 2,-1 3,-1l1 0c1,0 2,0 3,1l0 0c1,1 1,2 1,3zm0 26l0 12c0,1 0,2 -1,3l0 0 0 0c-1,1 -2,1 -3,1l-1 0c-1,0 -2,-1 -3,-1l0 0c0,-1 -1,-2 -1,-3l0 0 0 0 0 0 0 0 0 0 0 -12 0 0 0 -1 0 0 0 0 0 0c0,-1 1,-1 1,-2 1,-1 2,-1 3,-1l1 0c1,0 2,1 3,1l0 0c1,1 1,2 1,3zm0 26l0 13c0,0 0,1 -1,2l0 0 0 0c-1,1 -2,1 -3,1l-1 0c-1,0 -2,-1 -3,-1l0 0c0,-1 -1,-2 -1,-3l0 0 0 0 0 0 0 0 0 0 0 -12 0 0 0 -1 0 0 0 0 0 0c0,-1 1,-1 1,-2 1,-1 2,-1 3,-1l1 0c1,0 2,1 3,1l0 0c1,1 1,2 1,3zm-14 -304l0 13c0,1 0,1 -1,2l0 0 0 0c-1,1 -2,1 -3,1l-1 0c-1,1 -2,0 -3,-1l0 0c0,0 -1,-1 -1,-2l0 0 0 0 0 0 0 0 0 0 0 -13 0 0 0 0 0 0 0 0 0 0c0,-1 1,-2 1,-3 1,0 2,-1 3,-1l1 0c1,0 2,0 3,1l0 0c1,1 1,2 1,3zm0 26l0 13c0,1 0,2 -1,3l0 0 0 0c-1,1 -2,1 -3,1l-1 0c-1,0 -2,0 -2,-1l0 0c-1,0 -2,-1 -2,-2l0 0 0 0 0 0 0 0 0 0 0 -13 0 0 0 0 0 0 0 0 0 0c0,-1 1,-2 1,-3 1,-1 2,-1 3,-1l1 0c1,0 2,0 3,1l0 0c1,0 1,1 1,2zm0 27l0 13c0,1 0,2 -1,3l0 0 0 0c-1,0 -1,1 -3,1l-1 0c-1,0 -2,-1 -2,-1l0 0c-1,-1 -2,-2 -2,-3l0 0 0 0 0 0 0 0 0 0 0 -13 0 0 0 0 0 0 0 0 0 0c0,-1 1,-2 2,-2 0,-1 1,-1 2,-1l1 0c1,0 2,0 3,1l0 0c1,0 1,1 1,2zm0 27l0 13c0,1 0,2 -1,2l0 0 0 0c0,1 -1,1 -3,1l-1 0c-1,0 -2,0 -2,-1l0 0c-1,0 -2,-1 -2,-2l0 0 0 0 0 0 0 0 0 0 0 -13 0 0 0 0 0 0 0 0 0 0c0,-1 1,-2 2,-3 0,0 1,-1 2,-1l1 0c2,0 2,1 3,1l0 0c1,1 1,2 1,3zm0 26l0 13c0,1 0,2 -1,3l0 0 0 0c0,0 -1,1 -3,1l-1 0c-1,0 -2,0 -2,-1l0 0c-1,-1 -2,-2 -2,-3l0 0 0 0 0 0 0 0 0 0 0 -12 0 0 0 0 0 -1 0 0 0 0c0,-1 1,-1 2,-2 0,-1 1,-1 2,-1l1 0c2,0 3,0 3,1l0 0c1,1 1,1 1,2zm0 27l0 13c0,1 0,2 -1,2l0 0 0 0c0,1 -1,1 -2,1l-2 0c-1,0 -2,0 -2,-1l0 0c-1,0 -1,-1 -2,-2l0 0 0 0 0 0 0 0 0 0 0 -13 0 0 0 0 0 0 0 0 0 0c0,-1 1,-2 2,-3 0,0 1,-1 2,-1l1 0c2,0 3,1 3,1l0 0c1,1 1,2 1,3zm0 26l0 13c0,1 0,2 -1,3l0 0 0 0c0,0 -1,1 -2,1l-2 0c-1,0 -2,-1 -2,-1l0 0c-1,-1 -1,-2 -1,-3l0 0 0 0 0 0 0 0 0 0 -1 -13 0 0 0 0 0 0 0 0 0 0c1,-1 1,-2 2,-2 0,-1 1,-1 2,-1l2 0c1,0 2,0 2,1l0 0c1,0 1,1 1,2zm0 27l0 12c0,1 0,2 -1,3 0,1 -1,1 -2,1l-2 0c-1,0 -2,-1 -2,-1 -1,-1 -1,-2 -1,-3l0 0 0 0 0 0 0 0 0 0 0 -12 0 0 0 0 0 0 0 -1 0 0c0,0 0,-1 1,-2 0,-1 1,-1 2,-1l2 0c1,0 2,0 2,1 1,1 1,2 1,3zm0 26l1 13c0,1 -1,1 -2,2l0 0 0 0c0,1 -1,1 -2,1l-2 0c-1,0 -2,0 -2,-1l0 0c-1,-1 -1,-1 -1,-2l0 0 0 -1 0 0 0 0 0 0 0 -12 0 0 0 0 0 0 0 0 0 0c0,-1 0,-2 1,-3 0,0 1,-1 2,-1l2 0c1,0 2,1 2,1l0 0c1,1 1,2 1,3zm1 26l0 13c0,1 -1,2 -2,2l0 0 0 0c0,1 -1,1 -2,1l-1 0c-2,0 -3,0 -3,-1l0 0c-1,-1 -1,-1 -1,-2l0 0 0 0 0 0 0 0 0 -1 0 -12 0 0 0 0 0 0 0 0 0 0c0,-1 0,-2 1,-3 0,0 1,-1 2,-1l2 0c1,0 2,1 2,2l0 0c1,0 2,1 2,2zm0 26l0 13c0,1 -1,2 -2,2l0 0 0 0c0,1 -1,1 -2,1l-1 0c-2,0 -3,0 -3,-1l0 0c-1,-1 -1,-1 -1,-2l0 0 0 0 0 0 0 0 0 -1 0 -12 0 0 0 0 0 0 0 0 0 0c0,-1 0,-2 1,-3 0,0 1,-1 3,0l1 0c1,0 2,0 2,1l0 0c1,0 2,1 2,2zm0 26l0 13c0,1 -1,2 -2,2l0 0 0 0c0,1 -1,1 -2,1l-1 0c-2,0 -2,0 -3,-1l0 0c-1,-1 -1,-2 -1,-2l0 0 0 0 0 -1 0 0 0 0 0 -12 0 0 0 0 0 0 0 0 0 0c0,-1 0,-2 1,-3 1,0 1,-1 3,-1l1 1c1,0 2,0 2,1l0 0c1,0 2,1 2,2zm0 104l0 12c0,1 -1,2 -1,2l0 0 0 0c-1,1 -2,1 -3,1l-1 0c-1,0 -2,0 -3,-1l0 0c-1,-1 -1,-2 -1,-3l0 0 0 0 0 0 0 0 0 0 0 -12 0 0 0 0 0 0 0 0 0 0c0,-1 0,-2 1,-3 1,0 2,0 3,0l1 0c1,0 2,0 2,1l0 0c1,1 2,2 2,3zm-14 -380l0 13c0,1 -1,2 -2,2l0 0 0 0c0,1 -1,1 -2,1l-1 1c-2,0 -2,-1 -3,-1l0 0c-1,-1 -1,-2 -1,-3l0 0 0 0 0 0 0 0 0 0 0 -13 0 0 0 0 0 0 0 0 0 0c0,-1 0,-2 1,-3 0,0 1,-1 3,-1l1 0c1,0 2,0 2,1l0 0c1,1 2,2 2,3zm0 26l0 13c0,1 -1,2 -2,3l0 0 0 0c0,1 -1,1 -2,1l-1 0c-1,0 -2,0 -3,-1l0 0c-1,-1 -1,-1 -1,-2l0 0 0 0 0 0 0 0 0 0 0 -13 0 0 0 0 0 0 0 0 0 0c0,-1 0,-2 1,-3 1,-1 1,-1 3,-1l1 0c1,0 2,0 2,1l0 0c1,0 2,1 2,2zm0 27l0 13c0,1 -1,2 -1,2l0 0 0 0c-1,1 -2,2 -3,2l-1 0c-1,0 -2,-1 -3,-1l0 0c-1,-1 -1,-2 -1,-3l0 0 0 0 0 0 0 0 0 0 0 -13 0 0 0 0 0 0 0 0 0 0c0,-1 0,-2 1,-2 1,-1 2,-1 3,-2l1 0c1,0 2,1 2,1l0 0c1,1 2,2 2,3zm0 27l0 12c0,1 -1,2 -1,3l0 0 0 0c-1,1 -2,1 -3,1l-1 0c-1,0 -2,0 -3,-1l0 0c-1,-1 -1,-1 -1,-2l0 0 0 0 0 0 0 -1 0 0 0 -12 0 0 0 0 0 0 0 0 0 0c0,-1 0,-2 1,-3 1,-1 2,-1 3,-1l1 0c1,0 2,0 3,1l0 0c0,1 1,2 1,3zm0 26l0 13c0,1 -1,2 -1,2l0 0 0 0c-1,1 -2,1 -3,1l-1 0c-1,0 -2,0 -3,-1l0 0c-1,0 -1,-1 -1,-2l0 0 0 0 0 0 0 0 0 0 0 -13 0 0 0 0 0 0 0 0 0 0c0,-1 0,-2 1,-3 1,0 2,-1 3,-1l1 0c1,0 2,1 3,1l0 0c0,1 1,2 1,3zm0 26l0 13c0,1 -1,2 -1,3l0 0 0 0c-1,0 -2,1 -3,1l-1 0c-1,0 -2,-1 -3,-1l0 0c-1,-1 -1,-2 -1,-3l0 0 0 0 0 0 0 0 0 0 0 -13 0 0 0 0 0 0 0 0 0 0c0,-1 0,-2 1,-2 1,-1 2,-1 3,-1l1 0c1,0 2,0 3,1l0 0c0,0 1,1 1,2zm0 27l0 12c0,1 -1,2 -1,3l0 0 0 0c-1,0 -2,1 -3,1l-1 0c-1,0 -2,-1 -3,-1l0 0c-1,-1 -1,-2 -1,-3l0 0 0 0 0 0 0 0 0 0 0 -12 0 0 0 -1 0 0 0 0 0 0c0,-1 0,-1 1,-2 1,-1 2,-1 3,-1l1 0c1,0 2,0 3,1l0 0c0,1 1,2 1,3zm0 26l0 12c0,1 -1,2 -1,3l0 0 0 0c-1,1 -2,1 -3,1l-1 0c-1,0 -2,-1 -3,-1l0 0c0,-1 -1,-2 -1,-3l0 0 0 0 0 0 0 0 0 0 0 -12 0 0 0 0 0 0 0 0 0 0c0,-1 0,-2 1,-3 1,0 2,-1 3,-1l1 0c1,0 2,1 3,1l0 0c0,1 1,2 1,3zm0 26l0 12c0,1 -1,2 -1,3l0 0 0 0c-1,1 -2,1 -3,1l-1 0c-1,0 -2,-1 -3,-1l0 0c0,-1 -1,-2 -1,-3l0 0 0 0 0 0 0 0 0 0 0 -12 0 0 0 0 0 0 0 0 0 0c0,-1 1,-2 1,-3 1,0 2,-1 3,-1l1 0c1,0 2,1 3,1l0 0c0,1 1,2 1,3zm0 26l0 12c0,1 0,2 -1,3l0 0 0 0c-1,1 -2,1 -3,1l-1 0c-1,0 -2,-1 -3,-1l0 0c0,-1 -1,-2 -1,-3l0 0 0 0 0 0 0 0 0 0 0 -12 0 0 0 0 0 0 0 0 0 0c0,-1 1,-2 1,-3 1,0 2,-1 3,-1l1 0c1,0 2,1 3,1l0 0c1,1 1,2 1,3zm0 26l0 12c0,1 0,2 -1,3l0 0 0 0c-1,0 -2,1 -3,1l-1 0c-1,0 -2,-1 -3,-1l0 0c0,-1 -1,-2 -1,-3l0 0 0 0 0 0 0 0 0 0 0 -12 0 0 0 -1 0 0 0 0 0 0c0,-1 1,-1 1,-2 1,-1 2,-1 3,-1l1 0c1,0 2,1 3,1l0 0c1,1 1,2 1,3zm0 26l0 12c0,1 0,2 -1,3l0 0 0 0c-1,0 -2,1 -3,1l-1 0c-1,-1 -2,-1 -3,-2l0 0c0,0 -1,-1 -1,-2l0 0 0 0 0 0 0 0 0 0 0 -13 0 0 0 0 0 0 0 0 0 0c0,-1 1,-2 1,-2 1,-1 2,-1 3,-1l1 0c1,0 2,0 3,1l0 0c1,1 1,2 1,3zm-14 -302l0 13c0,1 0,2 -1,2l0 0 0 0c-1,1 -2,2 -3,2l-1 0c-1,0 -2,-1 -3,-1l0 0c0,-1 -1,-2 -1,-3l0 0 0 0 0 0 0 0 0 0 0 -13 0 0 0 0 0 0 0 0 0 0c0,-1 0,-2 1,-2 1,-1 2,-1 3,-2l1 0c1,0 2,1 3,1l0 0c0,1 1,2 1,3zm0 27l0 12c0,1 0,2 -1,3l0 0 0 0c-1,1 -2,1 -3,1l-1 0c-1,0 -2,0 -3,-1l0 0c0,0 -1,-1 -1,-2l0 0 0 0 0 0 0 0 0 0 0 -13 0 0 0 0 0 0 0 0 0 0c0,-1 1,-2 1,-3 1,0 2,-1 3,-1l1 0c1,0 2,0 3,1l0 0c1,1 1,2 1,3zm0 26l0 13c0,1 0,2 -1,2l0 0 0 0c-1,1 -2,2 -3,2l-1 0c-1,0 -2,-1 -3,-1l0 0c0,-1 -1,-2 -1,-3l0 0 0 0 0 0 0 0 0 0 0 -13 0 0 0 0 0 0 0 0 0 0c0,-1 1,-2 1,-2 1,-1 2,-1 3,-1l1 0c1,-1 2,0 3,1l0 0c1,0 1,1 1,2zm0 26l0 13c0,1 0,2 -1,3l0 0 0 0c-1,1 -2,1 -3,1l-1 0c-1,0 -2,0 -3,-1l0 0c0,-1 -1,-1 -1,-2l0 0 0 -1 0 0 0 0 0 0 0 -12 0 0 0 0 0 0 0 0 0 0c0,-1 1,-2 1,-3 1,-1 2,-1 3,-1l1 0c1,0 2,0 3,1l0 0c1,1 1,2 1,2zm0 27l0 13c0,1 0,1 -1,2l0 0 0 0c-1,1 -2,1 -3,1l-1 0c-1,0 -2,0 -3,-1l0 0c0,0 -1,-1 -1,-2l0 0 0 0 0 0 0 0 0 0 0 -13 0 0 0 0 0 0 0 0 0 0c0,-1 1,-2 1,-3 1,0 2,-1 3,-1l1 0c1,0 2,1 3,1l0 0c1,1 1,2 1,3zm0 26l0 13c0,1 0,2 -1,2l0 0 0 0c-1,1 -2,1 -3,1l-1 0c-1,0 -2,0 -2,-1l0 0c-1,0 -2,-1 -2,-2l0 0 0 0 0 0 0 0 0 0 0 -13 0 0 0 0 0 0 0 0 0 0c0,-1 1,-2 2,-2 0,-1 1,-1 2,-1l1 0c1,0 2,0 3,1l0 0c1,0 1,1 1,2zm0 26l0 13c0,1 0,2 -1,3l0 0 0 0c-1,0 -1,1 -3,1l-1 0c-1,0 -2,-1 -2,-2l0 0c-1,0 -1,-1 -1,-2l0 0 0 0 0 0 0 0 0 0 -1 -13 0 0 0 0 0 0 0 0 0 0c1,-1 1,-2 2,-2 0,-1 1,-1 2,-1l1 0c1,0 2,0 3,1l0 0c1,0 1,1 1,2zm0 26l0 13c0,1 0,2 -1,3 0,0 -1,1 -2,1l-2 0c-1,0 -2,-1 -2,-1 -1,-1 -1,-2 -1,-3l0 0 0 0 0 0 0 0 0 0 0 -13 0 0 0 0 0 0 0 0 0 0c0,-1 0,-2 1,-2 0,-1 1,-1 2,-1l1 0c2,0 3,0 3,1 1,1 1,1 1,2zm0 26l0 13c0,1 0,2 -1,3l0 0 0 0c0,0 -1,1 -2,1l-1 0c-2,-1 -3,-1 -3,-2l0 0c-1,0 -1,-1 -1,-2l0 0 0 0 0 0 0 0 0 0 0 -13 0 0 0 0 0 0 0 0 0 0c0,-1 0,-2 1,-2 0,-1 1,-1 2,-1l2 0c1,0 2,0 2,1l0 0c1,1 1,2 1,2zm0 26l0 13c0,1 0,2 -1,2l0 0 0 0c0,1 -1,1 -2,1l-1 0c-1,0 -2,0 -3,-1l0 0c-1,0 -1,-1 -1,-2l0 0 0 0 0 0 0 0 0 0 0 -13 0 0 0 0 0 0 0 0 0 0c0,-1 0,-2 1,-2 1,-1 1,-1 3,-1l1 0c1,0 2,0 2,1l0 0c1,1 1,2 1,2zm1 26l0 13c0,1 -1,2 -2,2l0 0 0 0c0,1 -1,1 -2,1l-1 0c-1,0 -2,0 -3,-1l0 0c-1,-1 -1,-1 -1,-2l0 0 0 0 0 0 0 0 0 0 0 -13 0 0 0 0 0 0 0 0 0 0c0,-1 0,-2 1,-2 1,-1 2,-1 3,-1l1 0c1,0 2,0 2,1l0 0c1,0 2,1 2,2zm0 26l0 13c0,1 -1,1 -2,2l0 0 0 0c0,1 -1,1 -2,1l-1 0c-1,0 -2,-1 -3,-1l0 0c-1,-1 -1,-2 -1,-3l0 0 0 0 0 0 0 0 0 0 0 -12 0 0 0 0 0 0 0 0 0 0c0,-1 0,-2 1,-3 1,0 2,-1 3,-1l1 0c1,1 2,1 2,2l0 0c1,0 2,1 2,2zm0 26l0 12c0,1 -1,2 -1,3l0 0 0 0c-1,0 -2,1 -3,1l-1 0c-1,0 -2,-1 -3,-2l0 0c-1,0 -1,-1 -1,-2l0 0 0 0 0 0 0 0 0 0 0 -13 0 0 0 0 0 0 0 0 0 0c0,-1 0,-1 1,-2 1,-1 2,-1 3,-1l1 0c1,0 2,1 3,1l0 0c0,1 1,2 1,3zm0 77l0 12c0,1 -1,2 -1,2l0 0 0 0c-1,1 -2,1 -3,1l-1 0c-1,0 -2,0 -3,-1l0 0c0,-1 -1,-2 -1,-3l0 0 0 0 0 0 0 0 0 0 0 -12 0 0 0 0 0 0 0 0 0 0c0,-1 1,-2 1,-2 1,-1 2,-1 3,-1l1 0c1,0 2,0 3,1l0 0c0,1 1,2 1,3zm-15 -377l0 13c0,1 0,2 -1,2l0 0 0 0c-1,1 -2,2 -3,2l-1 0c-1,0 -2,-1 -3,-1l0 0c0,-1 -1,-2 -1,-3l0 0 0 0 0 0 0 0 0 0 0 -13 0 0 0 0 0 0 0 0 0 0c0,-1 1,-2 1,-2 1,-1 2,-1 3,-1l1 -1c1,0 2,1 3,1l0 0c0,1 1,2 1,3zm0 26l0 13c0,1 0,2 -1,3l0 0 0 0c-1,0 -2,1 -3,1l-1 0c-1,0 -2,0 -3,-1l0 0c0,-1 -1,-1 -1,-2l0 0 0 0 0 0 0 -1 0 0 0 -12 0 0 0 0 0 0 0 0 0 0c0,-1 1,-2 1,-3 1,-1 2,-1 3,-1l1 0c1,0 2,0 3,1l0 0c1,0 1,1 1,2zm0 27l0 12c0,1 0,2 -1,3l0 0 0 0c-1,1 -2,1 -3,1l-1 0c-1,0 -2,0 -3,-1l0 0c0,0 -1,-1 -1,-2l0 0 0 0 0 0 0 0 0 0 0 -13 0 0 0 0 0 0 0 0 0 0c0,-1 1,-2 1,-3 1,0 2,-1 3,-1l1 0c1,0 2,1 3,1l0 0c1,1 1,2 1,3zm0 26l0 13c0,1 0,2 -1,2l0 0 0 0c-1,1 -2,1 -3,1l-1 0c-1,0 -2,0 -2,-1l0 0c-1,0 -2,-1 -2,-2l0 0 0 0 0 0 0 0 0 0 0 -13 0 0 0 0 0 0 0 0 0 0c0,-1 1,-2 2,-2 0,-1 1,-1 2,-1l1 0c1,0 2,0 3,1l0 0c1,0 1,1 1,2zm0 26l0 13c0,1 0,2 -1,2l0 0 0 0c-1,1 -1,2 -3,2l-1 0c-1,0 -2,-1 -2,-2l0 0c-1,0 -1,-1 -1,-2l0 0 0 0 0 0 0 0 0 0 -1 -13 0 0 0 0 0 0 0 0 0 0c1,-1 1,-2 2,-2 0,-1 1,-1 2,-1l1 0c1,0 2,0 3,1l0 0c1,0 1,1 1,2zm0 26l0 13c0,1 0,2 -1,3l0 0 0 0c0,0 -1,1 -2,1l-2 0c-1,0 -2,-1 -2,-1l0 0c-1,-1 -1,-2 -1,-3l0 0 0 0 0 0 0 0 0 0 0 -13 0 0 0 0 0 0 0 0 0 0c0,-1 0,-2 1,-2 0,-1 1,-1 2,-1l1 0c2,0 2,0 3,1l0 0c1,1 1,1 1,2zm0 26l0 13c0,1 0,2 -1,3l0 0 0 0c0,0 -1,1 -2,1l-1 0c-2,0 -2,-1 -3,-2l0 0c-1,0 -1,-1 -1,-2l0 0 0 0 0 0 0 0 0 0 0 -13 0 0 0 0 0 0 0 0 0 0c0,-1 0,-2 1,-2 0,-1 1,-1 2,-1l2 0c1,0 2,0 2,1l0 0c1,1 1,1 1,2zm0 26l1 13c0,1 -1,2 -2,2l0 0 0 0c0,1 -1,1 -2,1l-1 0c-1,0 -2,0 -3,-1l0 0c-1,0 -1,-1 -1,-2l0 0 0 0 0 0 0 0 0 0 0 -13 0 0 0 0 0 0 0 0 0 0c0,-1 0,-2 1,-2 1,-1 2,-1 3,-1l1 0c1,0 2,0 2,1l0 0c1,1 1,1 1,2zm1 26l0 13c0,1 -1,2 -2,2l0 0 0 0c0,1 -1,1 -2,1l-1 0c-1,0 -2,0 -3,-1l0 0c-1,0 -1,-1 -1,-2l0 0 0 0 0 0 0 0 0 0 0 -13 0 0 0 0 0 0 0 0 0 0c0,-1 0,-2 1,-2 1,-1 2,-1 3,-1l1 0c1,0 2,0 2,1l0 0c1,0 2,1 2,2zm0 26l0 13c0,1 -1,1 -1,2l0 0 0 0c-1,1 -2,1 -3,1l-1 0c-1,0 -2,0 -3,-1l0 0c-1,-1 -1,-2 -1,-3l0 0 0 0 0 0 0 0 0 0 0 -12 0 0 0 0 0 0 0 0 0 0c0,-1 0,-2 1,-3 1,0 2,-1 3,-1l1 0c1,0 2,1 3,2l0 0c0,0 1,1 1,2zm0 26l0 12c0,1 -1,2 -1,3l0 0 0 0c-1,0 -2,1 -3,1l-1 0c-1,0 -2,-1 -3,-2l0 0c0,0 -1,-1 -1,-2l0 0 0 0 0 0 0 0 0 0 0 -12 0 0 0 0 0 -1 0 0 0 0c0,0 1,-1 1,-2 1,-1 2,-1 3,-1l1 0c1,0 2,1 3,1l0 0c0,1 1,2 1,3zm0 26l0 12c0,1 -1,2 -1,2l0 0 0 0c-1,1 -2,1 -3,1l-1 0c-1,0 -2,0 -3,-1l0 0c0,-1 -1,-1 -1,-2l0 0 0 0 0 0 0 0 0 -1 0 -12 0 0 0 0 0 0 0 0 0 0c0,-1 1,-2 1,-2 1,-1 2,-1 3,-1l1 0c1,0 2,0 3,1l0 0c0,1 1,2 1,3zm-15 -300l0 13c0,1 0,2 -1,3l0 0 0 0c0,0 -1,1 -2,1l-1 0c-1,0 -2,0 -3,-1l0 0c-1,-1 -1,-2 -1,-2l0 0 0 0 0 -1 0 0 0 0 0 -12 0 0 0 0 0 0 0 0 0 0c0,-1 0,-2 1,-3 1,-1 1,-1 3,-1l1 0c1,0 2,0 2,1l0 0c1,0 1,1 1,2zm1 27l0 12c0,1 -1,2 -2,3l0 0 0 0c0,1 -1,1 -2,1l-1 0c-1,0 -2,0 -3,-1l0 0c-1,0 -1,-1 -1,-2l0 0 0 0 0 0 0 0 0 0 0 -13 0 0 0 0 0 0 0 0 0 0c0,-1 0,-2 1,-3 1,0 2,-1 3,-1l1 0c1,0 2,0 2,1l0 0c1,1 2,2 2,3zm0 26l0 13c0,1 -1,2 -1,2l0 0 0 0c-1,1 -2,1 -3,1l-1 0c-1,0 -2,0 -3,-1l0 0c-1,0 -1,-1 -1,-2l0 0 0 0 0 0 0 0 0 0 0 -13 0 0 0 0 0 0 0 0 0 0c0,-1 0,-2 1,-2 1,-1 2,-1 3,-2l1 0c1,0 2,1 3,1l0 0c0,1 1,2 1,3zm0 26l0 13c0,1 -1,2 -1,2l0 0 0 0c-1,1 -2,1 -3,1l-1 1c-1,0 -2,-1 -3,-2l0 0c0,0 -1,-1 -1,-2l0 0 0 0 0 0 0 0 0 0 0 -13 0 0 0 0 0 0 0 0 0 0c0,-1 1,-2 1,-2 1,-1 2,-1 3,-1l1 0c1,0 2,0 3,1l0 0c0,0 1,1 1,2zm0 26l0 13c0,1 -1,2 -1,2l0 0 0 0c-1,1 -2,1 -3,1l-1 1c-1,0 -2,-1 -3,-2l0 0c0,0 -1,-1 -1,-2l0 0 0 0 0 0 0 0 0 0 0 -13 0 0 0 0 0 0 0 0 0 0c0,-1 1,-1 1,-2 1,-1 2,-1 3,-1l1 0c1,0 2,0 3,1l0 0c0,0 1,1 1,2zm0 26l0 13c0,1 0,2 -1,2l0 0 0 0c-1,1 -2,2 -3,2l-1 0c-1,0 -2,-1 -3,-1l0 0c0,-1 -1,-2 -1,-3l0 0 0 0 0 0 0 0 0 0 0 -13 0 0 0 0 0 0 0 0 0 0c0,-1 1,-2 1,-2 1,-1 2,-1 3,-1l1 0c1,0 2,0 3,1l0 0c1,0 1,1 1,2zm0 26l0 13c0,1 0,2 -1,2l0 0 0 0c-1,1 -2,1 -3,1l-1 0c-1,0 -2,0 -2,-1l0 0c-1,0 -1,-1 -2,-2l0 0 0 0 0 0 0 0 0 0 0 -13 0 0 0 0 0 0 0 0 0 0c0,-1 1,-2 1,-2 1,-1 2,-1 3,-1l1 0c1,0 2,0 3,1l0 0c1,0 1,1 1,2zm0 26l0 13c0,1 0,2 -1,2 -1,1 -2,1 -3,1l-1 0c-1,0 -2,0 -2,-1 -1,0 -1,-1 -1,-2l0 0 0 0 0 0 0 0 0 0 0 -13 0 0 0 0 0 0 0 0 0 0c0,-1 0,-2 1,-2 0,-1 1,-1 2,-1l1 0c1,0 2,0 3,1 1,0 1,1 1,2zm0 26l0 13c0,1 0,1 -1,2l0 0 0 0c0,1 -1,1 -2,1l-2 0c-1,0 -2,0 -2,-1l0 0c-1,-1 -1,-2 -1,-2l0 -1 0 0 0 0 0 0 0 0 0 -12 0 0 0 0 0 0 0 0 0 0c0,-1 0,-2 1,-3 0,0 1,-1 2,-1l1 0c2,0 2,1 3,2l0 0c1,0 1,1 1,2zm0 26l0 12c0,1 0,2 -1,3l0 0 0 0c0,0 -1,1 -2,1l-1 0c-1,0 -2,-1 -3,-1l0 0c-1,-1 -1,-2 -1,-3l0 0 0 0 0 0 0 0 0 0 0 -12 0 0 0 0 0 0 0 -1 0 0c0,0 0,-1 1,-2 1,0 1,-1 2,-1l2 0c1,0 2,1 2,1l0 0c1,1 1,2 1,3zm0 26l1 12c0,1 -1,2 -2,2l0 0 0 0c0,1 -1,1 -2,1l-1 0c-1,0 -2,0 -3,-1l0 0c-1,-1 -1,-1 -1,-2l0 0 0 0 0 0 0 0 0 0 0 -13 0 0 0 0 0 0 0 0 0 0c0,-1 0,-2 1,-2 1,-1 2,-1 3,-1l1 0c1,0 2,0 2,1l0 0c1,1 1,1 1,3zm1 25l0 12c0,1 -1,2 -1,3l0 0 0 0c-1,0 -2,1 -3,1l-1 0c-1,0 -2,-1 -3,-1l0 0c0,-1 -1,-2 -1,-3l0 0 0 0 0 0 0 0 0 0 0 -12 0 0 0 0 0 0 0 0 0 0c0,-1 0,-2 1,-3 1,0 2,-1 3,-1l1 0c1,0 2,1 2,2l0 0c1,0 2,1 2,2zm0 26l0 12c0,1 -1,2 -1,2l0 0 0 0c-1,1 -2,1 -3,1l-1 0c-1,0 -2,0 -3,-1l0 0c0,-1 -1,-2 -1,-2l0 0 0 0 0 0 0 0 0 -1 0 -12 0 0 0 0 0 0 0 0 0 0c0,-1 1,-2 1,-2 1,-1 2,-1 3,-1l1 0c1,0 2,0 3,1l0 0c0,1 1,2 1,3zm0 76l0 12c0,1 0,2 -1,2l0 0 0 0c-1,1 -2,1 -3,1l-1 0c-1,0 -2,-1 -2,-1l0 0c-1,-1 -1,-2 -2,-3l0 0 0 0 0 0 0 0 0 0 0 -12 0 0 0 0 0 0 0 0 0 0c0,-1 1,-2 2,-2 0,-1 1,-1 2,-1l1 0c1,0 2,0 3,1l0 0c1,1 1,2 1,3zm-15 -374l0 13c0,1 0,2 -1,2l0 0 0 0c-1,1 -1,2 -3,2l-1 0c-1,0 -2,-1 -2,-1l0 0c-1,-1 -1,-2 -1,-3l0 0 0 0 0 0 0 0 0 0 0 -12 0 0 0 -1 0 0 0 0 0 0c0,-1 0,-1 1,-2 0,-1 1,-1 2,-1l1 0c1,0 2,0 3,1l0 0c1,0 1,1 1,2zm0 26l0 13c0,1 0,2 -1,3l0 0 0 0c0,0 -1,1 -2,1l-1 0c-2,0 -2,-1 -3,-1l0 0c-1,-1 -1,-2 -1,-3l0 0 0 0 0 0 0 0 0 0 0 -12 0 0 0 0 0 0 0 0 0 0c0,-1 0,-2 1,-3 0,-1 1,-1 2,-1l2 0c1,0 2,0 2,1l0 0c1,0 1,1 1,2zm0 27l1 12c0,1 -1,2 -2,3l0 0 0 0c0,0 -1,1 -2,1l-1 0c-1,0 -2,-1 -3,-1l0 0c-1,-1 -1,-2 -1,-3l0 0 0 0 0 0 0 0 0 0 0 -12 0 0 0 0 0 0 0 0 0 0c0,-1 0,-2 1,-3 1,0 2,-1 3,-1l1 0c1,0 2,0 2,1l0 0c1,1 1,2 1,3zm1 26l0 12c0,1 -1,2 -1,3l0 0 0 0c-1,0 -2,1 -3,1l-1 0c-1,0 -2,-1 -3,-1l0 0c-1,-1 -1,-2 -1,-3l0 0 0 0 0 0 0 0 0 0 0 -12 0 0 0 0 0 0 0 0 0 0c0,-1 0,-2 1,-3 1,0 2,-1 3,-1l1 0c1,0 2,0 2,1l0 0c1,1 2,2 2,3zm0 26l0 12c0,1 -1,2 -1,3l0 0 0 0c-1,0 -2,1 -3,1l-1 0c-1,0 -2,-1 -3,-1l0 0c0,-1 -1,-2 -1,-3l0 0 0 0 0 0 0 0 0 0 0 -12 0 0 0 0 0 0 0 0 0 0c0,-1 1,-2 1,-3 1,0 2,-1 3,-1l1 0c1,0 2,0 3,1l0 0c0,1 1,2 1,3zm0 26l0 12c0,1 -1,2 -1,3l0 0 0 0c-1,0 -2,1 -3,1l-1 0c-1,0 -2,-1 -3,-1l0 0c0,-1 -1,-2 -1,-3l0 0 0 0 0 0 0 0 0 0 0 -12 0 0 0 -1 0 0 0 0 0 0c0,-1 1,-1 1,-2 1,-1 2,-1 3,-1l1 0c1,0 2,0 3,1l0 0c0,1 1,2 1,3zm0 25l0 13c0,1 0,2 -1,2l0 0 0 0c-1,1 -2,1 -3,1l-1 0c-1,0 -2,0 -2,-1l0 0c-1,0 -2,-1 -2,-2l0 0 0 0 0 0 0 0 0 0 0 -13 0 0 0 0 0 0 0 0 0 0c0,-1 1,-2 1,-2 1,-1 2,-1 3,-1l1 0c1,0 2,0 3,1l0 0c1,0 1,1 1,2zm0 26l0 13c0,0 0,1 -1,2l0 0 0 0c-1,1 -2,1 -3,1l-1 0c-1,0 -2,0 -2,-1l0 0c-1,-1 -1,-2 -1,-2l0 0 0 -1 0 0 0 0 0 0 -1 -12 0 0 0 0 0 0 0 0 0 0c1,-1 1,-2 2,-2 0,-1 1,-1 2,-1l1 0c1,0 2,0 3,1l0 0c1,0 1,1 1,2zm0 26l0 12c0,1 0,2 -1,3l0 0 0 0c-1,0 -1,1 -2,1l-2 0c-1,0 -2,-1 -2,-2l0 0c-1,0 -1,-1 -1,-2l0 0 0 0 0 0 0 0 0 0 0 -12 0 0 0 0 0 0 0 -1 0 0c0,0 0,-1 1,-2 0,0 1,-1 2,-1l1 0c1,0 2,1 3,1l0 0c1,1 1,2 1,3zm0 25l0 13c0,1 0,2 -1,2l0 0 0 0c0,1 -1,1 -2,1l-1 0c-1,0 -2,0 -3,-1l0 0c-1,-1 -1,-1 -1,-2l0 0 0 0 0 0 0 -1 0 0 0 -12 0 0 0 0 0 0 0 0 0 0c0,-1 0,-2 1,-2 1,-1 1,-1 2,-1l2 0c1,0 2,0 2,1l0 0c1,1 1,1 1,2zm0 26l0 12c0,1 0,2 -1,3l0 0 0 0c0,0 -1,1 -2,1l-1 0c-1,0 -2,-1 -3,-2l0 0c-1,0 -1,-1 -1,-2l0 0 0 0 0 0 0 0 0 0 0 -12 0 0 0 0 0 0 0 -1 0 0c0,0 0,-1 1,-2 1,0 2,-1 3,-1l1 0c1,0 2,1 2,1l0 0c1,1 1,2 1,3zm1 25l0 13c0,1 -1,1 -1,2l0 0 0 0c-1,1 -2,1 -3,1l-1 0c-1,0 -2,-1 -3,-1l0 0c0,-1 -1,-2 -1,-3l0 0 0 0 0 0 0 0 0 0 0 -12 0 0 0 0 0 0 0 0 0 0c0,-1 0,-2 1,-2 1,-1 2,-1 3,-1l1 0c1,0 2,0 2,1l0 0c1,0 2,1 2,2zm-15 -270l0 12c0,1 0,2 -1,3l0 0 0 0c-1,1 -2,1 -3,1l-1 0c-1,0 -2,0 -2,-1l0 0c-1,0 -1,-1 -1,-2l0 0 0 0 0 0 0 0 0 0 -1 -13 0 0 0 0 0 0 0 0 0 0c1,-1 1,-2 2,-2 0,-1 1,-2 2,-2l1 0c1,0 2,1 3,1l0 0c1,1 1,2 1,3zm0 26l0 12c0,1 0,2 -1,3l0 0 0 0c0,1 -1,1 -2,1l-2 0c-1,0 -1,0 -2,-1l0 0c-1,-1 -1,-1 -1,-2l0 0 0 0 0 0 0 0 0 0 0 -13 0 0 0 0 0 0 0 0 0 0c0,-1 0,-2 1,-2 0,-1 1,-2 2,-2l1 0c1,0 2,1 3,1l0 0c1,1 1,2 1,3zm0 26l0 12c0,1 0,2 -1,3l0 0 0 0c0,1 -1,1 -2,1l-1 0c-1,0 -2,0 -3,-1l0 0c-1,-1 -1,-1 -1,-2l0 0 0 0 0 0 0 0 0 -1 0 -12 0 0 0 0 0 0 0 0 0 0c0,-1 0,-2 1,-3 1,0 1,-1 3,-1l1 0c1,0 2,1 2,1l0 0c1,1 1,2 1,3zm1 26l0 12c0,1 -1,2 -2,3l0 0 0 0c0,0 -1,1 -2,1l-1 0c-1,0 -2,-1 -3,-1l0 0c0,-1 -1,-2 -1,-3l0 0 0 0 0 0 0 0 0 0 0 -12 0 0 0 0 0 0 0 0 0 0c0,-1 0,-2 1,-3 1,0 2,-1 3,-1l1 0c1,0 2,1 2,1l0 0c1,1 2,2 2,3zm0 26l0 12c0,1 -1,2 -1,3l0 0 0 0c-1,0 -2,1 -3,1l-1 0c-1,0 -2,-1 -3,-1l0 0c0,-1 -1,-2 -1,-3l0 0 0 0 0 0 0 0 0 0 0 -12 0 0 0 0 0 0 0 -1 0 0c0,0 1,-1 1,-2 1,-1 2,-1 3,-1l1 0c1,0 2,0 3,1l0 0c0,1 1,2 1,3zm0 25l0 13c0,1 -1,2 -1,2l0 0 0 0c-1,1 -2,1 -3,1l-1 0c-1,0 -2,0 -3,-1l0 0c0,0 -1,-1 -1,-2l0 0 0 0 0 0 0 0 0 0 0 -13 0 0 0 0 0 0 0 0 0 0c0,-1 1,-2 1,-2 1,-1 2,-1 3,-1l1 0c1,0 2,0 3,1l0 0c0,0 1,1 1,2zm0 26l0 12c0,1 0,2 -1,3 -1,1 -2,1 -3,1l-1 0c-1,0 -2,-1 -2,-1 -1,-1 -1,-2 -1,-3l0 0 0 0 0 0 0 0 0 0 -1 -12 0 0 0 0 0 0 0 0 0 0c0,-1 1,-2 2,-3 0,0 1,-1 2,-1l1 0c1,0 2,1 3,2 1,0 1,1 1,2zm0 26l0 12c0,1 0,2 -1,2l0 0 0 0c-1,1 -2,1 -3,1l-1 0c-1,0 -2,0 -2,-1l0 0c-1,0 -1,-1 -1,-2l0 0 0 0 0 0 0 0 0 0 0 -12 0 -1 0 0 0 0 0 0 0 0c0,-1 0,-1 1,-2 0,-1 1,-1 2,-1l1 0c1,0 2,1 3,1l0 0c1,1 1,2 1,3zm0 25l0 12c0,1 0,2 -1,3l0 0 0 0c0,1 -1,1 -2,1l-1 0c-1,0 -2,-1 -3,-1l0 0c-1,-1 -1,-2 -1,-3l0 0 0 0 0 0 0 0 0 0 0 -12 0 0 0 0 0 0 0 0 0 0c0,-1 0,-2 1,-2 0,-1 1,-1 2,-1l1 0c2,0 2,0 3,1l0 0c1,0 1,1 1,2zm0 26l0 12c0,1 0,2 -1,2l0 0 0 0c0,1 -1,1 -2,1l-1 0c-1,0 -2,0 -3,-1l0 0c-1,0 -1,-1 -1,-2l0 0 0 0 0 0 0 0 0 0 0 -13 0 0 0 0 0 0 0 0 0 0c0,-1 0,-1 1,-2 1,-1 2,-1 3,-1l1 0c1,0 2,0 2,1l0 0c1,1 1,2 1,3zm1 25l0 12c0,1 -1,2 -2,3l0 0 0 0c0,0 -1,1 -2,1l-1 0c-1,-1 -2,-1 -3,-2l0 0c0,0 -1,-1 -1,-2l0 0 0 0 0 0 0 0 0 0 0 -12 0 0 0 0 0 0 0 0 0 0c0,-1 0,-2 1,-3 1,0 2,-1 3,-1l1 0c1,0 2,1 2,2l0 0c1,0 1,1 2,2zm0 25l0 13c0,0 -1,1 -1,2l0 0 0 0c-1,1 -2,1 -3,1l-1 0c-1,0 -2,-1 -3,-1l0 0c0,-1 -1,-2 -1,-3l0 0 0 0 0 0 0 0 0 0 0 -12 0 0 0 0 0 0 0 0 0 0c0,-1 1,-2 1,-2 1,-1 2,-1 3,-1l1 0c1,0 2,0 3,1l0 0c0,0 1,1 1,2z"/>
 </g>
</svg>
