<?xml version="1.0" encoding="UTF-8"?>
<!DOCTYPE svg PUBLIC "-//W3C//DTD SVG 1.1//EN" "http://www.w3.org/Graphics/SVG/1.1/DTD/svg11.dtd">
<!-- Creator: CorelDRAW X7 -->
<svg xmlns="http://www.w3.org/2000/svg" xml:space="preserve" width="98.8236mm" height="46.9031mm" version="1.1" style="shape-rendering:geometricPrecision; text-rendering:geometricPrecision; image-rendering:optimizeQuality; fill-rule:evenodd; clip-rule:evenodd"
viewBox="0 0 2724 1293"
 xmlns:xlink="http://www.w3.org/1999/xlink">
 <defs>
  <style type="text/css">
   <![CDATA[
    .fil0 {fill:#2B2A29}
   ]]>
  </style>
 </defs>
 <g id="Layer_x0020_1">
  <metadata id="CorelCorpID_0Corel-Layer"/>
  <path class="fil0" d="M1766 751l-4 -247 -4 -248c0,-15 5,-29 14,-38 9,-10 22,-15 36,-15l35 2 34 3c14,0 27,7 36,18 9,10 15,24 15,39l4 244 4 243c0,15 -5,29 -14,39 -9,10 -21,16 -35,16l-35 0 -35 0c-14,0 -26,-6 -36,-16 -9,-10 -15,-24 -15,-40zm953 176l-10 -758c0,-22 -2,-25 -45,-29l-1688 -135c-155,-12 -299,-3 -378,26l-575 262c-15,5 -23,13 -23,26l1 666 628 -56 1 0c65,-4 125,-7 189,-8 63,-2 129,-1 208,0l1692 6z"/>
  <path class="fil0" d="M1816 366l60 0c12,0 25,-8 25,-29l-2 -58c0,-19 -11,-35 -23,-36l-31 -1 -32 -2c-13,0 -23,15 -23,34l1 56 0 2c0,0 0,0 0,0 1,20 14,34 25,34z"/>
  <path class="fil0" d="M1859 405l-10 0 -11 -1c-3,0 -7,1 -9,3 -2,3 -4,6 -4,9l0 3c0,4 2,7 4,9 2,3 5,4 9,4l10 0 10 0c3,0 6,-1 8,-3 3,-2 4,-5 4,-9l0 -2c0,-4 -1,-7 -3,-9 -2,-2 -5,-4 -8,-4z"/>
  <path class="fil0" d="M1291 1158c10,14 12,27 13,42 -1,20 6,22 19,22 74,-1 157,-1 271,-1 85,0 157,0 216,1 19,0 21,-10 21,-32 0,-16 -1,-29 10,-44l-524 7 0 0 -2 0c-9,0 -17,2 -24,5z"/>
  <path class="fil0" d="M1796 735c0,20 11,36 25,36l32 0 31 0c13,0 24,-16 23,-36l-4 -230 0 -10c-4,-14 -14,-22 -22,-21l-66 -3c-9,0 -19,10 -22,25l0 6 3 233z"/>
  <path class="fil0" d="M2412 1245l0 0 0 0 0 0 0 0 -1 0 0 0 0 0 0 0 -1 0 0 0 0 0 0 0 0 -1 -1 0 0 0 0 0 0 0 0 0 -1 0 0 0 0 0 0 -1 0 0 0 0 0 0 -1 0 0 0 0 0 0 0 0 -1 0 0 -1 0 0 0 0 0 0 0 0 0 0 0 0 -1 0 0 0 0 0 0 -1 0 0 0 0 -1 0 0 0 0 0 0 0 -1 0 0 0 0 -1 0 0 0 0 -1 0 0 0 0 0 0 0 -1 0 0 0 0 0 -1 0 0 0 0 0 -1 -1 0 0 0 0 -1 0 0 0 0 0 -1 0 0 0 -1 0 0 0 0 0 0 0 -1 0 0 0 -1 0 0 0 0 0 -1 0 0 0 -1 0 0 0 -1 0 0 0 0 0 -1 -1 0 0 -1 0 0 0 -1 0 0 0 -1 0 0 0 -1 0 0 0 -1 0 0 0 -1 0 0 0 -1 0 0 0 -1 0 -1 0 0 0 -1 0 0 0 -1 0 0 0 -1 0 0 0 -1 0 -1 0 0 0 -1 0 -1 0 -1 0 0 1 -1 0 -2 0 0 0 -1 0 0 -1 -1 0 -1 0 -1 0 0 0 -1 0 -1 0 -1 0 0 0 -1 0 -1 0 0 0 -1 0 -1 0 -1 -1 -1 0 0 0 -1 0 -1 0 -1 0 0 -1 -1 0 -1 0 -1 0 -1 0 -1 -1 0 0 -1 0 -1 0 0 -1 -2 0 0 0 -1 0 -1 -1 -1 0 0 0 -1 -1 -1 0 -1 0 0 -1 -1 0 -1 0 -1 -1 -1 0 -1 0 0 -1 -1 0 -1 -1 -1 0 0 -1 -1 0 -1 0 0 -1 -1 0 0 -1 -2 0 0 -1 -1 0 0 -1 -1 0 0 -1 -2 0 0 -1 -1 0 0 0 -1 -1 -1 0 0 -1 -1 -1 0 0 -1 -1 -1 -1 0 0 -1 -1 -1 -1 0 0 -1 -1 0 -1 -1 0 -1 -1 0 -1 -1 -1 0 0 -1 -1 0 -1 -1 0 0c-7,-3 -16,-5 -25,-5l-2 0 0 0 -179 2c28,16 33,37 35,56 4,22 -1,43 25,42l187 6zm-10 -20l0 0 0 0 0 0z"/>
  <path class="fil0" d="M2434 1246l270 -9c11,0 20,-2 20,-17l-4 -280 0 14 -1693 -6 0 0c-79,-1 -145,-1 -208,0 -62,1 -122,4 -188,9l0 0 -629 55 -1 -13 0 230c0,26 5,29 16,30l58 2c2,-4 4,-10 4,-13 1,-4 1,-10 1,-18 -1,-21 0,-37 3,-49 3,-13 8,-22 16,-26l1 -1 2 0 367 -2 1 0 1 0c10,3 18,12 23,27 4,13 7,31 8,54l0 0c1,7 1,13 1,20 0,11 -1,27 6,27l243 11c88,3 137,2 204,0l259 -8 0 0c10,0 12,-12 12,-19 0,-2 0,-4 0,-5l0 0c0,-37 9,-66 23,-87 16,-20 38,-32 65,-32l0 0 2 0 1027 -15 0 0 2 0c28,1 47,13 60,29 12,16 18,35 18,52l0 0 0 2 0 0c0,8 -3,37 10,38l0 0zm-637 -175c1,0 2,0 3,0 0,0 4,0 6,-1 1,-1 3,-1 5,-2 2,-2 5,-4 7,-7 2,-3 4,-5 6,-9 1,-4 2,-9 2,-13 0,-5 -1,-10 -3,-13 -1,-4 -3,-7 -5,-10 -2,-2 -5,-5 -8,-7 -5,-3 -9,-3 -10,-3 -2,0 -3,0 -4,0 -1,0 -2,0 -3,1 -3,0 -5,1 -8,2 -10,6 -15,18 -15,30 0,12 6,23 16,29 6,3 10,3 11,3zm-1 -56c-5,1 -9,4 -13,8 -3,5 -5,11 -4,18 0,6 3,11 6,15 4,4 9,6 15,6 5,-1 10,-4 13,-8 3,-5 5,-11 5,-17 -1,-6 -3,-12 -7,-16 -4,-4 -9,-6 -15,-6zm131 55c1,0 2,0 3,0 0,0 2,0 3,-1 6,-1 12,-5 16,-11 3,-4 4,-10 5,-15 1,-6 0,-12 -2,-17 -1,-3 -3,-6 -5,-9 -3,-5 -8,-8 -14,-10 -1,0 -2,0 -3,0 -1,0 -2,0 -4,0 0,0 -2,0 -3,0 -2,1 -4,2 -7,3 -2,2 -5,4 -7,7 -2,3 -3,6 -5,9 -3,9 -2,18 1,26 3,8 9,15 17,17 2,0 5,1 5,1zm0 -54c-5,0 -9,3 -12,7 -3,5 -5,10 -5,17 1,6 3,11 6,15 4,4 9,6 14,6 5,-1 9,-3 12,-8 3,-4 5,-10 5,-16 -1,-6 -3,-12 -6,-15 -4,-4 -9,-7 -14,-6zm-83 52c2,0 5,0 8,0 -1,-6 -1,-13 -1,-19 0,-7 0,-13 0,-20 1,1 8,9 9,10 3,4 6,7 8,11 3,3 6,6 9,10 3,4 5,6 8,9 0,-10 0,-20 0,-30 0,-10 0,-20 0,-30 -3,0 -5,0 -8,0 1,6 1,13 1,19 0,7 0,13 0,20 -1,-1 -4,-5 -5,-5 -5,-6 -10,-12 -14,-18 -5,-6 -10,-12 -15,-18 0,10 0,21 0,31 0,10 0,20 0,30zm-126 -46c0,2 0,3 0,4 0,1 0,2 0,2 2,6 5,9 9,12 7,4 21,6 20,14 0,3 -2,6 -4,7 -5,2 -11,1 -15,-2 -1,0 -1,-1 -2,-1 -2,1 -5,4 -7,5 1,1 3,3 3,3 1,1 3,2 4,3 4,3 8,2 9,3 1,0 3,0 4,0 2,-1 6,-1 11,-5 2,-2 5,-6 5,-11 1,-5 0,-9 -3,-13 -2,-3 -6,-5 -9,-7 -6,-3 -19,-5 -17,-14 2,-7 10,-8 16,-5 3,1 5,2 5,3 2,-2 5,-4 7,-5 -1,-2 -5,-5 -7,-6 -1,-1 -3,-2 -4,-2 -2,-1 -5,-1 -5,-1 -1,0 -3,0 -4,0 -1,0 -2,0 -3,0 -5,2 -9,5 -12,10 -1,3 -1,5 -1,6zm264 47c2,0 3,0 4,0 1,0 6,0 10,-5 2,-2 3,-4 4,-7 0,-1 1,-3 1,-4 0,-1 0,-1 0,-2 0,-1 -1,-2 -1,-3 -1,-5 -4,-8 -7,-10 -2,-2 -5,-3 -7,-4 -2,-1 -5,-2 -7,-3 -2,-1 -4,-3 -4,-7 0,-6 9,-10 16,-6 1,1 3,2 3,2 2,-1 4,-3 6,-4 -1,-2 -5,-5 -6,-6 -5,-3 -7,-2 -8,-3 -1,0 -2,0 -3,0 -1,1 -5,0 -10,5 -3,2 -5,6 -5,10 -1,4 0,8 2,12 2,3 5,5 8,7 5,2 18,5 15,13 -1,4 -4,6 -8,6 -2,0 -4,0 -6,-1 -2,-1 -4,-2 -4,-3 -1,1 -6,5 -6,5 1,1 1,2 2,3 3,2 6,4 9,5 1,0 2,0 2,0z"/>
  <path class="fil0" d="M451 1237c2,-31 7,-52 23,-67 -2,-2 -4,-4 -6,-4l-354 1c-3,4 -5,9 -7,17 -3,11 -4,26 -3,46l0 0c0,9 0,15 -1,21l0 0c-1,4 -2,7 -4,10l229 -6c5,0 73,-3 108,-4 11,-1 15,-7 15,-14z"/>
 </g>
</svg>
