<?xml version="1.0" encoding="UTF-8"?>
<!DOCTYPE svg PUBLIC "-//W3C//DTD SVG 1.1//EN" "http://www.w3.org/Graphics/SVG/1.1/DTD/svg11.dtd">
<!-- Creator: CorelDRAW X7 -->
<svg xmlns="http://www.w3.org/2000/svg" xml:space="preserve" width="66.1461mm" height="33.2059mm" version="1.1" style="shape-rendering:geometricPrecision; text-rendering:geometricPrecision; image-rendering:optimizeQuality; fill-rule:evenodd; clip-rule:evenodd"
viewBox="0 0 2999 1505"
 xmlns:xlink="http://www.w3.org/1999/xlink">
 <defs>
  <style type="text/css">
   <![CDATA[
    .fil0 {fill:#2B2A29}
   ]]>
  </style>
 </defs>
 <g id="Layer_x0020_1">
  <metadata id="CorelCorpID_0Corel-Layer"/>
  <path class="fil0" d="M1899 687l-6 -363c-1,-22 8,-42 22,-56 14,-14 33,-22 55,-21l53 3 53 3c21,2 41,12 55,27 14,15 23,36 23,58l6 357 6 357c0,22 -8,42 -22,57 -13,14 -32,23 -53,23l-53 0 -54 0c-21,0 -41,-9 -56,-24 -14,-14 -23,-35 -23,-57l-6 -364zm-1208 -653l-666 231c-16,6 -25,14 -25,28l12 1126c0,29 6,41 17,42l78 4c10,-10 11,-22 10,-47 -2,-62 6,-99 23,-109l45 0 383 1c5,1 10,5 14,9 14,16 22,51 25,103 2,34 -3,66 11,70l213 11c96,3 151,3 224,0l269 -3c17,0 26,-12 26,-26 -1,-74 21,-125 60,-149 15,-9 34,-14 55,-14l1118 0c47,0 83,53 83,106 0,31 4,54 14,62 0,0 0,1 1,1 5,3 256,-1 285,-1 33,-1 33,-3 33,-34l-14 -1294c0,-24 -13,-28 -49,-31l-1860 -114c-169,-13 -298,-4 -385,28z"/>
  <path class="fil0" d="M175 1320l0 0c-11,18 -16,52 -15,100 1,24 1,36 -8,46l312 2c7,0 11,-2 15,-7 9,-6 9,-30 9,-47 4,-53 22,-83 55,-92l39 -3 -13 1 -394 0z"/>
  <path class="fil0" d="M1484 1405c-1,-34 -8,-61 -32,-80l-25 0c25,19 37,46 38,80 0,17 0,34 20,34 6,0 11,0 16,0 -17,-2 -17,-18 -17,-34z"/>
  <path class="fil0" d="M2028 1322c-24,19 -19,50 -20,85 0,17 1,30 -23,32 15,0 28,0 41,0 21,0 21,-17 21,-34 0,-34 1,-58 21,-83l-40 0z"/>
  <path class="fil0" d="M2381 1320c51,18 63,48 72,125 1,13 13,23 39,21l147 10c-8,-10 -10,-31 -10,-59 0,-39 -21,-79 -50,-98l-198 1z"/>
  <path class="fil0" d="M2022 1322l-570 3 0 0 5 0c24,19 31,46 32,80 0,16 0,32 16,34 77,-1 169,-1 285,-1 72,0 135,0 190,1 24,-3 23,-15 23,-32 0,-35 -5,-66 19,-85z"/>
  <path class="fil0" d="M1945 437c0,30 20,49 37,49l92 1c19,0 35,-11 35,-42l-1 -90c0,-27 -16,-50 -35,-51l-46 -3 -47 -3c-20,-2 -36,20 -36,47l1 92z"/>
  <path class="fil0" d="M1981 628c-18,0 -34,21 -34,52l3 340c0,29 17,53 36,52l48 0 48 -1c19,0 35,-23 35,-52l-5 -335 0 -4 0 -2c-1,-30 -26,-47 -43,-47l-88 -3z"/>
  <path class="fil0" d="M2014 578l15 0 15 0c5,-1 9,-3 12,-6 3,-3 5,-8 5,-12l0 -5c0,-4 -2,-9 -5,-12 -3,-3 -7,-5 -12,-5l-15 -1 -15 0c-5,0 -10,2 -13,5 -4,4 -6,8 -6,13l0 5c0,5 2,10 6,13 3,3 8,5 13,5z"/>
 </g>
</svg>
