<?xml version="1.0" standalone="no"?>
<!DOCTYPE svg PUBLIC "-//W3C//DTD SVG 20010904//EN"
 "http://www.w3.org/TR/2001/REC-SVG-20010904/DTD/svg10.dtd">
<svg version="1.0" xmlns="http://www.w3.org/2000/svg"
 width="300.000000pt" height="63.000000pt" viewBox="0 0 300.000000 63.000000"
 preserveAspectRatio="xMidYMid meet">
<metadata>
Created by potrace 1.10, written by Peter Selinger 2001-2011
</metadata>
<g transform="translate(0.000000,63.000000) scale(0.050000,-0.050000)"
fill="#000000" stroke="none">
<path d="M476 1231 c-635 -175 -607 -1062 38 -1211 337 -77 437 73 206 311
-154 159 -177 232 -100 309 75 75 137 53 304 -110 223 -216 316 -187 316 98
-1 408 -381 708 -764 603z m60 -312 c57 -53 59 -159 4 -209 -55 -49 -160 -44
-205 11 -108 133 76 314 201 198z"/>
<path d="M2180 1008 c0 -118 47 -111 56 9 5 64 -1 83 -25 83 -24 0 -31 -22
-31 -92z"/>
<path d="M2688 1032 l-68 -68 0 -334 0 -334 68 -68 68 -68 292 0 c246 0 292 5
292 30 0 25 -44 30 -272 30 l-271 0 -59 58 c-52 53 -58 72 -58 190 l0 132 330
0 c280 0 330 5 330 30 0 25 -50 30 -330 30 l-330 0 0 132 c0 118 6 137 58 190
l59 58 271 0 c228 0 272 5 272 30 0 25 -46 30 -292 30 l-292 0 -68 -68z"/>
<path d="M3575 1042 l-65 -59 -6 -411 c-5 -358 -2 -412 24 -412 25 0 32 38 36
215 l6 215 290 0 290 0 6 -215 c4 -177 11 -215 36 -215 26 0 29 54 24 412 l-6
411 -65 59 c-101 89 -469 89 -570 0z m528 -61 c55 -56 59 -69 53 -185 l-6
-126 -290 0 -290 0 -6 126 c-9 196 49 244 296 244 176 0 185 -2 243 -59z"/>
<path d="M4477 1055 c-100 -85 -127 -219 -67 -335 46 -88 100 -108 325 -120
236 -12 281 -38 299 -176 10 -72 4 -89 -50 -143 l-61 -61 -271 0 c-228 0 -272
-5 -272 -30 0 -25 46 -30 292 -30 l292 0 68 68 c95 95 99 256 10 356 -57 64
-62 65 -265 76 -279 14 -357 73 -324 242 24 117 81 138 380 138 224 0 267 5
267 30 0 56 -555 43 -623 -15z"/>
<path d="M5260 1070 c0 -24 30 -30 160 -30 l159 0 6 -435 c5 -395 8 -435 40
-441 32 -6 35 25 35 434 l0 440 160 6 c311 11 180 46 -195 51 -316 5 -365 2
-365 -25z"/>
<path d="M2180 472 c0 -266 4 -312 31 -312 40 0 35 601 -6 615 -19 6 -25 -63
-25 -303z"/>
</g>
</svg>
